<svg xmlns="http://www.w3.org/2000/svg" xmlns:xlink="http://www.w3.org/1999/xlink" width="1889" zoomAndPan="magnify" viewBox="0 0 1416.96 1417.499962" height="1889" preserveAspectRatio="xMidYMid meet" version="1.0"><defs><clipPath id="5b437ec182"><path d="M 0.230469 0 L 1416.691406 0 L 1416.691406 1417 L 0.230469 1417 Z M 0.230469 0 " clip-rule="nonzero"/></clipPath><clipPath id="07df4cf28c"><path d="M 425.277344 351 L 992 351 L 992 917.523438 L 425.277344 917.523438 Z M 425.277344 351 " clip-rule="nonzero"/></clipPath></defs><g clip-path="url(#5b437ec182)"><path fill="#ffffff" d="M 0.230469 0 L 1417.230469 0 L 1417.230469 1417 L 0.230469 1417 Z M 0.230469 0 " fill-opacity="1" fill-rule="nonzero"/><path fill="#ffffff" d="M 0.230469 0 L 1417.230469 0 L 1417.230469 1417 L 0.230469 1417 Z M 0.230469 0 " fill-opacity="1" fill-rule="nonzero"/></g><g clip-path="url(#07df4cf28c)"><path fill="#424242" d="M 987.707031 551.34375 L 714.207031 353.292969 C 711.636719 350.722656 707.351562 350.722656 703.921875 353.292969 L 429.5625 552.203125 C 426.132812 554.773438 425.277344 558.203125 426.132812 561.632812 C 426.992188 565.0625 430.421875 567.636719 434.707031 567.636719 L 443.28125 567.636719 L 443.28125 625.078125 C 443.28125 630.222656 446.710938 633.652344 451.855469 633.652344 L 463 633.652344 L 463 908.867188 C 463 914.011719 466.429688 917.441406 471.574219 917.441406 L 945.695312 917.441406 C 950.839844 917.441406 954.269531 914.011719 954.269531 908.867188 L 954.269531 633.652344 L 966.273438 633.652344 C 971.417969 633.652344 974.847656 630.222656 974.847656 625.078125 L 974.847656 567.636719 L 983.421875 567.636719 C 988.566406 567.636719 991.996094 564.207031 991.996094 559.0625 C 991.996094 555.632812 990.28125 552.203125 987.707031 551.34375 Z M 709.0625 370.441406 L 956.84375 549.628906 L 461.285156 549.628906 Z M 937.125 900.292969 L 480.148438 900.292969 L 480.148438 633.652344 L 937.125 633.652344 Z M 957.699219 616.503906 C 910.546875 616.503906 519.585938 616.503906 460.429688 616.503906 L 460.429688 567.636719 L 957.699219 567.636719 Z M 957.699219 616.503906 " fill-opacity="1" fill-rule="nonzero"/></g><path fill="#424242" d="M 709.0625 416.738281 C 675.628906 416.738281 648.191406 444.175781 648.191406 477.613281 C 648.191406 511.046875 675.628906 538.484375 709.0625 538.484375 C 742.5 538.484375 769.9375 511.046875 769.9375 477.613281 C 769.078125 443.316406 742.5 416.738281 709.0625 416.738281 Z M 709.0625 520.480469 C 685.058594 520.480469 665.339844 500.761719 665.339844 476.753906 C 665.339844 452.746094 685.058594 433.027344 709.0625 433.027344 C 733.070312 433.027344 752.789062 452.746094 752.789062 476.753906 C 751.933594 500.761719 733.070312 520.480469 709.0625 520.480469 Z M 709.0625 520.480469 " fill-opacity="1" fill-rule="nonzero"/><path fill="#424242" d="M 505.011719 763.972656 L 589.890625 763.972656 C 595.035156 763.972656 598.464844 760.542969 598.464844 755.398438 L 598.464844 666.230469 C 598.464844 661.085938 595.035156 657.65625 589.890625 657.65625 L 505.011719 657.65625 C 499.867188 657.65625 496.4375 661.085938 496.4375 666.230469 L 496.4375 755.398438 C 496.4375 760.542969 500.726562 763.972656 505.011719 763.972656 Z M 513.585938 674.804688 L 581.316406 674.804688 L 581.316406 746.824219 L 513.585938 746.824219 Z M 513.585938 674.804688 " fill-opacity="1" fill-rule="nonzero"/><path fill="#424242" d="M 623.328125 763.972656 L 708.207031 763.972656 C 713.351562 763.972656 716.78125 760.542969 716.78125 755.398438 L 716.78125 666.230469 C 716.78125 661.085938 713.351562 657.65625 708.207031 657.65625 L 623.328125 657.65625 C 618.183594 657.65625 614.753906 661.085938 614.753906 666.230469 L 614.753906 755.398438 C 614.753906 760.542969 619.042969 763.972656 623.328125 763.972656 Z M 631.902344 674.804688 L 699.632812 674.804688 L 699.632812 746.824219 L 631.902344 746.824219 Z M 631.902344 674.804688 " fill-opacity="1" fill-rule="nonzero"/><path fill="#424242" d="M 505.011719 884.859375 L 589.890625 884.859375 C 595.035156 884.859375 598.464844 881.429688 598.464844 876.285156 L 598.464844 787.121094 C 598.464844 781.976562 595.035156 778.546875 589.890625 778.546875 L 505.011719 778.546875 C 499.867188 778.546875 496.4375 781.976562 496.4375 787.121094 L 496.4375 876.285156 C 496.4375 881.429688 500.726562 884.859375 505.011719 884.859375 Z M 513.585938 795.695312 L 581.316406 795.695312 L 581.316406 867.710938 L 513.585938 867.710938 Z M 513.585938 795.695312 " fill-opacity="1" fill-rule="nonzero"/><path fill="#424242" d="M 623.328125 884.859375 L 708.207031 884.859375 C 713.351562 884.859375 716.78125 881.429688 716.78125 876.285156 L 716.78125 787.121094 C 716.78125 781.976562 713.351562 778.546875 708.207031 778.546875 L 623.328125 778.546875 C 618.183594 778.546875 614.753906 781.976562 614.753906 787.121094 L 614.753906 876.285156 C 614.753906 881.429688 619.042969 884.859375 623.328125 884.859375 Z M 631.902344 795.695312 L 699.632812 795.695312 L 699.632812 867.710938 L 631.902344 867.710938 Z M 631.902344 795.695312 " fill-opacity="1" fill-rule="nonzero"/><path fill="#424242" d="M 743.359375 884.859375 L 828.238281 884.859375 C 833.382812 884.859375 836.8125 881.429688 836.8125 876.285156 L 836.8125 787.121094 C 836.8125 781.976562 833.382812 778.546875 828.238281 778.546875 L 743.359375 778.546875 C 738.214844 778.546875 734.785156 781.976562 734.785156 787.121094 L 734.785156 876.285156 C 734.785156 881.429688 738.214844 884.859375 743.359375 884.859375 Z M 751.933594 795.695312 L 819.664062 795.695312 L 819.664062 867.710938 L 751.933594 867.710938 Z M 751.933594 795.695312 " fill-opacity="1" fill-rule="nonzero"/><path fill="#424242" d="M 743.359375 674.804688 L 913.117188 674.804688 C 918.261719 674.804688 921.691406 671.375 921.691406 666.230469 C 921.691406 661.085938 918.261719 657.65625 913.117188 657.65625 L 743.359375 657.65625 C 738.214844 657.65625 734.785156 661.085938 734.785156 666.230469 C 734.785156 670.519531 738.214844 674.804688 743.359375 674.804688 Z M 743.359375 674.804688 " fill-opacity="1" fill-rule="nonzero"/><path fill="#424242" d="M 743.359375 719.386719 L 913.117188 719.386719 C 918.261719 719.386719 921.691406 715.957031 921.691406 710.816406 C 921.691406 705.671875 918.261719 702.242188 913.117188 702.242188 L 743.359375 702.242188 C 738.214844 702.242188 734.785156 705.671875 734.785156 710.816406 C 734.785156 715.101562 738.214844 719.386719 743.359375 719.386719 Z M 743.359375 719.386719 " fill-opacity="1" fill-rule="nonzero"/><path fill="#424242" d="M 743.359375 763.972656 L 913.117188 763.972656 C 918.261719 763.972656 921.691406 760.542969 921.691406 755.398438 C 921.691406 750.253906 918.261719 746.824219 913.117188 746.824219 L 743.359375 746.824219 C 738.214844 746.824219 734.785156 750.253906 734.785156 755.398438 C 734.785156 760.542969 738.214844 763.972656 743.359375 763.972656 Z M 743.359375 763.972656 " fill-opacity="1" fill-rule="nonzero"/></svg>