<svg xmlns="http://www.w3.org/2000/svg" xmlns:xlink="http://www.w3.org/1999/xlink" width="1889" zoomAndPan="magnify" viewBox="0 0 1417.5 1417.500002" height="1889" preserveAspectRatio="xMidYMid meet" version="1.0"><defs><clipPath id="5096cfe418"><path d="M 425.046875 514.660156 L 991.847656 514.660156 L 991.847656 902.273438 L 425.046875 902.273438 Z M 425.046875 514.660156 " clip-rule="nonzero"/></clipPath></defs><path fill="#ffffff" d="M 0 0 L 1417 0 L 1417 1417 L 0 1417 Z M 0 0 " fill-opacity="1" fill-rule="nonzero"/><path fill="#ffffff" d="M 0 0 L 1417 0 L 1417 1417 L 0 1417 Z M 0 0 " fill-opacity="1" fill-rule="nonzero"/><g clip-path="url(#5096cfe418)"><path fill="#424242" d="M 803.652344 856.570312 L 767.832031 856.570312 L 767.832031 618.863281 C 767.832031 612.816406 765.429688 607.019531 761.15625 602.746094 C 756.882812 598.46875 751.085938 596.066406 745.039062 596.066406 L 671.773438 596.066406 C 665.726562 596.066406 659.929688 598.46875 655.65625 602.746094 C 651.378906 607.019531 648.980469 612.816406 648.980469 618.863281 L 648.980469 856.570312 L 613.160156 856.570312 L 613.160156 700.269531 C 613.160156 694.222656 610.757812 688.425781 606.484375 684.152344 C 602.210938 679.875 596.410156 677.472656 590.367188 677.472656 L 517.101562 677.472656 C 511.054688 677.472656 505.257812 679.875 500.984375 684.152344 C 496.707031 688.425781 494.304688 694.222656 494.304688 700.269531 L 494.304688 856.570312 L 447.90625 856.570312 C 435.324219 856.570312 425.109375 866.78125 425.109375 879.363281 C 425.109375 891.945312 435.324219 902.15625 447.90625 902.15625 L 968.90625 902.15625 C 981.488281 902.15625 991.703125 891.945312 991.703125 879.363281 C 991.703125 866.78125 981.488281 856.570312 968.90625 856.570312 L 922.503906 856.570312 L 922.503906 537.453125 C 922.503906 524.867188 912.300781 514.660156 899.710938 514.660156 C 879.8125 514.660156 846.34375 514.660156 826.445312 514.660156 C 813.855469 514.660156 803.652344 524.867188 803.652344 537.453125 Z M 447.90625 889.132812 C 442.511719 889.132812 438.136719 884.753906 438.136719 879.363281 C 438.136719 873.972656 442.511719 869.59375 447.90625 869.59375 L 968.90625 869.59375 C 974.296875 869.59375 978.675781 873.972656 978.675781 879.363281 C 978.675781 884.753906 974.296875 889.132812 968.90625 889.132812 Z M 600.136719 856.570312 L 507.332031 856.570312 C 507.332031 856.570312 507.332031 700.269531 507.332031 700.269531 C 507.332031 697.679688 508.359375 695.195312 510.191406 693.359375 C 512.023438 691.527344 514.507812 690.5 517.101562 690.5 L 590.367188 690.5 C 592.957031 690.5 595.441406 691.527344 597.273438 693.359375 C 599.105469 695.195312 600.136719 697.679688 600.136719 700.269531 Z M 754.808594 618.863281 L 754.808594 856.570312 C 754.808594 856.570312 662.003906 856.570312 662.003906 856.570312 C 662.003906 856.570312 662.003906 618.863281 662.003906 618.863281 C 662.003906 616.269531 663.03125 613.785156 664.863281 611.953125 C 666.699219 610.121094 669.183594 609.09375 671.773438 609.09375 L 745.039062 609.09375 C 747.628906 609.09375 750.113281 610.121094 751.945312 611.953125 C 753.777344 613.785156 754.808594 616.269531 754.808594 618.863281 Z M 909.480469 537.453125 L 909.480469 856.570312 C 909.480469 856.570312 816.675781 856.570312 816.675781 856.570312 C 816.675781 856.570312 816.675781 537.453125 816.675781 537.453125 C 816.675781 532.058594 821.050781 527.6875 826.445312 527.6875 C 846.34375 527.6875 879.8125 527.6875 899.710938 527.6875 C 905.109375 527.6875 909.480469 532.058594 909.480469 537.453125 Z M 909.480469 537.453125 " fill-opacity="1" fill-rule="evenodd"/></g></svg>