<svg xmlns="http://www.w3.org/2000/svg" xmlns:xlink="http://www.w3.org/1999/xlink" width="1889" zoomAndPan="magnify" viewBox="0 0 1416.96 1417.499962" height="1889" preserveAspectRatio="xMidYMid meet" version="1.0"><defs><clipPath id="bbc98c35b1"><path d="M 0.230469 0 L 1416.691406 0 L 1416.691406 1417 L 0.230469 1417 Z M 0.230469 0 " clip-rule="nonzero"/></clipPath><clipPath id="91b067b2ef"><path d="M 447.238281 425.046875 L 969.804688 425.046875 L 969.804688 991.847656 L 447.238281 991.847656 Z M 447.238281 425.046875 " clip-rule="nonzero"/></clipPath></defs><g clip-path="url(#bbc98c35b1)"><path fill="#ffffff" d="M 0.230469 0 L 1417.230469 0 L 1417.230469 1417 L 0.230469 1417 Z M 0.230469 0 " fill-opacity="1" fill-rule="nonzero"/><path fill="#ffffff" d="M 0.230469 0 L 1417.230469 0 L 1417.230469 1417 L 0.230469 1417 Z M 0.230469 0 " fill-opacity="1" fill-rule="nonzero"/></g><g clip-path="url(#91b067b2ef)"><path fill="#424242" d="M 964.238281 895.460938 L 739.433594 895.460938 C 737 895.460938 734.835938 896.980469 734.003906 899.261719 L 714.410156 953.210938 L 714.410156 812.0625 L 764.804688 716.328125 C 766.976562 712.210938 771.210938 709.648438 775.871094 709.648438 C 785.136719 709.648438 792.679688 702.105469 792.679688 692.839844 L 792.679688 671.796875 C 792.679688 662.484375 785.265625 655.101562 775.800781 654.988281 C 772.933594 654.953125 770.605469 652.59375 770.605469 649.726562 L 770.605469 622.011719 C 770.605469 619.109375 772.96875 616.753906 775.867188 616.753906 L 811.023438 616.753906 C 814.210938 616.753906 816.796875 614.167969 816.796875 610.980469 L 816.796875 564.265625 C 816.796875 561.078125 814.210938 558.496094 811.023438 558.496094 L 776.890625 558.496094 C 773.988281 558.496094 771.632812 556.132812 771.632812 553.234375 L 771.632812 430.820312 C 771.636719 427.632812 769.050781 425.046875 765.863281 425.046875 L 651.40625 425.046875 C 648.21875 425.046875 645.632812 427.632812 645.632812 430.820312 L 645.632812 553.230469 C 645.632812 556.132812 643.273438 558.488281 640.375 558.488281 L 606.242188 558.488281 C 603.054688 558.488281 600.46875 561.074219 600.46875 564.261719 L 600.46875 610.972656 C 600.46875 614.160156 603.054688 616.742188 606.242188 616.742188 L 641.398438 616.742188 C 644.304688 616.742188 646.660156 619.105469 646.660156 622.003906 L 646.660156 649.71875 C 646.660156 652.628906 644.257812 654.941406 641.191406 654.980469 C 641.101562 654.980469 641.019531 654.996094 640.933594 654.996094 C 640.835938 655 640.734375 655.003906 640.636719 655.015625 C 631.742188 655.421875 624.589844 662.820312 624.589844 671.785156 L 624.589844 692.828125 C 624.589844 702.097656 632.132812 709.636719 641.398438 709.636719 C 646.058594 709.636719 650.296875 712.195312 652.464844 716.316406 L 702.859375 812.046875 L 702.859375 953.191406 L 683.269531 899.25 C 682.4375 896.964844 680.269531 895.445312 677.84375 895.445312 L 453.03125 895.445312 C 449.84375 895.445312 447.257812 898.03125 447.257812 901.21875 L 447.257812 957.804688 C 447.257812 960.992188 449.84375 963.578125 453.03125 963.578125 C 456.21875 963.578125 458.804688 960.992188 458.804688 957.804688 L 458.804688 906.996094 L 673.792969 906.996094 L 703.207031 987.976562 C 703.214844 988 703.222656 988.011719 703.234375 988.035156 C 703.332031 988.296875 703.445312 988.550781 703.574219 988.789062 C 703.578125 988.796875 703.582031 988.800781 703.589844 988.8125 C 703.714844 989.039062 703.859375 989.253906 704.011719 989.460938 C 704.039062 989.496094 704.070312 989.539062 704.101562 989.578125 C 704.261719 989.777344 704.433594 989.96875 704.613281 990.144531 C 704.648438 990.179688 704.679688 990.207031 704.710938 990.234375 C 704.886719 990.398438 705.070312 990.546875 705.261719 990.6875 C 705.292969 990.707031 705.316406 990.722656 705.34375 990.742188 C 705.558594 990.890625 705.785156 991.023438 706.019531 991.144531 C 706.058594 991.164062 706.097656 991.179688 706.136719 991.199219 C 706.371094 991.3125 706.613281 991.414062 706.863281 991.496094 C 706.867188 991.496094 706.875 991.5 706.878906 991.5 C 707.128906 991.578125 707.390625 991.640625 707.65625 991.679688 C 707.714844 991.691406 707.769531 991.699219 707.824219 991.703125 C 708.089844 991.742188 708.359375 991.765625 708.632812 991.765625 C 708.902344 991.765625 709.175781 991.738281 709.433594 991.703125 C 709.496094 991.695312 709.550781 991.6875 709.609375 991.675781 C 709.871094 991.628906 710.125 991.574219 710.378906 991.496094 C 710.390625 991.488281 710.402344 991.484375 710.414062 991.480469 C 710.65625 991.402344 710.890625 991.304688 711.117188 991.195312 C 711.160156 991.171875 711.207031 991.152344 711.25 991.128906 C 711.480469 991.011719 711.699219 990.882812 711.910156 990.738281 C 711.945312 990.714844 711.980469 990.6875 712.015625 990.660156 C 712.199219 990.527344 712.367188 990.386719 712.53125 990.238281 C 712.570312 990.203125 712.613281 990.164062 712.65625 990.125 C 712.832031 989.953125 712.996094 989.769531 713.148438 989.578125 C 713.1875 989.53125 713.226562 989.476562 713.261719 989.429688 C 713.40625 989.238281 713.539062 989.039062 713.652344 988.828125 C 713.664062 988.804688 713.675781 988.789062 713.691406 988.769531 C 713.816406 988.535156 713.925781 988.292969 714.023438 988.039062 C 714.03125 988.011719 714.046875 987.988281 714.054688 987.960938 L 743.46875 906.980469 L 958.457031 906.980469 L 958.457031 957.792969 C 958.457031 960.980469 961.042969 963.5625 964.230469 963.5625 C 967.417969 963.5625 970.003906 960.980469 970.003906 957.792969 L 970.003906 901.230469 C 970.011719 898.042969 967.425781 895.460938 964.238281 895.460938 Z M 641.398438 698.101562 C 638.496094 698.101562 636.140625 695.742188 636.140625 692.84375 L 636.140625 671.800781 C 636.140625 668.933594 638.46875 666.578125 641.332031 666.542969 L 699.910156 666.542969 C 703.097656 666.542969 705.683594 663.957031 705.683594 660.769531 C 705.683594 657.582031 703.097656 654.996094 699.910156 654.996094 L 657.363281 654.996094 C 657.90625 653.34375 658.203125 651.582031 658.203125 649.730469 L 658.203125 622.015625 C 658.203125 612.75 650.664062 605.207031 641.394531 605.207031 L 612.011719 605.207031 L 612.011719 570.050781 L 730.445312 570.050781 C 733.632812 570.050781 736.21875 567.464844 736.21875 564.277344 C 736.21875 561.089844 733.632812 558.503906 730.445312 558.503906 L 656.332031 558.503906 C 656.878906 556.847656 657.183594 555.078125 657.183594 553.246094 L 657.183594 436.597656 L 760.09375 436.597656 L 760.09375 553.234375 C 760.09375 562.503906 767.632812 570.042969 776.902344 570.042969 L 805.261719 570.042969 L 805.261719 605.203125 L 722.75 605.203125 C 719.5625 605.203125 716.976562 607.789062 716.976562 610.976562 C 716.976562 614.164062 719.5625 616.75 722.75 616.75 L 759.910156 616.75 C 759.363281 618.40625 759.0625 620.171875 759.0625 622.007812 L 759.0625 649.722656 C 759.0625 658.878906 766.507812 666.421875 775.660156 666.53125 C 778.726562 666.570312 781.128906 668.878906 781.128906 671.796875 L 781.128906 692.839844 C 781.128906 695.742188 778.769531 698.097656 775.871094 698.097656 L 695.289062 698.097656 C 692.101562 698.097656 689.519531 700.683594 689.519531 703.871094 C 689.519531 707.058594 692.101562 709.644531 695.289062 709.644531 L 755.332031 709.644531 C 755.074219 710.066406 754.824219 710.5 754.589844 710.945312 L 708.636719 798.238281 L 662.683594 710.949219 C 658.511719 703.023438 650.355469 698.101562 641.398438 698.101562 Z M 641.398438 698.101562 " fill-opacity="1" fill-rule="nonzero"/></g><path fill="#424242" d="M 938.0625 952.042969 L 743.050781 952.042969 C 739.863281 952.042969 737.277344 954.628906 737.277344 957.816406 C 737.277344 961.003906 739.863281 963.585938 743.050781 963.585938 L 938.0625 963.585938 C 941.25 963.585938 943.835938 961.003906 943.835938 957.816406 C 943.835938 954.628906 941.25 952.042969 938.0625 952.042969 Z M 938.0625 952.042969 " fill-opacity="1" fill-rule="nonzero"/><path fill="#424242" d="M 674.226562 952.042969 L 479.210938 952.042969 C 476.023438 952.042969 473.4375 954.628906 473.4375 957.816406 C 473.4375 961.003906 476.023438 963.585938 479.210938 963.585938 L 674.226562 963.585938 C 677.414062 963.585938 680 961.003906 680 957.816406 C 680 954.628906 677.414062 952.042969 674.226562 952.042969 Z M 674.226562 952.042969 " fill-opacity="1" fill-rule="nonzero"/><path fill="#424242" d="M 765.648438 890.644531 C 766.628906 890.644531 767.625 890.394531 768.535156 889.867188 L 814.488281 863.339844 C 817.25 861.742188 818.195312 858.214844 816.601562 855.453125 C 815.003906 852.691406 811.472656 851.742188 808.714844 853.339844 L 762.761719 879.867188 C 760 881.464844 759.050781 884.992188 760.648438 887.753906 C 761.710938 889.613281 763.652344 890.644531 765.648438 890.644531 Z M 765.648438 890.644531 " fill-opacity="1" fill-rule="nonzero"/><path fill="#424242" d="M 670.050781 782.285156 C 668.957031 779.289062 665.644531 777.742188 662.648438 778.835938 C 659.652344 779.925781 658.105469 783.242188 659.199219 786.238281 L 667.414062 808.800781 C 668.265625 811.148438 670.476562 812.597656 672.839844 812.597656 C 673.492188 812.597656 674.160156 812.484375 674.8125 812.25 C 677.808594 811.15625 679.355469 807.84375 678.261719 804.847656 Z M 670.050781 782.285156 " fill-opacity="1" fill-rule="nonzero"/><path fill="#424242" d="M 675.765625 831.757812 L 684.90625 856.878906 C 685.761719 859.226562 687.972656 860.679688 690.335938 860.679688 C 690.988281 860.679688 691.65625 860.566406 692.308594 860.328125 C 695.304688 859.238281 696.847656 855.921875 695.761719 852.925781 L 686.621094 827.800781 C 685.527344 824.804688 682.214844 823.257812 679.21875 824.355469 C 676.21875 825.445312 674.671875 828.757812 675.765625 831.757812 Z M 675.765625 831.757812 " fill-opacity="1" fill-rule="nonzero"/><path fill="#424242" d="M 635.628906 821.4375 C 633.1875 823.484375 632.863281 827.128906 634.917969 829.570312 L 673.519531 875.574219 C 674.664062 876.9375 676.296875 877.636719 677.945312 877.636719 C 679.257812 877.636719 680.570312 877.195312 681.65625 876.285156 C 684.09375 874.234375 684.417969 870.589844 682.363281 868.148438 L 643.761719 822.144531 C 641.714844 819.707031 638.074219 819.386719 635.628906 821.4375 Z M 635.628906 821.4375 " fill-opacity="1" fill-rule="nonzero"/><path fill="#424242" d="M 597.855469 856.042969 L 656.441406 889.867188 C 657.351562 890.394531 658.34375 890.644531 659.324219 890.644531 C 661.324219 890.644531 663.261719 889.605469 664.332031 887.753906 C 665.929688 884.992188 664.980469 881.460938 662.21875 879.867188 L 603.632812 846.042969 C 600.871094 844.449219 597.335938 845.394531 595.746094 848.15625 C 594.144531 850.921875 595.09375 854.453125 597.855469 856.042969 Z M 597.855469 856.042969 " fill-opacity="1" fill-rule="nonzero"/><path fill="#424242" d="M 750.898438 787.765625 L 726.902344 853.699219 C 725.8125 856.695312 727.355469 860.007812 730.351562 861.097656 C 731.003906 861.335938 731.671875 861.449219 732.324219 861.449219 C 734.683594 861.449219 736.898438 859.992188 737.753906 857.648438 L 761.75 791.71875 C 762.839844 788.722656 761.296875 785.410156 758.300781 784.320312 C 755.292969 783.226562 751.992188 784.769531 750.898438 787.765625 Z M 750.898438 787.765625 " fill-opacity="1" fill-rule="nonzero"/><path fill="#424242" d="M 792.125 809.140625 L 774.535156 830.101562 C 772.488281 832.542969 772.804688 836.1875 775.246094 838.238281 C 776.328125 839.148438 777.644531 839.589844 778.953125 839.589844 C 780.601562 839.589844 782.238281 838.890625 783.378906 837.527344 L 800.96875 816.566406 C 803.015625 814.121094 802.699219 810.480469 800.253906 808.429688 C 797.8125 806.378906 794.171875 806.699219 792.125 809.140625 Z M 792.125 809.140625 " fill-opacity="1" fill-rule="nonzero"/><path fill="#424242" d="M 743.320312 876.289062 C 744.402344 877.199219 745.71875 877.640625 747.03125 877.640625 C 748.675781 877.640625 750.316406 876.941406 751.453125 875.578125 L 771.898438 851.214844 C 773.945312 848.769531 773.628906 845.128906 771.183594 843.082031 C 768.738281 841.03125 765.097656 841.347656 763.050781 843.792969 L 742.605469 868.160156 C 740.558594 870.59375 740.875 874.234375 743.320312 876.289062 Z M 743.320312 876.289062 " fill-opacity="1" fill-rule="nonzero"/><path fill="#424242" d="M 659.328125 765.652344 C 656.28125 765.652344 653.808594 768.125 653.808594 771.171875 C 653.808594 774.21875 656.28125 776.691406 659.328125 776.691406 C 662.378906 776.691406 664.851562 774.21875 664.851562 771.171875 C 664.84375 768.121094 662.378906 765.652344 659.328125 765.652344 Z M 659.328125 765.652344 " fill-opacity="1" fill-rule="nonzero"/><path fill="#424242" d="M 761.84375 782.210938 C 764.890625 782.210938 767.363281 779.734375 767.363281 776.6875 C 767.363281 773.640625 764.890625 771.167969 761.84375 771.167969 C 758.792969 771.167969 756.320312 773.640625 756.320312 776.6875 C 756.324219 779.742188 758.792969 782.210938 761.84375 782.210938 Z M 761.84375 782.210938 " fill-opacity="1" fill-rule="nonzero"/><path fill="#424242" d="M 806.078125 807.175781 C 809.125 807.175781 811.597656 804.703125 811.597656 801.65625 C 811.597656 798.609375 809.125 796.132812 806.078125 796.132812 C 803.03125 796.132812 800.554688 798.609375 800.554688 801.65625 C 800.554688 804.707031 803.023438 807.175781 806.078125 807.175781 Z M 806.078125 807.175781 " fill-opacity="1" fill-rule="nonzero"/><path fill="#424242" d="M 824.550781 856.566406 C 827.601562 856.566406 830.074219 854.09375 830.074219 851.046875 C 830.074219 848 827.601562 845.527344 824.550781 845.527344 C 821.503906 845.527344 819.03125 848 819.03125 851.046875 C 819.03125 854.09375 821.503906 856.566406 824.550781 856.566406 Z M 824.550781 856.566406 " fill-opacity="1" fill-rule="nonzero"/><path fill="#424242" d="M 630.035156 810.632812 C 626.988281 810.632812 624.515625 813.105469 624.515625 816.152344 C 624.515625 819.203125 626.988281 821.675781 630.035156 821.675781 C 633.085938 821.675781 635.558594 819.203125 635.558594 816.152344 C 635.554688 813.101562 633.085938 810.632812 630.035156 810.632812 Z M 630.035156 810.632812 " fill-opacity="1" fill-rule="nonzero"/><path fill="#424242" d="M 588.460938 849.902344 C 591.507812 849.902344 593.984375 847.429688 593.984375 844.382812 C 593.984375 841.335938 591.507812 838.863281 588.460938 838.863281 C 585.414062 838.863281 582.941406 841.335938 582.941406 844.382812 C 582.941406 847.429688 585.414062 849.902344 588.460938 849.902344 Z M 588.460938 849.902344 " fill-opacity="1" fill-rule="nonzero"/></svg>