<svg xmlns="http://www.w3.org/2000/svg" xmlns:xlink="http://www.w3.org/1999/xlink" width="1889" zoomAndPan="magnify" viewBox="0 0 1416.96 1417.499962" height="1889" preserveAspectRatio="xMidYMid meet" version="1.0"><defs><clipPath id="eae5fc4b78"><path d="M 0.230469 0 L 1416.691406 0 L 1416.691406 1417 L 0.230469 1417 Z M 0.230469 0 " clip-rule="nonzero"/></clipPath><clipPath id="49f90e3b65"><path d="M 426 925 L 991.84375 925 L 991.84375 991.847656 L 426 991.847656 Z M 426 925 " clip-rule="nonzero"/></clipPath><clipPath id="09b4d7e30c"><path d="M 426 581 L 991.84375 581 L 991.84375 948 L 426 948 Z M 426 581 " clip-rule="nonzero"/></clipPath></defs><g clip-path="url(#eae5fc4b78)"><path fill="#ffffff" d="M 0.230469 0 L 1417.230469 0 L 1417.230469 1417 L 0.230469 1417 Z M 0.230469 0 " fill-opacity="1" fill-rule="nonzero"/><path fill="#ffffff" d="M 0.230469 0 L 1417.230469 0 L 1417.230469 1417 L 0.230469 1417 Z M 0.230469 0 " fill-opacity="1" fill-rule="nonzero"/></g><g clip-path="url(#49f90e3b65)"><path fill="#424242" d="M 980.136719 991.765625 L 437.132812 991.765625 C 431.011719 991.765625 426.050781 986.804688 426.050781 980.683594 L 426.050781 936.359375 C 426.050781 930.238281 431.011719 925.277344 437.132812 925.277344 L 980.136719 925.277344 C 986.257812 925.277344 991.21875 930.238281 991.21875 936.359375 L 991.21875 980.683594 C 991.21875 986.804688 986.257812 991.765625 980.136719 991.765625 Z M 448.214844 969.601562 L 969.054688 969.601562 L 969.054688 947.4375 L 448.214844 947.4375 Z M 448.214844 969.601562 " fill-opacity="1" fill-rule="nonzero"/></g><path fill="#424242" d="M 534.597656 725.804688 L 460.683594 725.804688 C 454.363281 725.804688 449.304688 720.519531 449.613281 714.1875 L 459.3125 514.714844 C 459.597656 508.820312 464.457031 504.183594 470.359375 504.171875 C 470.480469 504.171875 525.914062 504.066406 525.789062 504.066406 C 531.71875 504.066406 536.597656 508.734375 536.859375 514.660156 L 545.667969 714.234375 C 545.800781 717.253906 544.695312 720.199219 542.605469 722.382812 C 540.515625 724.570312 537.621094 725.804688 534.597656 725.804688 Z M 472.316406 703.640625 L 523.015625 703.640625 L 515.1875 526.25 L 480.9375 526.316406 Z M 472.316406 703.640625 " fill-opacity="1" fill-rule="nonzero"/><path fill="#424242" d="M 527.742188 570.53125 L 468.230469 570.53125 C 462.113281 570.53125 457.148438 565.570312 457.148438 559.449219 C 457.148438 553.332031 462.113281 548.367188 468.230469 548.367188 L 527.742188 548.367188 C 533.863281 548.367188 538.824219 553.332031 538.824219 559.449219 C 538.824219 565.570312 533.863281 570.53125 527.742188 570.53125 Z M 527.742188 570.53125 " fill-opacity="1" fill-rule="nonzero"/><path fill="#424242" d="M 530.183594 625.808594 L 465.542969 625.808594 C 459.425781 625.808594 454.460938 620.847656 454.460938 614.726562 C 454.460938 608.609375 459.425781 603.644531 465.542969 603.644531 L 530.183594 603.644531 C 536.304688 603.644531 541.265625 608.609375 541.265625 614.726562 C 541.265625 620.847656 536.304688 625.808594 530.183594 625.808594 Z M 530.183594 625.808594 " fill-opacity="1" fill-rule="nonzero"/><path fill="#424242" d="M 935.808594 947.4375 L 813.910156 947.4375 C 807.792969 947.4375 802.828125 942.476562 802.828125 936.359375 L 802.828125 747.96875 C 802.828125 741.847656 807.792969 736.886719 813.910156 736.886719 L 935.808594 736.886719 C 941.929688 736.886719 946.890625 741.847656 946.890625 747.96875 L 946.890625 936.359375 C 946.890625 942.476562 941.929688 947.4375 935.808594 947.4375 Z M 824.992188 925.277344 L 924.730469 925.277344 L 924.730469 759.050781 L 824.992188 759.050781 Z M 824.992188 925.277344 " fill-opacity="1" fill-rule="nonzero"/><path fill="#424242" d="M 547.949219 814.457031 L 481.460938 814.457031 C 475.339844 814.457031 470.378906 809.496094 470.378906 803.378906 L 470.378906 759.050781 C 470.378906 752.929688 475.339844 747.96875 481.460938 747.96875 L 547.949219 747.96875 C 554.070312 747.96875 559.03125 752.929688 559.03125 759.050781 L 559.03125 803.378906 C 559.03125 809.496094 554.070312 814.457031 547.949219 814.457031 Z M 492.542969 792.296875 L 536.871094 792.296875 L 536.871094 770.132812 L 492.542969 770.132812 Z M 492.542969 792.296875 " fill-opacity="1" fill-rule="nonzero"/><path fill="#424242" d="M 658.769531 814.457031 L 592.277344 814.457031 C 586.15625 814.457031 581.195312 809.496094 581.195312 803.378906 L 581.195312 759.050781 C 581.195312 752.929688 586.15625 747.96875 592.277344 747.96875 L 658.769531 747.96875 C 664.886719 747.96875 669.847656 752.929688 669.847656 759.050781 L 669.847656 803.378906 C 669.847656 809.496094 664.886719 814.457031 658.769531 814.457031 Z M 603.359375 792.296875 L 647.6875 792.296875 L 647.6875 770.132812 L 603.359375 770.132812 Z M 603.359375 792.296875 " fill-opacity="1" fill-rule="nonzero"/><path fill="#424242" d="M 769.585938 814.457031 L 703.09375 814.457031 C 696.972656 814.457031 692.011719 809.496094 692.011719 803.378906 L 692.011719 759.050781 C 692.011719 752.929688 696.972656 747.96875 703.09375 747.96875 L 769.585938 747.96875 C 775.703125 747.96875 780.667969 752.929688 780.667969 759.050781 L 780.667969 803.378906 C 780.667969 809.496094 775.703125 814.457031 769.585938 814.457031 Z M 714.175781 792.296875 L 758.503906 792.296875 L 758.503906 770.132812 L 714.175781 770.132812 Z M 714.175781 792.296875 " fill-opacity="1" fill-rule="nonzero"/><path fill="#424242" d="M 547.949219 903.113281 L 481.460938 903.113281 C 475.339844 903.113281 470.378906 898.152344 470.378906 892.03125 L 470.378906 847.703125 C 470.378906 841.585938 475.339844 836.621094 481.460938 836.621094 L 547.949219 836.621094 C 554.070312 836.621094 559.03125 841.585938 559.03125 847.703125 L 559.03125 892.03125 C 559.03125 898.148438 554.070312 903.113281 547.949219 903.113281 Z M 492.542969 880.949219 L 536.871094 880.949219 L 536.871094 858.785156 L 492.542969 858.785156 Z M 492.542969 880.949219 " fill-opacity="1" fill-rule="nonzero"/><path fill="#424242" d="M 658.769531 903.113281 L 592.277344 903.113281 C 586.15625 903.113281 581.195312 898.152344 581.195312 892.03125 L 581.195312 847.703125 C 581.195312 841.585938 586.15625 836.621094 592.277344 836.621094 L 658.769531 836.621094 C 664.886719 836.621094 669.847656 841.585938 669.847656 847.703125 L 669.847656 892.03125 C 669.847656 898.148438 664.886719 903.113281 658.769531 903.113281 Z M 603.359375 880.949219 L 647.6875 880.949219 L 647.6875 858.785156 L 603.359375 858.785156 Z M 603.359375 880.949219 " fill-opacity="1" fill-rule="nonzero"/><path fill="#424242" d="M 769.585938 903.113281 L 703.09375 903.113281 C 696.972656 903.113281 692.011719 898.152344 692.011719 892.03125 L 692.011719 847.703125 C 692.011719 841.585938 696.972656 836.621094 703.09375 836.621094 L 769.585938 836.621094 C 775.703125 836.621094 780.667969 841.585938 780.667969 847.703125 L 780.667969 892.03125 C 780.667969 898.148438 775.703125 903.113281 769.585938 903.113281 Z M 714.175781 880.949219 L 758.503906 880.949219 L 758.503906 858.785156 L 714.175781 858.785156 Z M 714.175781 880.949219 " fill-opacity="1" fill-rule="nonzero"/><path fill="#424242" d="M 667.578125 725.804688 L 593.664062 725.804688 C 587.34375 725.804688 582.285156 720.519531 582.59375 714.1875 L 592.289062 514.714844 C 592.578125 508.820312 597.4375 504.183594 603.339844 504.171875 C 603.460938 504.171875 658.894531 504.066406 658.769531 504.066406 C 664.699219 504.066406 669.578125 508.734375 669.839844 514.660156 L 678.648438 714.234375 C 678.925781 720.535156 673.886719 725.804688 667.578125 725.804688 Z M 605.296875 703.640625 L 655.996094 703.640625 L 648.164062 526.25 L 613.917969 526.316406 Z M 605.296875 703.640625 " fill-opacity="1" fill-rule="nonzero"/><path fill="#424242" d="M 660.722656 570.53125 L 601.210938 570.53125 C 595.09375 570.53125 590.128906 565.570312 590.128906 559.449219 C 590.128906 553.332031 595.09375 548.367188 601.210938 548.367188 L 660.722656 548.367188 C 666.84375 548.367188 671.804688 553.332031 671.804688 559.449219 C 671.804688 565.570312 666.84375 570.53125 660.722656 570.53125 Z M 660.722656 570.53125 " fill-opacity="1" fill-rule="nonzero"/><path fill="#424242" d="M 663.164062 625.808594 L 598.523438 625.808594 C 592.40625 625.808594 587.441406 620.847656 587.441406 614.726562 C 587.441406 608.609375 592.40625 603.644531 598.523438 603.644531 L 663.164062 603.644531 C 669.285156 603.644531 674.246094 608.609375 674.246094 614.726562 C 674.246094 620.847656 669.285156 625.808594 663.164062 625.808594 Z M 663.164062 625.808594 " fill-opacity="1" fill-rule="nonzero"/><g clip-path="url(#09b4d7e30c)"><path fill="#424242" d="M 980.136719 947.4375 L 437.132812 947.4375 C 431.011719 947.4375 426.050781 942.476562 426.050781 936.359375 L 426.050781 714.722656 C 426.050781 708.605469 431.011719 703.640625 437.132812 703.640625 L 769.585938 703.640625 L 769.585938 670.398438 C 769.585938 665.828125 772.390625 661.726562 776.652344 660.070312 L 976.121094 582.496094 C 983.390625 579.675781 991.21875 585.042969 991.21875 592.824219 L 991.21875 936.359375 C 991.21875 942.476562 986.257812 947.4375 980.136719 947.4375 Z M 448.214844 925.277344 L 969.054688 925.277344 L 969.054688 609.023438 L 791.75 677.976562 L 791.75 714.722656 C 791.75 720.84375 786.785156 725.804688 780.667969 725.804688 L 448.214844 725.804688 Z M 448.214844 925.277344 " fill-opacity="1" fill-rule="nonzero"/></g><path fill="#424242" d="M 780.667969 725.804688 L 714.175781 725.804688 C 708.054688 725.804688 703.09375 720.84375 703.09375 714.722656 L 703.09375 637.152344 C 703.09375 632.507812 705.988281 628.359375 710.34375 626.753906 L 920.898438 549.179688 C 924.296875 547.929688 928.09375 548.417969 931.066406 550.488281 C 934.039062 552.5625 935.808594 555.957031 935.808594 559.578125 L 935.808594 614.238281 C 935.808594 620.355469 930.847656 625.320312 924.730469 625.320312 C 918.609375 625.320312 913.648438 620.355469 913.648438 614.238281 L 913.648438 575.472656 L 725.257812 644.878906 L 725.257812 703.640625 L 780.667969 703.640625 C 786.785156 703.640625 791.75 708.601562 791.75 714.722656 C 791.75 720.84375 786.785156 725.804688 780.667969 725.804688 Z M 780.667969 725.804688 " fill-opacity="1" fill-rule="nonzero"/><path fill="#424242" d="M 614.597656 471.878906 C 611.445312 466.628906 613.148438 459.824219 618.394531 456.671875 C 625.3125 452.519531 630.5625 452.179688 634.035156 451.949219 C 636.484375 451.792969 637.398438 451.730469 639.714844 450.34375 C 642.03125 448.953125 642.515625 448.171875 643.808594 446.085938 C 645.644531 443.128906 648.414062 438.660156 655.332031 434.507812 C 662.253906 430.359375 667.5 430.015625 670.972656 429.789062 C 673.421875 429.625 674.335938 429.566406 676.65625 428.175781 C 681.902344 425.027344 688.710938 426.730469 691.859375 431.980469 C 695.007812 437.226562 693.304688 444.035156 688.058594 447.183594 C 681.136719 451.332031 675.890625 451.675781 672.417969 451.90625 C 669.96875 452.0625 669.054688 452.125 666.734375 453.515625 C 664.421875 454.902344 663.9375 455.683594 662.644531 457.769531 C 660.808594 460.726562 658.035156 465.195312 651.117188 469.347656 C 644.199219 473.5 638.953125 473.839844 635.480469 474.070312 C 633.03125 474.230469 632.117188 474.289062 629.800781 475.675781 C 624.53125 478.839844 617.730469 477.105469 614.597656 471.878906 Z M 614.597656 471.878906 " fill-opacity="1" fill-rule="nonzero"/><path fill="#424242" d="M 480.191406 471.878906 C 477.042969 466.628906 478.742188 459.824219 483.992188 456.671875 C 490.910156 452.519531 496.15625 452.179688 499.628906 451.949219 C 502.078125 451.792969 502.992188 451.730469 505.308594 450.34375 C 507.625 448.953125 508.109375 448.171875 509.402344 446.085938 C 511.238281 443.128906 514.011719 438.660156 520.929688 434.507812 C 527.847656 430.359375 533.09375 430.015625 536.566406 429.789062 C 539.015625 429.625 539.933594 429.566406 542.25 428.175781 C 547.496094 425.027344 554.304688 426.730469 557.453125 431.980469 C 560.601562 437.226562 558.902344 444.035156 553.652344 447.183594 C 546.734375 451.332031 541.484375 451.675781 538.015625 451.90625 C 535.566406 452.0625 534.648438 452.125 532.332031 453.515625 C 530.015625 454.902344 529.53125 455.683594 528.238281 457.769531 C 526.40625 460.726562 523.632812 465.195312 516.710938 469.347656 C 509.796875 473.5 504.546875 473.839844 501.074219 474.070312 C 498.628906 474.230469 497.710938 474.289062 495.394531 475.675781 C 490.125 478.839844 483.328125 477.105469 480.191406 471.878906 Z M 480.191406 471.878906 " fill-opacity="1" fill-rule="nonzero"/></svg>