<svg xmlns="http://www.w3.org/2000/svg" xmlns:xlink="http://www.w3.org/1999/xlink" width="1889" zoomAndPan="magnify" viewBox="0 0 1416.96 1417.499962" height="1889" preserveAspectRatio="xMidYMid meet" version="1.0"><defs><clipPath id="0b77d0a345"><path d="M 0.230469 0 L 1416.691406 0 L 1416.691406 1417 L 0.230469 1417 Z M 0.230469 0 " clip-rule="nonzero"/></clipPath><clipPath id="73916983b7"><path d="M 425.277344 474 L 943 474 L 943 991.847656 L 425.277344 991.847656 Z M 425.277344 474 " clip-rule="nonzero"/></clipPath><clipPath id="ace5b9df8b"><path d="M 671 425.046875 L 992 425.046875 L 992 746 L 671 746 Z M 671 425.046875 " clip-rule="nonzero"/></clipPath></defs><g clip-path="url(#0b77d0a345)"><path fill="#ffffff" d="M 0.230469 0 L 1417.230469 0 L 1417.230469 1417 L 0.230469 1417 Z M 0.230469 0 " fill-opacity="1" fill-rule="nonzero"/><path fill="#ffffff" d="M 0.230469 0 L 1417.230469 0 L 1417.230469 1417 L 0.230469 1417 Z M 0.230469 0 " fill-opacity="1" fill-rule="nonzero"/></g><g clip-path="url(#73916983b7)"><path fill="#424242" d="M 683.996094 991.765625 C 541.332031 991.765625 425.277344 875.710938 425.277344 733.046875 C 425.277344 590.378906 541.332031 474.328125 683.996094 474.328125 C 734.851562 474.328125 784.15625 489.183594 826.613281 517.273438 C 832.253906 521.019531 833.832031 528.683594 830.085938 534.347656 C 826.292969 540.042969 818.652344 541.542969 813.011719 537.824219 C 774.621094 512.421875 730 498.964844 683.996094 498.964844 C 554.933594 498.964844 449.917969 603.980469 449.917969 733.046875 C 449.917969 862.109375 554.933594 967.125 683.996094 967.125 C 813.058594 967.125 918.074219 862.109375 918.074219 733.046875 C 918.074219 687.042969 904.644531 642.421875 879.21875 604.03125 C 875.472656 598.363281 877.023438 590.699219 882.691406 586.957031 C 888.335938 583.234375 895.972656 584.738281 899.769531 590.429688 C 927.882812 632.859375 942.714844 682.1875 942.714844 733.046875 C 942.714844 875.710938 826.660156 991.765625 683.996094 991.765625 Z M 683.996094 991.765625 " fill-opacity="1" fill-rule="nonzero"/></g><path fill="#424242" d="M 683.996094 794.644531 C 650.015625 794.644531 622.394531 767 622.394531 733.046875 C 622.394531 699.09375 650.015625 671.445312 683.996094 671.445312 C 717.972656 671.445312 745.59375 699.09375 745.59375 733.046875 C 745.59375 767 717.972656 794.644531 683.996094 794.644531 Z M 683.996094 696.085938 C 663.617188 696.085938 647.035156 712.667969 647.035156 733.046875 C 647.035156 753.421875 663.617188 770.003906 683.996094 770.003906 C 704.371094 770.003906 720.957031 753.421875 720.957031 733.046875 C 720.957031 712.667969 704.371094 696.085938 683.996094 696.085938 Z M 683.996094 696.085938 " fill-opacity="1" fill-rule="nonzero"/><g clip-path="url(#ace5b9df8b)"><path fill="#424242" d="M 683.996094 745.367188 C 680.84375 745.367188 677.6875 744.160156 675.273438 741.769531 C 670.46875 736.964844 670.46875 729.152344 675.273438 724.347656 L 868.796875 530.824219 L 868.796875 486.648438 C 868.796875 483.371094 870.101562 480.242188 872.394531 477.925781 L 921.671875 428.644531 C 925.21875 425.121094 930.519531 424.035156 935.101562 425.984375 C 939.707031 427.90625 942.714844 432.390625 942.714844 437.367188 L 942.714844 474.328125 L 979.675781 474.328125 C 984.652344 474.328125 989.160156 477.332031 991.058594 481.941406 C 992.957031 486.546875 991.894531 491.84375 988.398438 495.371094 L 939.117188 544.648438 C 936.800781 546.964844 933.671875 548.246094 930.394531 548.246094 L 886.214844 548.246094 L 692.695312 741.769531 C 690.304688 744.160156 687.148438 745.367188 683.996094 745.367188 Z M 893.433594 523.605469 L 925.292969 523.605469 L 949.933594 498.964844 L 930.394531 498.964844 C 923.59375 498.964844 918.074219 493.445312 918.074219 486.648438 L 918.074219 467.105469 L 893.433594 491.746094 Z M 893.433594 523.605469 " fill-opacity="1" fill-rule="nonzero"/></g><path fill="#424242" d="M 683.996094 893.207031 C 595.6875 893.207031 523.835938 821.355469 523.835938 733.046875 C 523.835938 644.738281 595.6875 572.886719 683.996094 572.886719 C 707.898438 572.886719 731.082031 578.183594 752.914062 588.632812 C 759.050781 591.589844 761.636719 598.929688 758.703125 605.066406 C 755.773438 611.203125 748.40625 613.789062 742.269531 610.855469 C 723.789062 602.011719 704.175781 597.527344 683.996094 597.527344 C 609.289062 597.527344 548.476562 658.3125 548.476562 733.046875 C 548.476562 807.777344 609.289062 868.566406 683.996094 868.566406 C 758.703125 868.566406 819.515625 807.777344 819.515625 733.046875 C 819.515625 712.867188 815.007812 693.253906 806.160156 674.746094 C 803.226562 668.613281 805.816406 661.269531 811.949219 658.3125 C 818.011719 655.355469 825.429688 657.917969 828.386719 664.101562 C 838.859375 685.957031 844.15625 709.144531 844.15625 733.046875 C 844.15625 821.355469 772.304688 893.207031 683.996094 893.207031 Z M 683.996094 893.207031 " fill-opacity="1" fill-rule="nonzero"/></svg>