<svg xmlns="http://www.w3.org/2000/svg" xmlns:xlink="http://www.w3.org/1999/xlink" width="1889" zoomAndPan="magnify" viewBox="0 0 1416.96 1417.499962" height="1889" preserveAspectRatio="xMidYMid meet" version="1.0"><defs><clipPath id="5d4bd0261e"><path d="M 0.230469 0 L 1416.691406 0 L 1416.691406 1417 L 0.230469 1417 Z M 0.230469 0 " clip-rule="nonzero"/></clipPath><clipPath id="210fc55b5f"><path d="M 425.277344 425.046875 L 992 425.046875 L 992 991.847656 L 425.277344 991.847656 Z M 425.277344 425.046875 " clip-rule="nonzero"/></clipPath></defs><g clip-path="url(#5d4bd0261e)"><path fill="#ffffff" d="M 0.230469 0 L 1417.230469 0 L 1417.230469 1417 L 0.230469 1417 Z M 0.230469 0 " fill-opacity="1" fill-rule="nonzero"/><path fill="#ffffff" d="M 0.230469 0 L 1417.230469 0 L 1417.230469 1417 L 0.230469 1417 Z M 0.230469 0 " fill-opacity="1" fill-rule="nonzero"/></g><path fill="#424242" d="M 708.636719 481.71875 C 813.332031 481.71875 874.703125 500.222656 878.574219 509.9375 C 877.667969 511.378906 870.132812 520.800781 825.347656 529.101562 C 793.039062 535.09375 751.589844 538.390625 708.636719 538.390625 C 665.679688 538.390625 624.230469 535.09375 591.925781 529.101562 C 547.019531 520.777344 539.546875 511.308594 538.707031 510.164062 C 542.886719 500.128906 604.191406 481.71875 708.636719 481.71875 Z M 588.484375 547.679688 C 621.890625 553.867188 664.558594 557.28125 708.636719 557.28125 C 752.710938 557.28125 795.382812 553.867188 828.785156 547.679688 C 875.054688 539.101562 897.542969 526.796875 897.542969 510.054688 C 897.542969 472.777344 778.796875 462.828125 708.636719 462.828125 C 638.472656 462.828125 519.730469 472.777344 519.730469 510.054688 C 519.730469 526.796875 542.21875 539.101562 588.484375 547.679688 " fill-opacity="1" fill-rule="nonzero"/><g clip-path="url(#210fc55b5f)"><path fill="#424242" d="M 973.105469 604.507812 C 973.105469 638.148438 966.570312 671.335938 954.214844 702.335938 L 954.214844 566.726562 L 973.105469 566.726562 Z M 708.636719 972.875 C 575.046875 972.875 481.949219 938.03125 481.949219 906.757812 L 481.949219 774.085938 C 513.394531 816.050781 555.941406 848.703125 604.738281 867.96875 L 604.738281 887.867188 C 604.738281 893.082031 608.964844 897.3125 614.183594 897.3125 L 803.089844 897.3125 C 808.304688 897.3125 812.535156 893.082031 812.535156 887.867188 L 812.535156 867.96875 C 861.328125 848.703125 903.878906 816.050781 935.324219 774.085938 L 935.324219 906.757812 C 935.324219 938.03125 842.226562 972.875 708.636719 972.875 Z M 444.167969 566.726562 L 463.058594 566.726562 L 463.058594 702.332031 C 450.703125 671.335938 444.167969 638.148438 444.167969 604.507812 Z M 708.636719 443.9375 C 842.226562 443.9375 935.324219 478.78125 935.324219 510.054688 C 935.324219 526.019531 908.957031 543.777344 866.515625 556.386719 C 823.546875 569.144531 767.480469 576.171875 708.636719 576.171875 C 640.65625 576.171875 576.453125 566.734375 532.488281 550.289062 L 532.480469 550.289062 C 500.839844 538.457031 481.949219 523.410156 481.949219 510.054688 C 481.949219 478.78125 575.046875 443.9375 708.636719 443.9375 Z M 708.636719 595.0625 C 763.953125 595.0625 816.949219 588.917969 859.761719 577.773438 L 859.761719 604.507812 C 859.761719 620.132812 847.050781 632.84375 831.425781 632.84375 C 805.386719 632.84375 784.199219 654.03125 784.199219 680.070312 L 784.199219 698.960938 C 784.199219 719.792969 767.25 736.742188 746.417969 736.742188 C 725.585938 736.742188 708.636719 719.792969 708.636719 698.960938 L 708.636719 680.070312 C 708.636719 654.03125 687.449219 632.84375 661.410156 632.84375 C 635.371094 632.84375 614.183594 654.03125 614.183594 680.070312 L 614.183594 736.742188 C 614.183594 757.574219 597.234375 774.523438 576.402344 774.523438 C 555.570312 774.523438 538.621094 757.574219 538.621094 736.742188 L 538.621094 572.265625 C 583.765625 586.773438 644.636719 595.0625 708.636719 595.0625 Z M 812.058594 847.722656 C 810.984375 843.679688 807.464844 840.640625 803.089844 840.640625 L 614.183594 840.640625 C 609.804688 840.640625 606.285156 843.679688 605.210938 847.722656 C 554.148438 825.957031 510.765625 788.417969 481.949219 740.5 L 481.949219 544.03125 C 491.214844 551.828125 503.871094 559.011719 519.730469 565.449219 L 519.730469 736.742188 C 519.730469 767.992188 545.152344 793.414062 576.402344 793.414062 C 607.652344 793.414062 633.074219 767.992188 633.074219 736.742188 L 633.074219 680.070312 C 633.074219 664.445312 645.785156 651.734375 661.410156 651.734375 C 677.035156 651.734375 689.746094 664.445312 689.746094 680.070312 L 689.746094 698.960938 C 689.746094 730.210938 715.167969 755.632812 746.417969 755.632812 C 777.667969 755.632812 803.089844 730.210938 803.089844 698.960938 L 803.089844 680.070312 C 803.089844 664.445312 815.800781 651.734375 831.425781 651.734375 C 857.464844 651.734375 878.652344 630.546875 878.652344 604.507812 L 878.652344 572.375 C 903.628906 564.378906 922.625 554.941406 935.324219 544.332031 L 935.324219 740.5 C 906.507812 788.417969 863.121094 825.957031 812.058594 847.722656 Z M 623.628906 859.53125 L 793.644531 859.53125 L 793.644531 878.421875 L 623.628906 878.421875 Z M 991.996094 557.28125 C 991.996094 552.066406 987.765625 547.835938 982.550781 547.835938 L 954.214844 547.835938 L 954.214844 510.054688 C 954.214844 454.839844 827.683594 425.046875 708.636719 425.046875 C 589.585938 425.046875 463.058594 454.839844 463.058594 510.054688 L 463.058594 547.835938 L 434.722656 547.835938 C 429.507812 547.835938 425.277344 552.066406 425.277344 557.28125 L 425.277344 604.507812 C 425.277344 654.09375 438.378906 702.824219 463.058594 745.675781 L 463.058594 906.757812 C 463.058594 961.972656 589.585938 991.765625 708.636719 991.765625 C 827.683594 991.765625 954.214844 961.972656 954.214844 906.757812 L 954.214844 745.675781 C 978.890625 702.824219 991.996094 654.09375 991.996094 604.507812 L 991.996094 557.28125 " fill-opacity="1" fill-rule="nonzero"/></g></svg>