<svg xmlns="http://www.w3.org/2000/svg" xmlns:xlink="http://www.w3.org/1999/xlink" width="1889" zoomAndPan="magnify" viewBox="0 0 1416.96 1417.499962" height="1889" preserveAspectRatio="xMidYMid meet" version="1.0"><defs><clipPath id="d9ef19aab9"><path d="M 0.230469 0 L 1416.691406 0 L 1416.691406 1417 L 0.230469 1417 Z M 0.230469 0 " clip-rule="nonzero"/></clipPath></defs><g clip-path="url(#d9ef19aab9)"><path fill="#ffffff" d="M 0.230469 0 L 1417.230469 0 L 1417.230469 1417 L 0.230469 1417 Z M 0.230469 0 " fill-opacity="1" fill-rule="nonzero"/><path fill="#ffffff" d="M 0.230469 0 L 1417.230469 0 L 1417.230469 1417 L 0.230469 1417 Z M 0.230469 0 " fill-opacity="1" fill-rule="nonzero"/></g><path fill="#424242" d="M 798.027344 563.90625 C 780.078125 563.90625 765.480469 578.507812 765.480469 596.460938 C 765.480469 614.402344 780.078125 629 798.027344 629 C 815.972656 629 830.574219 614.402344 830.574219 596.460938 C 830.574219 578.507812 815.972656 563.90625 798.027344 563.90625 Z M 798.027344 640.628906 C 773.667969 640.628906 753.855469 620.8125 753.855469 596.460938 C 753.855469 572.101562 773.667969 552.285156 798.027344 552.285156 C 822.378906 552.285156 842.199219 572.101562 842.199219 596.460938 C 842.199219 620.8125 822.378906 640.628906 798.027344 640.628906 " fill-opacity="1" fill-rule="nonzero"/><path fill="#424242" d="M 788.988281 611.308594 C 787.492188 611.308594 786.011719 610.742188 784.871094 609.609375 C 777.625 602.359375 777.625 590.554688 784.871094 583.308594 C 788.386719 579.800781 793.050781 577.863281 798.027344 577.863281 C 802.996094 577.863281 807.667969 579.800781 811.175781 583.308594 C 813.445312 585.582031 813.445312 589.253906 811.175781 591.527344 C 808.90625 593.792969 805.226562 593.792969 802.964844 591.527344 C 800.328125 588.898438 795.71875 588.898438 793.097656 591.527344 C 791.78125 592.835938 791.058594 594.589844 791.058594 596.460938 C 791.058594 598.324219 791.78125 600.074219 793.09375 601.386719 C 795.367188 603.660156 795.367188 607.339844 793.09375 609.609375 C 791.960938 610.742188 790.476562 611.308594 788.988281 611.308594 " fill-opacity="1" fill-rule="nonzero"/><path fill="#424242" d="M 768.414062 567.445312 L 763.871094 541.667969 C 763.132812 537.492188 760.816406 533.851562 757.339844 531.421875 C 750.265625 526.464844 745.878906 518.347656 745.628906 509.703125 L 740.363281 330.390625 C 740.117188 321.992188 743.519531 313.898438 749.6875 308.1875 C 753.148438 304.992188 758.066406 303.960938 762.53125 305.453125 C 766.984375 306.953125 770.265625 310.761719 771.078125 315.402344 L 813.941406 558.457031 L 802.488281 560.480469 L 759.636719 317.425781 C 759.546875 316.945312 759.273438 316.621094 758.808594 316.464844 C 758.359375 316.308594 757.9375 316.398438 757.578125 316.726562 C 753.875 320.152344 751.835938 325.007812 751.984375 330.046875 L 757.246094 509.367188 C 757.398438 514.347656 759.921875 519.039062 764.011719 521.898438 C 770.023438 526.109375 774.042969 532.417969 775.3125 539.644531 L 779.863281 565.417969 L 768.414062 567.445312 " fill-opacity="1" fill-rule="nonzero"/><path fill="#424242" d="M 581.175781 783.757812 C 578.277344 783.757812 575.375 783.328125 572.546875 782.449219 C 568.058594 781.054688 564.6875 777.320312 563.761719 772.703125 C 562.828125 768.089844 564.488281 763.34375 568.097656 760.316406 L 757.160156 601.671875 L 764.636719 610.582031 L 575.566406 769.21875 C 575.199219 769.535156 575.054688 769.933594 575.152344 770.414062 C 575.246094 770.890625 575.53125 771.207031 576 771.351562 C 580.816406 772.84375 586.039062 772.183594 590.328125 769.535156 L 742.992188 675.320312 C 747.234375 672.695312 750.027344 668.167969 750.460938 663.195312 C 751.105469 655.875 754.558594 649.25 760.183594 644.527344 L 780.230469 627.703125 L 787.699219 636.609375 L 767.652344 653.433594 C 764.40625 656.15625 762.410156 659.984375 762.042969 664.207031 C 761.289062 672.816406 756.453125 680.667969 749.09375 685.214844 L 596.433594 779.429688 C 591.800781 782.289062 586.511719 783.757812 581.175781 783.757812 " fill-opacity="1" fill-rule="nonzero"/><path fill="#424242" d="M 1059.300781 714.425781 C 1057.820312 714.425781 1056.324219 714.171875 1054.894531 713.652344 L 822.972656 629.238281 L 826.949219 618.316406 L 1058.867188 702.726562 C 1059.332031 702.890625 1059.742188 702.816406 1060.113281 702.492188 C 1060.476562 702.175781 1060.609375 701.769531 1060.5 701.296875 C 1059.382812 696.371094 1056.203125 692.183594 1051.765625 689.792969 L 893.839844 604.691406 C 889.445312 602.320312 884.125 602.164062 879.609375 604.28125 C 872.941406 607.378906 865.480469 607.707031 858.578125 605.195312 L 833.984375 596.246094 L 837.957031 585.320312 L 862.554688 594.273438 C 866.539062 595.726562 870.851562 595.53125 874.6875 593.742188 C 882.523438 590.085938 891.746094 590.355469 899.359375 594.457031 L 1057.277344 679.554688 C 1064.675781 683.542969 1069.988281 690.53125 1071.835938 698.730469 C 1072.875 703.320312 1071.324219 708.101562 1067.792969 711.21875 C 1065.40625 713.320312 1062.371094 714.425781 1059.300781 714.425781 " fill-opacity="1" fill-rule="nonzero"/><path fill="#424242" d="M 824.238281 1062.898438 L 771.824219 1062.898438 C 770.246094 1062.898438 768.738281 1062.261719 767.636719 1061.132812 C 766.542969 1060 765.960938 1058.476562 766.007812 1056.898438 L 779.714844 632.859375 L 791.328125 633.238281 L 777.820312 1051.273438 L 818.230469 1051.273438 L 804.71875 632.816406 L 816.335938 632.4375 L 830.046875 1056.898438 C 830.097656 1058.476562 829.507812 1060 828.410156 1061.132812 C 827.316406 1062.261719 825.808594 1062.898438 824.238281 1062.898438 " fill-opacity="1" fill-rule="nonzero"/><path fill="#424242" d="M 728.835938 1101.257812 L 867.214844 1101.257812 L 857.1875 1062.898438 L 738.863281 1062.898438 Z M 874.742188 1112.882812 L 721.308594 1112.882812 C 719.511719 1112.882812 717.808594 1112.046875 716.710938 1110.621094 C 715.609375 1109.195312 715.230469 1107.34375 715.6875 1105.597656 L 728.757812 1055.617188 C 729.425781 1053.058594 731.734375 1051.273438 734.375 1051.273438 L 861.671875 1051.273438 C 864.316406 1051.273438 866.628906 1053.058594 867.300781 1055.617188 L 880.367188 1105.597656 C 880.820312 1107.34375 880.445312 1109.195312 879.34375 1110.621094 C 878.246094 1112.046875 876.546875 1112.882812 874.742188 1112.882812 " fill-opacity="1" fill-rule="nonzero"/><path fill="#424242" d="M 948.359375 1112.882812 L 932.757812 1112.882812 L 932.757812 1101.257812 L 948.359375 1101.257812 L 948.359375 1112.882812 " fill-opacity="1" fill-rule="nonzero"/><path fill="#424242" d="M 914.160156 1112.882812 L 417.804688 1112.882812 L 417.804688 1101.257812 L 914.160156 1101.257812 L 914.160156 1112.882812 " fill-opacity="1" fill-rule="nonzero"/><path fill="#424242" d="M 546.292969 633.929688 C 531.417969 633.929688 519.3125 646.023438 519.3125 660.898438 C 519.3125 675.769531 531.417969 687.871094 546.292969 687.871094 C 561.160156 687.871094 573.261719 675.769531 573.261719 660.898438 C 573.261719 646.023438 561.160156 633.929688 546.292969 633.929688 Z M 546.292969 699.496094 C 525.007812 699.496094 507.695312 682.179688 507.695312 660.898438 C 507.695312 639.613281 525.007812 622.300781 546.292969 622.300781 C 567.570312 622.300781 584.882812 639.613281 584.882812 660.898438 C 584.882812 682.179688 567.570312 699.496094 546.292969 699.496094 " fill-opacity="1" fill-rule="nonzero"/><path fill="#424242" d="M 538.5625 674.4375 C 537.070312 674.4375 535.589844 673.871094 534.453125 672.738281 C 531.292969 669.578125 529.550781 665.371094 529.550781 660.898438 C 529.550781 656.425781 531.292969 652.21875 534.453125 649.0625 C 537.609375 645.902344 541.820312 644.164062 546.296875 644.164062 C 550.765625 644.164062 554.972656 645.902344 558.128906 649.0625 C 560.398438 651.335938 560.398438 655.011719 558.128906 657.28125 C 555.859375 659.550781 552.175781 659.550781 549.910156 657.28125 C 547.910156 655.285156 544.664062 655.285156 542.675781 657.28125 C 541.703125 658.242188 541.179688 659.527344 541.179688 660.898438 C 541.179688 662.273438 541.710938 663.554688 542.675781 664.515625 C 544.941406 666.789062 544.941406 670.46875 542.675781 672.738281 C 541.535156 673.871094 540.050781 674.4375 538.5625 674.4375 " fill-opacity="1" fill-rule="nonzero"/><path fill="#424242" d="M 520.152344 636.25 L 516.265625 614.222656 C 515.675781 610.875 513.820312 607.953125 511.039062 606.003906 C 504.769531 601.613281 500.890625 594.433594 500.660156 586.777344 L 496.167969 433.523438 C 495.949219 426.09375 498.953125 418.945312 504.40625 413.902344 C 507.585938 410.964844 512.117188 409.992188 516.222656 411.382812 C 520.324219 412.761719 523.339844 416.277344 524.09375 420.542969 L 560.726562 628.273438 L 549.28125 630.292969 L 512.648438 422.5625 L 512.296875 422.441406 L 512.292969 422.441406 C 509.304688 425.203125 507.664062 429.113281 507.78125 433.179688 L 512.28125 586.4375 C 512.394531 590.433594 514.421875 594.191406 517.699219 596.484375 C 523.027344 600.214844 526.585938 605.792969 527.714844 612.195312 L 531.597656 634.226562 L 520.152344 636.25 " fill-opacity="1" fill-rule="nonzero"/><path fill="#424242" d="M 360.949219 821.828125 C 358.386719 821.828125 355.820312 821.441406 353.332031 820.667969 C 349.191406 819.382812 346.09375 815.949219 345.238281 811.699219 C 344.382812 807.453125 345.914062 803.082031 349.238281 800.304688 L 510.824219 664.710938 L 518.289062 673.609375 L 356.703125 809.203125 L 356.78125 809.566406 C 360.65625 810.769531 364.875 810.246094 368.328125 808.105469 L 498.808594 727.582031 C 502.214844 725.480469 504.449219 721.851562 504.804688 717.867188 C 505.363281 711.386719 508.425781 705.519531 513.398438 701.335938 L 530.539062 686.960938 L 538.011719 695.863281 L 520.875 710.238281 C 518.277344 712.425781 516.675781 715.492188 516.382812 718.878906 C 515.714844 726.507812 511.425781 733.453125 504.910156 737.476562 L 374.441406 818 C 370.339844 820.527344 365.664062 821.824219 360.949219 821.828125 " fill-opacity="1" fill-rule="nonzero"/><path fill="#424242" d="M 665.46875 688.988281 L 627.78125 668.675781 C 624.257812 666.785156 619.992188 666.65625 616.371094 668.351562 C 610.476562 671.089844 603.867188 671.386719 597.757812 669.164062 L 576.738281 661.511719 L 580.707031 650.589844 L 601.734375 658.238281 C 604.917969 659.402344 608.375 659.246094 611.457031 657.8125 C 618.398438 654.578125 626.5625 654.816406 633.292969 658.441406 L 670.988281 678.75 L 665.46875 688.988281 " fill-opacity="1" fill-rule="nonzero"/><path fill="#424242" d="M 769.59375 762.574219 C 768.234375 762.574219 766.863281 762.335938 765.546875 761.859375 L 674.429688 728.695312 L 678.40625 717.769531 L 769.515625 750.933594 L 775.464844 749.402344 L 769.800781 750.683594 C 768.902344 746.722656 766.332031 743.339844 762.753906 741.410156 L 703.902344 709.699219 L 709.414062 699.464844 L 768.273438 731.175781 C 774.804688 734.707031 779.496094 740.882812 781.136719 748.125 C 782.089844 752.351562 780.667969 756.75 777.414062 759.613281 C 775.21875 761.550781 772.425781 762.574219 769.59375 762.574219 " fill-opacity="1" fill-rule="nonzero"/><path fill="#424242" d="M 636.007812 714.710938 L 567.320312 689.710938 L 571.300781 678.785156 L 639.984375 703.789062 L 636.007812 714.710938 " fill-opacity="1" fill-rule="nonzero"/><path fill="#424242" d="M 568.695312 1070.164062 L 523.890625 1070.164062 C 522.3125 1070.164062 520.808594 1069.519531 519.714844 1068.394531 C 518.621094 1067.261719 518.03125 1065.738281 518.078125 1064.164062 L 529.792969 691.992188 L 541.410156 692.363281 L 529.890625 1058.535156 L 562.695312 1058.535156 L 551.167969 691.996094 L 562.785156 691.632812 L 574.496094 1064.171875 C 574.550781 1065.738281 573.957031 1067.261719 572.863281 1068.398438 C 571.769531 1069.519531 570.265625 1070.164062 568.695312 1070.164062 " fill-opacity="1" fill-rule="nonzero"/><path fill="#424242" d="M 488.246094 1101.257812 L 604.332031 1101.257812 L 596.203125 1070.164062 L 496.375 1070.164062 Z M 611.859375 1112.882812 L 480.726562 1112.882812 C 478.917969 1112.882812 477.222656 1112.046875 476.121094 1110.621094 C 475.019531 1109.195312 474.640625 1107.34375 475.101562 1105.597656 L 486.269531 1062.878906 C 486.941406 1060.320312 489.246094 1058.535156 491.894531 1058.535156 L 600.691406 1058.535156 C 603.332031 1058.535156 605.644531 1060.320312 606.3125 1062.878906 L 617.484375 1105.597656 C 617.9375 1107.34375 617.5625 1109.195312 616.460938 1110.621094 C 615.359375 1112.046875 613.65625 1112.882812 611.859375 1112.882812 " fill-opacity="1" fill-rule="nonzero"/></svg>