<svg xmlns="http://www.w3.org/2000/svg" xmlns:xlink="http://www.w3.org/1999/xlink" width="1889" zoomAndPan="magnify" viewBox="0 0 1416.96 1417.499962" height="1889" preserveAspectRatio="xMidYMid meet" version="1.0"><defs><clipPath id="6477a8509b"><path d="M 0.230469 0 L 1416.691406 0 L 1416.691406 1417 L 0.230469 1417 Z M 0.230469 0 " clip-rule="nonzero"/></clipPath><clipPath id="b35bdeb0af"><path d="M 472.386719 425.046875 L 930.746094 425.046875 L 930.746094 991.769531 L 472.386719 991.769531 Z M 472.386719 425.046875 " clip-rule="nonzero"/></clipPath><clipPath id="c3b5274848"><path d="M 894.398438 861.695312 L 944.71875 861.695312 L 944.71875 912.4375 L 894.398438 912.4375 Z M 894.398438 861.695312 " clip-rule="nonzero"/></clipPath></defs><g clip-path="url(#6477a8509b)"><path fill="#ffffff" d="M 0.230469 0 L 1417.230469 0 L 1417.230469 1417 L 0.230469 1417 Z M 0.230469 0 " fill-opacity="1" fill-rule="nonzero"/><path fill="#ffffff" d="M 0.230469 0 L 1417.230469 0 L 1417.230469 1417 L 0.230469 1417 Z M 0.230469 0 " fill-opacity="1" fill-rule="nonzero"/></g><g clip-path="url(#b35bdeb0af)"><path fill="#424242" d="M 908.769531 969.972656 L 833.496094 969.972656 L 833.496094 943.324219 L 908.769531 943.324219 Z M 495.433594 969.972656 C 500.382812 948.792969 519.417969 932.976562 542.082031 932.976562 L 648.472656 932.976562 C 671.128906 932.976562 690.167969 948.792969 695.113281 969.972656 Z M 652.671875 585.550781 C 670.226562 604.765625 695.394531 616.910156 723.410156 616.910156 C 724.449219 616.910156 725.457031 616.789062 726.492188 616.753906 L 736.363281 628.113281 L 649.914062 911.253906 C 649.429688 911.242188 648.957031 911.179688 648.472656 911.179688 L 553.242188 911.179688 Z M 723.410156 446.84375 C 764.289062 446.84375 797.542969 480.097656 797.542969 520.980469 C 797.542969 561.855469 764.289062 595.113281 723.410156 595.113281 C 682.53125 595.113281 649.273438 561.855469 649.273438 520.980469 C 649.273438 480.097656 682.53125 446.84375 723.410156 446.84375 Z M 863.59375 683.164062 C 849.957031 685.105469 838.070312 692.125 829.738281 702.316406 L 751.777344 612.621094 C 774.355469 605.617188 793.300781 590.425781 805.351562 570.601562 Z M 903.03125 736.089844 C 903.03125 753.683594 888.722656 767.988281 871.128906 767.988281 C 853.542969 767.988281 839.234375 753.683594 839.234375 736.089844 C 839.234375 718.503906 853.542969 704.199219 871.128906 704.199219 C 888.722656 704.199219 903.03125 718.503906 903.03125 736.089844 Z M 919.667969 921.527344 L 822.597656 921.527344 C 816.578125 921.527344 811.695312 926.398438 811.695312 932.425781 L 811.695312 969.972656 L 717.222656 969.972656 C 713.1875 944.457031 695.3125 923.546875 671.507812 915.175781 L 753.234375 647.523438 L 819.128906 723.347656 C 818.121094 727.453125 817.433594 731.675781 817.433594 736.089844 C 817.433594 761.96875 835.832031 783.613281 860.230469 788.664062 L 860.230469 818.90625 C 860.230469 824.929688 865.109375 829.804688 871.128906 829.804688 C 877.148438 829.804688 882.027344 824.929688 882.027344 818.90625 L 882.027344 788.664062 C 906.429688 783.613281 924.832031 761.96875 924.832031 736.089844 C 924.832031 712.976562 910.0625 693.402344 889.527344 685.855469 L 816.328125 544.386719 C 818.226562 536.878906 819.339844 529.066406 819.339844 520.980469 C 819.339844 468.082031 776.304688 425.046875 723.410156 425.046875 C 670.511719 425.046875 627.476562 468.082031 627.476562 520.980469 C 627.476562 535.792969 630.949219 549.773438 636.972656 562.3125 L 530.113281 912.285156 C 497.375 917.984375 472.386719 946.53125 472.386719 980.875 C 472.386719 986.894531 477.265625 991.769531 483.285156 991.769531 L 919.667969 991.769531 C 925.683594 991.769531 930.566406 986.894531 930.566406 980.875 L 930.566406 932.425781 C 930.566406 926.398438 925.683594 921.527344 919.667969 921.527344 " fill-opacity="1" fill-rule="nonzero"/></g><g clip-path="url(#c3b5274848)"><path fill="#424242" d="M 941.695312 865.035156 C 937.4375 860.773438 930.539062 860.773438 926.28125 865.035156 L 897.640625 893.671875 C 893.386719 897.929688 893.386719 904.828125 897.640625 909.085938 C 899.769531 911.214844 902.558594 912.277344 905.347656 912.277344 C 908.136719 912.277344 910.921875 911.214844 913.054688 909.085938 L 941.695312 880.445312 C 945.949219 876.1875 945.949219 869.289062 941.695312 865.035156 " fill-opacity="1" fill-rule="nonzero"/></g><path fill="#424242" d="M 800.570312 865.035156 C 796.316406 869.289062 796.316406 876.1875 800.570312 880.445312 L 829.210938 909.085938 C 831.339844 911.214844 834.128906 912.277344 836.917969 912.277344 C 839.707031 912.277344 842.496094 911.214844 844.621094 909.085938 C 848.878906 904.828125 848.878906 897.929688 844.621094 893.671875 L 815.984375 865.035156 C 811.726562 860.773438 804.828125 860.773438 800.570312 865.035156 " fill-opacity="1" fill-rule="nonzero"/></svg>