<svg xmlns="http://www.w3.org/2000/svg" xmlns:xlink="http://www.w3.org/1999/xlink" width="1889" zoomAndPan="magnify" viewBox="0 0 1416.96 1417.499962" height="1889" preserveAspectRatio="xMidYMid meet" version="1.0"><defs><clipPath id="1d24de7615"><path d="M 0.230469 0 L 1416.691406 0 L 1416.691406 1417 L 0.230469 1417 Z M 0.230469 0 " clip-rule="nonzero"/></clipPath><clipPath id="2b1fe59d1b"><path d="M 425.277344 654 L 782 654 L 782 860 L 425.277344 860 Z M 425.277344 654 " clip-rule="nonzero"/></clipPath><clipPath id="de3d6ba570"><path d="M 467.464844 810.730469 L 568.277344 810.730469 L 568.277344 911.058594 L 467.464844 911.058594 Z M 467.464844 810.730469 " clip-rule="nonzero"/></clipPath><clipPath id="3c2f434437"><path d="M 656.617188 810.730469 L 757.25 810.730469 L 757.25 911.058594 L 656.617188 911.058594 Z M 656.617188 810.730469 " clip-rule="nonzero"/></clipPath><clipPath id="0519fa9e26"><path d="M 800.710938 505.453125 L 991.664062 505.453125 L 991.664062 859.53125 L 800.710938 859.53125 Z M 800.710938 505.453125 " clip-rule="nonzero"/></clipPath><clipPath id="1bd543109d"><path d="M 425.277344 764 L 468 764 L 468 810 L 425.277344 810 Z M 425.277344 764 " clip-rule="nonzero"/></clipPath></defs><g clip-path="url(#1d24de7615)"><path fill="#ffffff" d="M 0.230469 0 L 1417.230469 0 L 1417.230469 1417 L 0.230469 1417 Z M 0.230469 0 " fill-opacity="1" fill-rule="nonzero"/><path fill="#ffffff" d="M 0.230469 0 L 1417.230469 0 L 1417.230469 1417 L 0.230469 1417 Z M 0.230469 0 " fill-opacity="1" fill-rule="nonzero"/></g><g clip-path="url(#2b1fe59d1b)"><path fill="#424242" d="M 473.027344 859.410156 L 430.578125 859.410156 C 427.839844 859.410156 425.609375 857.203125 425.609375 854.449219 L 425.613281 659.953125 C 425.613281 657.210938 427.835938 654.988281 430.574219 654.988281 L 566.472656 654.988281 C 569.214844 654.988281 571.4375 657.210938 571.4375 659.953125 C 571.441406 662.691406 569.210938 664.917969 566.472656 664.917969 L 435.542969 664.917969 L 435.542969 849.480469 L 473.027344 849.480469 C 475.765625 849.480469 477.992188 851.707031 477.992188 854.449219 C 477.996094 857.199219 475.765625 859.414062 473.027344 859.410156 Z M 662.09375 859.410156 C 664.832031 859.414062 667.058594 857.199219 667.054688 854.449219 C 667.054688 851.707031 664.835938 849.480469 662.09375 849.480469 L 562.65625 849.484375 C 559.914062 849.484375 557.691406 851.707031 557.691406 854.449219 C 557.691406 857.203125 559.921875 859.410156 562.660156 859.410156 Z M 776.679688 859.410156 L 751.734375 859.410156 C 748.996094 859.410156 746.769531 857.203125 746.769531 854.449219 C 746.773438 851.707031 748.992188 849.484375 751.734375 849.484375 L 771.714844 849.480469 L 771.714844 728.949219 L 762.238281 728.949219 C 759.496094 728.949219 757.265625 726.722656 757.265625 723.984375 C 757.269531 721.242188 759.492188 719.019531 762.234375 719.019531 L 776.679688 719.015625 C 779.417969 719.015625 781.640625 721.242188 781.640625 723.984375 L 781.644531 854.449219 C 781.644531 857.199219 779.417969 859.414062 776.679688 859.410156 " fill-opacity="1" fill-rule="evenodd"/></g><path fill="#424242" d="M 762.238281 728.945312 L 566.472656 728.945312 C 563.734375 728.945312 561.507812 726.722656 561.507812 723.984375 L 561.511719 659.953125 C 561.511719 657.210938 563.730469 654.984375 566.472656 654.984375 C 569.214844 654.984375 571.4375 657.210938 571.4375 659.953125 L 571.441406 719.015625 L 755.679688 719.015625 L 703.09375 533.238281 C 700.148438 522.816406 695.257812 517.527344 688.546875 517.527344 L 494.039062 517.527344 C 486.125 517.527344 479.671875 523.96875 479.671875 531.890625 L 479.671875 659.953125 C 479.671875 662.691406 477.449219 664.917969 474.707031 664.917969 C 471.96875 664.917969 469.742188 662.691406 469.742188 659.953125 L 469.746094 531.890625 C 469.746094 518.496094 480.640625 507.597656 494.035156 507.597656 L 688.546875 507.597656 C 699.917969 507.597656 708.472656 515.742188 712.648438 530.535156 L 767.019531 722.625 C 767.449219 724.125 767.136719 725.726562 766.203125 726.96875 C 765.265625 728.210938 763.800781 728.949219 762.238281 728.945312 " fill-opacity="1" fill-rule="evenodd"/><path fill="#424242" d="M 712.199219 728.949219 C 711.871094 728.949219 711.558594 728.910156 711.238281 728.859375 C 708.550781 728.339844 706.789062 725.726562 707.304688 723.039062 C 709.621094 711.050781 713.914062 700.230469 720.066406 690.867188 C 726.460938 681.15625 734.769531 673.050781 744.765625 666.804688 C 747.09375 665.347656 750.144531 666.058594 751.605469 668.382812 C 753.054688 670.710938 752.355469 673.773438 750.027344 675.222656 C 741.25 680.71875 733.96875 687.816406 728.367188 696.328125 C 722.925781 704.601562 719.125 714.222656 717.054688 724.925781 C 716.609375 727.292969 714.519531 728.949219 712.199219 728.949219 " fill-opacity="1" fill-rule="evenodd"/><path fill="#424242" d="M 724.21875 698.5625 C 723.097656 698.5625 721.96875 698.1875 721.039062 697.410156 L 686.515625 668.589844 C 684.410156 666.832031 684.125 663.703125 685.882812 661.59375 C 687.644531 659.5 690.769531 659.214844 692.875 660.972656 L 727.402344 689.78125 C 729.507812 691.539062 729.792969 694.671875 728.035156 696.777344 C 727.054688 697.953125 725.640625 698.5625 724.21875 698.5625 " fill-opacity="1" fill-rule="evenodd"/><path fill="#424242" d="M 680.027344 681.828125 C 678.941406 681.828125 677.851562 681.46875 676.933594 680.746094 C 674.792969 679.023438 674.4375 675.910156 676.15625 673.761719 L 695.492188 649.59375 C 697.195312 647.460938 700.324219 647.113281 702.457031 648.820312 C 704.605469 650.539062 704.953125 653.65625 703.234375 655.800781 L 683.910156 679.96875 C 682.9375 681.183594 681.484375 681.828125 680.027344 681.828125 " fill-opacity="1" fill-rule="evenodd"/><path fill="#424242" d="M 664.160156 728.945312 C 661.421875 728.945312 659.195312 726.722656 659.195312 723.984375 L 659.199219 711.296875 C 659.199219 707.03125 655.742188 703.578125 651.476562 703.578125 L 605.007812 703.578125 C 600.75 703.578125 597.285156 707.03125 597.285156 711.296875 L 597.289062 723.984375 C 597.289062 726.722656 595.0625 728.949219 592.320312 728.949219 C 589.578125 728.945312 587.355469 726.722656 587.355469 723.984375 L 587.355469 711.296875 C 587.355469 701.558594 595.28125 693.648438 605.003906 693.648438 L 651.476562 693.648438 C 661.210938 693.648438 669.125 701.5625 669.125 711.296875 L 669.125 723.984375 C 669.125 726.722656 666.910156 728.949219 664.160156 728.945312 " fill-opacity="1" fill-rule="evenodd"/><path fill="#424242" d="M 592.398438 715.875 C 589.660156 715.875 587.433594 713.652344 587.433594 710.910156 L 587.433594 646.878906 C 587.433594 644.140625 589.65625 641.914062 592.398438 641.914062 C 595.140625 641.914062 597.363281 644.140625 597.363281 646.882812 L 597.363281 710.910156 C 597.363281 713.652344 595.136719 715.875 592.398438 715.875 " fill-opacity="1" fill-rule="evenodd"/><g clip-path="url(#de3d6ba570)"><path fill="#424242" d="M 517.84375 820.765625 C 495.601562 820.765625 477.5 838.855469 477.5 861.09375 C 477.5 883.34375 495.601562 901.433594 517.84375 901.433594 C 540.085938 901.433594 558.183594 883.347656 558.183594 861.09375 C 558.1875 838.855469 540.082031 820.765625 517.84375 820.765625 Z M 517.84375 911.363281 C 490.121094 911.363281 467.570312 888.816406 467.570312 861.09375 C 467.570312 833.382812 490.121094 810.835938 517.84375 810.835938 C 545.566406 810.832031 568.113281 833.382812 568.113281 861.09375 C 568.113281 888.816406 545.5625 911.367188 517.84375 911.363281 " fill-opacity="1" fill-rule="evenodd"/></g><g clip-path="url(#3c2f434437)"><path fill="#424242" d="M 706.910156 820.765625 C 684.671875 820.765625 666.578125 838.855469 666.578125 861.09375 C 666.582031 883.34375 684.664062 901.433594 706.90625 901.433594 C 729.160156 901.433594 747.246094 883.347656 747.246094 861.09375 C 747.25 838.855469 729.15625 820.765625 706.910156 820.765625 Z M 706.910156 911.363281 C 679.199219 911.363281 656.644531 888.816406 656.644531 861.09375 C 656.648438 833.382812 679.195312 810.835938 706.90625 810.835938 C 734.628906 810.832031 757.179688 833.382812 757.179688 861.09375 C 757.179688 888.816406 734.628906 911.367188 706.910156 911.363281 " fill-opacity="1" fill-rule="evenodd"/></g><path fill="#424242" d="M 517.84375 848.640625 C 510.976562 848.640625 505.390625 854.226562 505.390625 861.09375 C 505.390625 867.972656 510.976562 873.558594 517.84375 873.558594 C 524.707031 873.558594 530.292969 867.972656 530.292969 861.09375 C 530.292969 854.226562 524.707031 848.640625 517.84375 848.640625 Z M 517.84375 883.488281 C 505.507812 883.488281 495.460938 873.441406 495.460938 861.09375 C 495.464844 848.757812 505.507812 838.710938 517.84375 838.710938 C 530.195312 838.710938 540.222656 848.757812 540.222656 861.09375 C 540.226562 873.441406 530.1875 883.488281 517.84375 883.488281 " fill-opacity="1" fill-rule="evenodd"/><path fill="#424242" d="M 706.910156 848.640625 C 700.042969 848.640625 694.453125 854.226562 694.453125 861.09375 C 694.457031 867.972656 700.039062 873.558594 706.90625 873.558594 C 713.773438 873.558594 719.367188 867.972656 719.367188 861.09375 C 719.371094 854.226562 713.769531 848.640625 706.910156 848.640625 Z M 706.910156 883.488281 C 694.574219 883.488281 684.523438 873.441406 684.523438 861.09375 C 684.523438 848.757812 694.570312 838.710938 706.90625 838.710938 C 719.257812 838.710938 729.300781 848.757812 729.300781 861.09375 C 729.304688 873.441406 719.253906 883.488281 706.910156 883.488281 " fill-opacity="1" fill-rule="evenodd"/><g clip-path="url(#0519fa9e26)"><path fill="#424242" d="M 986.699219 859.410156 L 805.824219 859.410156 C 803.085938 859.410156 800.855469 857.203125 800.855469 854.449219 L 800.855469 510.414062 C 800.855469 507.675781 803.078125 505.453125 805.820312 505.453125 C 808.566406 505.453125 810.785156 507.675781 810.785156 510.417969 L 810.789062 849.480469 L 986.699219 849.480469 C 989.445312 849.480469 991.664062 851.707031 991.664062 854.449219 C 991.671875 857.199219 989.441406 859.414062 986.699219 859.410156 " fill-opacity="1" fill-rule="evenodd"/></g><path fill="#424242" d="M 805.824219 773.078125 L 776.679688 773.078125 C 773.9375 773.078125 771.710938 770.855469 771.710938 768.113281 C 771.71875 765.371094 773.9375 763.148438 776.675781 763.148438 L 805.824219 763.148438 C 808.5625 763.148438 810.785156 765.371094 810.785156 768.113281 C 810.789062 770.851562 808.5625 773.078125 805.824219 773.078125 Z M 805.824219 828.691406 L 776.679688 828.691406 C 773.9375 828.691406 771.710938 826.464844 771.710938 823.726562 C 771.71875 820.984375 773.9375 818.761719 776.675781 818.761719 L 805.824219 818.757812 C 808.5625 818.757812 810.785156 820.984375 810.785156 823.726562 C 810.789062 826.464844 808.5625 828.691406 805.824219 828.691406 " fill-opacity="1" fill-rule="evenodd"/><path fill="#424242" d="M 959.742188 858.132812 C 957.003906 858.132812 954.773438 855.910156 954.773438 853.167969 L 954.78125 731.222656 L 837.8125 731.222656 L 837.8125 853.167969 C 837.8125 855.910156 835.585938 858.132812 832.847656 858.132812 C 830.09375 858.132812 827.878906 855.910156 827.878906 853.167969 L 827.882812 726.257812 C 827.882812 723.515625 830.089844 721.292969 832.847656 721.292969 L 959.742188 721.292969 C 962.484375 721.292969 964.707031 723.515625 964.707031 726.257812 L 964.707031 853.167969 C 964.707031 855.910156 962.480469 858.132812 959.742188 858.132812 " fill-opacity="1" fill-rule="evenodd"/><path fill="#424242" d="M 873.910156 773.515625 C 873.191406 773.515625 872.449219 773.363281 871.765625 773.039062 C 870.046875 772.210938 868.957031 770.464844 868.957031 768.550781 L 868.960938 726.257812 C 868.960938 723.515625 871.167969 721.292969 873.921875 721.292969 C 876.664062 721.292969 878.890625 723.515625 878.890625 726.257812 L 878.890625 758.222656 L 892.699219 747.179688 C 894.449219 745.769531 896.925781 745.71875 898.738281 747.050781 L 914.695312 758.765625 L 914.695312 726.257812 C 914.695312 723.515625 916.917969 721.292969 919.660156 721.292969 C 922.398438 721.292969 924.621094 723.515625 924.621094 726.257812 L 924.628906 768.550781 C 924.628906 770.425781 923.574219 772.148438 921.90625 772.988281 C 920.242188 773.828125 918.234375 773.671875 916.722656 772.5625 L 895.933594 757.300781 L 877.011719 772.429688 C 876.125 773.15625 875.023438 773.519531 873.910156 773.515625 " fill-opacity="1" fill-rule="evenodd"/><path fill="#424242" d="M 860.4375 833.605469 L 886.988281 833.605469 L 886.988281 820.195312 L 860.4375 820.195312 Z M 891.949219 843.535156 L 855.472656 843.535156 C 852.734375 843.535156 850.507812 841.324219 850.507812 838.570312 L 850.511719 815.230469 C 850.511719 812.488281 852.730469 810.265625 855.472656 810.265625 L 891.949219 810.265625 C 894.691406 810.265625 896.910156 812.488281 896.910156 815.230469 L 896.914062 838.570312 C 896.914062 841.320312 894.691406 843.535156 891.949219 843.535156 " fill-opacity="1" fill-rule="evenodd"/><path fill="#424242" d="M 837.851562 698.019531 L 954.832031 698.019531 L 954.832031 581.039062 L 837.851562 581.039062 Z M 959.796875 707.949219 L 832.886719 707.949219 C 830.148438 707.949219 827.921875 705.726562 827.921875 702.984375 L 827.925781 576.074219 C 827.925781 573.332031 830.144531 571.109375 832.886719 571.109375 L 959.796875 571.109375 C 962.535156 571.109375 964.757812 573.332031 964.757812 576.074219 L 964.757812 702.984375 C 964.757812 705.726562 962.535156 707.949219 959.796875 707.949219 " fill-opacity="1" fill-rule="evenodd"/><path fill="#424242" d="M 873.964844 623.347656 C 873.226562 623.347656 872.488281 623.179688 871.816406 622.855469 C 870.085938 622.027344 868.996094 620.285156 868.996094 618.382812 L 869 576.074219 C 869 573.332031 871.222656 571.109375 873.960938 571.109375 C 876.703125 571.109375 878.925781 573.335938 878.925781 576.074219 L 878.925781 608.050781 L 892.742188 596.996094 C 894.5 595.601562 896.964844 595.546875 898.773438 596.867188 L 914.738281 608.582031 L 914.738281 576.074219 C 914.738281 573.332031 916.953125 571.109375 919.695312 571.109375 C 922.441406 571.109375 924.664062 573.335938 924.664062 576.074219 L 924.664062 618.382812 C 924.664062 620.242188 923.613281 621.964844 921.945312 622.804688 C 920.28125 623.660156 918.273438 623.488281 916.761719 622.378906 L 895.972656 607.132812 L 877.066406 622.261719 C 876.164062 622.972656 875.058594 623.347656 873.964844 623.347656 " fill-opacity="1" fill-rule="evenodd"/><path fill="#424242" d="M 860.488281 683.433594 L 887.023438 683.433594 L 887.023438 670.023438 L 860.488281 670.023438 Z M 891.992188 693.363281 L 855.527344 693.363281 C 852.773438 693.363281 850.5625 691.140625 850.5625 688.398438 L 850.5625 665.058594 C 850.5625 662.320312 852.769531 660.09375 855.527344 660.09375 L 891.992188 660.09375 C 894.730469 660.09375 896.953125 662.320312 896.953125 665.0625 L 896.953125 688.398438 C 896.953125 691.140625 894.726562 693.363281 891.992188 693.363281 " fill-opacity="1" fill-rule="evenodd"/><path fill="#424242" d="M 506.167969 695.9375 L 453.65625 695.9375 C 450.90625 695.9375 448.679688 693.714844 448.679688 690.960938 C 448.683594 688.203125 450.902344 685.980469 453.65625 685.980469 L 506.167969 685.980469 C 508.921875 685.980469 511.144531 688.203125 511.144531 690.960938 C 511.144531 693.714844 508.921875 695.9375 506.167969 695.9375 " fill-opacity="1" fill-rule="evenodd"/><path fill="#424242" d="M 506.167969 714.890625 L 453.65625 714.890625 C 450.90625 714.890625 448.679688 712.667969 448.679688 709.914062 C 448.683594 707.171875 450.902344 704.9375 453.65625 704.9375 L 506.167969 704.9375 C 508.921875 704.9375 511.144531 707.171875 511.144531 709.914062 C 511.144531 712.667969 508.921875 714.890625 506.167969 714.890625 " fill-opacity="1" fill-rule="evenodd"/><path fill="#424242" d="M 506.167969 733.859375 L 453.65625 733.859375 C 450.90625 733.859375 448.679688 731.636719 448.679688 728.882812 C 448.683594 726.128906 450.902344 723.90625 453.65625 723.90625 L 506.167969 723.90625 C 508.921875 723.90625 511.144531 726.128906 511.144531 728.882812 C 511.144531 731.636719 508.921875 733.863281 506.167969 733.859375 " fill-opacity="1" fill-rule="evenodd"/><g clip-path="url(#1bd543109d)"><path fill="#424242" d="M 462.234375 809.65625 L 430.582031 809.65625 C 427.839844 809.65625 425.609375 807.433594 425.609375 804.691406 C 425.613281 801.949219 427.835938 799.726562 430.574219 799.726562 L 457.265625 799.726562 L 457.265625 774.734375 L 430.582031 774.734375 C 427.839844 774.734375 425.609375 772.507812 425.609375 769.769531 C 425.613281 767.027344 427.835938 764.804688 430.574219 764.804688 L 462.234375 764.800781 C 464.972656 764.800781 467.195312 767.027344 467.195312 769.769531 L 467.199219 804.691406 C 467.199219 807.433594 464.96875 809.65625 462.234375 809.65625 " fill-opacity="1" fill-rule="evenodd"/></g></svg>