<svg xmlns="http://www.w3.org/2000/svg" xmlns:xlink="http://www.w3.org/1999/xlink" width="1889" zoomAndPan="magnify" viewBox="0 0 1416.96 1417.499962" height="1889" preserveAspectRatio="xMidYMid meet" version="1.0"><defs><clipPath id="8e80d83ec0"><path d="M 0.230469 0 L 1416.691406 0 L 1416.691406 1417 L 0.230469 1417 Z M 0.230469 0 " clip-rule="nonzero"/></clipPath><clipPath id="cd63b239e9"><path d="M 425.277344 460 L 991 460 L 991 956 L 425.277344 956 Z M 425.277344 460 " clip-rule="nonzero"/></clipPath></defs><g clip-path="url(#8e80d83ec0)"><path fill="#ffffff" d="M 0.230469 0 L 1417.230469 0 L 1417.230469 1417 L 0.230469 1417 Z M 0.230469 0 " fill-opacity="1" fill-rule="nonzero"/><path fill="#ffffff" d="M 0.230469 0 L 1417.230469 0 L 1417.230469 1417 L 0.230469 1417 Z M 0.230469 0 " fill-opacity="1" fill-rule="nonzero"/></g><g clip-path="url(#cd63b239e9)"><path fill="#424242" d="M 793.558594 460.992188 C 783.046875 460.863281 772.996094 462.800781 763.75 466.953125 C 745.257812 475.257812 731.003906 492.097656 722.511719 515.074219 C 717.152344 529.550781 718.175781 545.78125 718.597656 561.261719 C 718.90625 572.628906 718.851562 583.550781 717.765625 591.429688 L 562.625 534.105469 C 561.164062 533.5625 559.65625 533.320312 558.101562 533.386719 C 557.039062 533.4375 556 533.632812 554.992188 533.96875 C 553.980469 534.308594 553.039062 534.777344 552.15625 535.375 C 551.277344 535.976562 550.496094 536.683594 549.8125 537.5 C 549.128906 538.316406 548.570312 539.210938 548.136719 540.179688 L 480.125 691.925781 C 480.101562 691.972656 480.078125 692.015625 480.058594 692.0625 L 480.058594 692.082031 C 479.90625 692.421875 479.769531 692.765625 479.652344 693.117188 C 479.578125 693.355469 479.511719 693.597656 479.449219 693.839844 C 479.410156 693.972656 479.371094 694.109375 479.339844 694.242188 C 479.339844 694.25 479.339844 694.257812 479.339844 694.265625 C 479.253906 694.628906 479.183594 694.996094 479.136719 695.367188 C 479.136719 695.375 479.136719 695.382812 479.136719 695.390625 C 479.085938 695.773438 479.054688 696.15625 479.046875 696.539062 C 479.046875 696.546875 479.046875 696.554688 479.046875 696.5625 C 479.035156 697.066406 479.058594 697.566406 479.113281 698.066406 L 484.601562 747.832031 C 484.71875 748.894531 484.976562 749.925781 485.378906 750.917969 C 485.78125 751.910156 486.308594 752.828125 486.964844 753.671875 C 487.625 754.515625 488.386719 755.253906 489.25 755.886719 C 490.113281 756.519531 491.046875 757.023438 492.050781 757.394531 L 891.242188 904.910156 C 892.246094 905.28125 893.28125 905.507812 894.347656 905.589844 C 895.417969 905.671875 896.476562 905.605469 897.523438 905.394531 C 898.574219 905.179688 899.574219 904.828125 900.523438 904.339844 C 901.476562 903.847656 902.339844 903.234375 903.121094 902.5 L 939.589844 868.285156 C 939.613281 868.269531 939.632812 868.253906 939.65625 868.238281 C 939.917969 867.996094 940.164062 867.738281 940.398438 867.472656 C 940.414062 867.449219 940.429688 867.429688 940.445312 867.40625 C 940.683594 867.140625 940.90625 866.863281 941.121094 866.574219 C 941.132812 866.550781 941.148438 866.527344 941.164062 866.507812 C 941.542969 865.964844 941.875 865.394531 942.152344 864.796875 C 942.191406 864.722656 942.230469 864.648438 942.265625 864.570312 C 942.273438 864.546875 942.28125 864.527344 942.289062 864.503906 C 942.304688 864.457031 942.320312 864.414062 942.335938 864.367188 C 942.507812 863.980469 942.65625 863.582031 942.785156 863.175781 C 942.792969 863.152344 942.800781 863.132812 942.804688 863.109375 L 989.871094 703.445312 C 990.074219 702.75 990.214844 702.042969 990.285156 701.324219 C 990.355469 700.605469 990.359375 699.886719 990.296875 699.164062 C 990.234375 698.445312 990.101562 697.734375 989.90625 697.039062 C 989.707031 696.34375 989.445312 695.671875 989.121094 695.027344 C 988.796875 694.378906 988.417969 693.769531 987.976562 693.195312 C 987.539062 692.617188 987.050781 692.089844 986.511719 691.605469 C 985.972656 691.125 985.394531 690.695312 984.777344 690.320312 C 984.15625 689.949219 983.507812 689.636719 982.828125 689.382812 L 827.710938 632.039062 C 832.011719 625.347656 839.074219 617.046875 846.699219 608.617188 C 857.085938 597.132812 868.40625 585.457031 873.761719 570.980469 C 882.253906 548.003906 882.363281 525.9375 873.71875 507.605469 C 865.070312 489.269531 848.183594 475.566406 826.089844 467.402344 C 815.042969 463.316406 804.070312 461.117188 793.558594 460.992188 Z M 793.445312 483.960938 C 800.925781 484.066406 809.140625 485.683594 818.101562 489 C 836.027344 495.625 847.25 505.46875 852.882812 517.414062 C 858.519531 529.359375 859.070312 544.308594 852.164062 562.992188 C 849.445312 570.34375 839.980469 581.683594 829.601562 593.164062 C 819.21875 604.640625 807.925781 616.238281 802.601562 630.644531 L 774.820312 705.785156 C 774.710938 705.871094 774.398438 706.136719 773.625 706.527344 C 772.023438 707.332031 768.972656 708.25 765.191406 708.664062 C 757.625 709.496094 747.242188 708.414062 738.238281 705.085938 C 729.234375 701.761719 720.632812 695.839844 715.425781 690.285156 C 712.824219 687.507812 711.105469 684.832031 710.410156 683.175781 C 710.066406 682.359375 710 681.914062 709.980469 681.78125 L 737.765625 606.660156 C 743.085938 592.253906 742.03125 576.101562 741.613281 560.632812 C 741.191406 545.164062 741.394531 530.398438 744.109375 523.0625 C 751.015625 504.375 761.152344 493.378906 773.199219 487.964844 C 779.222656 485.257812 785.964844 483.855469 793.445312 483.960938 Z M 564.738281 559.4375 L 710.722656 613.386719 L 688.203125 674.3125 C 688.203125 674.320312 688.203125 674.324219 688.203125 674.332031 C 685.878906 680.636719 687.011719 686.90625 689.171875 692.0625 C 691.332031 697.214844 694.617188 701.761719 698.621094 706.03125 C 706.625 714.574219 717.644531 722.050781 730.25 726.707031 C 742.855469 731.363281 756.074219 732.847656 767.710938 731.566406 C 773.527344 730.925781 778.980469 729.621094 783.976562 727.113281 C 788.960938 724.605469 793.90625 720.554688 796.234375 714.265625 L 796.257812 714.242188 L 818.777344 653.320312 L 964.742188 707.246094 L 924.199219 844.773438 L 506.109375 690.261719 Z M 709.9375 681.960938 C 709.925781 682.015625 709.933594 682 709.824219 682.296875 L 709.800781 682.296875 Z M 504.0625 714.0625 L 707.167969 789.136719 L 910.296875 864.1875 L 892.546875 880.835938 L 506.71875 738.25 Z M 425.277344 794.222656 L 425.277344 817.257812 L 448.3125 817.257812 L 448.3125 794.222656 Z M 471.351562 794.222656 L 471.351562 817.257812 L 494.390625 817.257812 L 494.390625 794.222656 Z M 517.425781 794.222656 L 517.425781 817.257812 L 540.464844 817.257812 L 540.464844 794.222656 Z M 425.277344 840.296875 L 425.277344 863.332031 L 448.3125 863.332031 L 448.3125 840.296875 Z M 425.277344 886.371094 L 425.277344 909.410156 L 448.3125 909.410156 L 448.3125 886.371094 Z M 425.277344 932.445312 L 425.277344 955.484375 L 448.3125 955.484375 L 448.3125 932.445312 Z M 471.351562 932.445312 L 471.351562 955.484375 L 494.390625 955.484375 L 494.390625 932.445312 Z M 517.425781 932.445312 L 517.425781 955.484375 L 540.464844 955.484375 L 540.464844 932.445312 Z M 563.5 932.445312 L 563.5 955.484375 L 586.539062 955.484375 L 586.539062 932.445312 Z M 609.574219 932.445312 L 609.574219 955.484375 L 632.613281 955.484375 L 632.613281 932.445312 Z M 655.648438 932.445312 L 655.648438 955.484375 L 678.6875 955.484375 L 678.6875 932.445312 Z M 701.722656 932.445312 L 701.722656 955.484375 L 724.761719 955.484375 L 724.761719 932.445312 Z M 747.800781 932.445312 L 747.800781 955.484375 L 770.835938 955.484375 L 770.835938 932.445312 Z M 793.875 932.445312 L 793.875 955.484375 L 816.910156 955.484375 L 816.910156 932.445312 Z M 839.949219 932.445312 L 839.949219 955.484375 L 862.984375 955.484375 L 862.984375 932.445312 Z M 839.949219 932.445312 " fill-opacity="1" fill-rule="nonzero"/></g></svg>