<svg xmlns="http://www.w3.org/2000/svg" xmlns:xlink="http://www.w3.org/1999/xlink" width="1889" zoomAndPan="magnify" viewBox="0 0 1416.96 1417.499962" height="1889" preserveAspectRatio="xMidYMid meet" version="1.0"><defs><clipPath id="1166f3f517"><path d="M 0.230469 0 L 1416.691406 0 L 1416.691406 1417 L 0.230469 1417 Z M 0.230469 0 " clip-rule="nonzero"/></clipPath><clipPath id="76f9aace3e"><path d="M 425.277344 882 L 559 882 L 559 971.21875 L 425.277344 971.21875 Z M 425.277344 882 " clip-rule="nonzero"/></clipPath><clipPath id="faf0c9b66a"><path d="M 536 882 L 726 882 L 726 971.21875 L 536 971.21875 Z M 536 882 " clip-rule="nonzero"/></clipPath><clipPath id="97db1f2e60"><path d="M 703 882 L 870 882 L 870 971.21875 L 703 971.21875 Z M 703 882 " clip-rule="nonzero"/></clipPath><clipPath id="7cbfcd5bcc"><path d="M 847 882 L 992 882 L 992 971.21875 L 847 971.21875 Z M 847 882 " clip-rule="nonzero"/></clipPath><clipPath id="4370244177"><path d="M 425.277344 815 L 537 815 L 537 905 L 425.277344 905 Z M 425.277344 815 " clip-rule="nonzero"/></clipPath><clipPath id="66672c87ec"><path d="M 425.277344 749 L 515 749 L 515 838 L 425.277344 838 Z M 425.277344 749 " clip-rule="nonzero"/></clipPath><clipPath id="33c17e20d6"><path d="M 425.277344 682 L 548 682 L 548 772 L 425.277344 772 Z M 425.277344 682 " clip-rule="nonzero"/></clipPath><clipPath id="df9e859144"><path d="M 425.277344 615 L 526 615 L 526 705 L 425.277344 705 Z M 425.277344 615 " clip-rule="nonzero"/></clipPath><clipPath id="903c908767"><path d="M 425.277344 549 L 548 549 L 548 639 L 425.277344 639 Z M 425.277344 549 " clip-rule="nonzero"/></clipPath></defs><g clip-path="url(#1166f3f517)"><path fill="#ffffff" d="M 0.230469 0 L 1417.230469 0 L 1417.230469 1417 L 0.230469 1417 Z M 0.230469 0 " fill-opacity="1" fill-rule="nonzero"/><path fill="#ffffff" d="M 0.230469 0 L 1417.230469 0 L 1417.230469 1417 L 0.230469 1417 Z M 0.230469 0 " fill-opacity="1" fill-rule="nonzero"/></g><g clip-path="url(#76f9aace3e)"><path fill="#424242" d="M 547.675781 971.152344 L 436.667969 971.152344 C 430.539062 971.152344 425.570312 966.179688 425.570312 960.050781 L 425.570312 893.449219 C 425.570312 887.316406 430.539062 882.347656 436.667969 882.347656 L 547.675781 882.347656 C 553.804688 882.347656 558.777344 887.316406 558.777344 893.449219 L 558.777344 960.050781 C 558.777344 966.179688 553.804688 971.152344 547.675781 971.152344 Z M 447.769531 948.949219 L 536.574219 948.949219 L 536.574219 904.546875 L 447.769531 904.546875 Z M 447.769531 948.949219 " fill-opacity="1" fill-rule="nonzero"/></g><g clip-path="url(#faf0c9b66a)"><path fill="#424242" d="M 714.1875 971.152344 L 547.675781 971.152344 C 541.546875 971.152344 536.574219 966.179688 536.574219 960.050781 L 536.574219 893.449219 C 536.574219 887.316406 541.546875 882.347656 547.675781 882.347656 L 714.1875 882.347656 C 720.316406 882.347656 725.285156 887.316406 725.285156 893.449219 L 725.285156 960.050781 C 725.285156 966.179688 720.316406 971.152344 714.1875 971.152344 Z M 558.777344 948.949219 L 703.085938 948.949219 L 703.085938 904.546875 L 558.777344 904.546875 Z M 558.777344 948.949219 " fill-opacity="1" fill-rule="nonzero"/></g><g clip-path="url(#97db1f2e60)"><path fill="#424242" d="M 858.496094 971.152344 L 714.1875 971.152344 C 708.054688 971.152344 703.085938 966.179688 703.085938 960.050781 L 703.085938 893.449219 C 703.085938 887.316406 708.054688 882.347656 714.1875 882.347656 L 858.496094 882.347656 C 864.625 882.347656 869.59375 887.316406 869.59375 893.449219 L 869.59375 960.050781 C 869.59375 966.179688 864.625 971.152344 858.496094 971.152344 Z M 725.285156 948.949219 L 847.394531 948.949219 L 847.394531 904.546875 L 725.285156 904.546875 Z M 725.285156 948.949219 " fill-opacity="1" fill-rule="nonzero"/></g><g clip-path="url(#7cbfcd5bcc)"><path fill="#424242" d="M 980.601562 971.152344 L 858.496094 971.152344 C 852.363281 971.152344 847.394531 966.179688 847.394531 960.050781 L 847.394531 893.449219 C 847.394531 887.316406 852.363281 882.347656 858.496094 882.347656 L 980.601562 882.347656 C 986.730469 882.347656 991.703125 887.316406 991.703125 893.449219 L 991.703125 960.050781 C 991.703125 966.179688 986.730469 971.152344 980.601562 971.152344 Z M 869.59375 948.949219 L 969.5 948.949219 L 969.5 904.546875 L 869.59375 904.546875 Z M 869.59375 948.949219 " fill-opacity="1" fill-rule="nonzero"/></g><g clip-path="url(#4370244177)"><path fill="#424242" d="M 525.472656 904.546875 L 436.667969 904.546875 C 430.539062 904.546875 425.570312 899.578125 425.570312 893.449219 L 425.570312 826.84375 C 425.570312 820.714844 430.539062 815.742188 436.667969 815.742188 L 525.472656 815.742188 C 531.605469 815.742188 536.574219 820.714844 536.574219 826.84375 L 536.574219 893.449219 C 536.574219 899.578125 531.605469 904.546875 525.472656 904.546875 Z M 447.769531 882.347656 L 514.375 882.347656 L 514.375 837.945312 L 447.769531 837.945312 Z M 447.769531 882.347656 " fill-opacity="1" fill-rule="nonzero"/></g><path fill="#424242" d="M 658.683594 904.546875 L 525.472656 904.546875 C 519.34375 904.546875 514.375 899.578125 514.375 893.449219 L 514.375 826.84375 C 514.375 820.714844 519.34375 815.742188 525.472656 815.742188 L 658.683594 815.742188 C 664.8125 815.742188 669.785156 820.714844 669.785156 826.84375 L 669.785156 893.449219 C 669.785156 899.578125 664.8125 904.546875 658.683594 904.546875 Z M 536.574219 882.347656 L 647.582031 882.347656 L 647.582031 837.945312 L 536.574219 837.945312 Z M 536.574219 882.347656 " fill-opacity="1" fill-rule="nonzero"/><path fill="#424242" d="M 802.992188 904.546875 L 658.683594 904.546875 C 652.550781 904.546875 647.582031 899.578125 647.582031 893.449219 L 647.582031 826.84375 C 647.582031 820.714844 652.550781 815.742188 658.683594 815.742188 L 802.992188 815.742188 C 809.121094 815.742188 814.09375 820.714844 814.09375 826.84375 L 814.09375 893.449219 C 814.09375 899.578125 809.121094 904.546875 802.992188 904.546875 Z M 669.785156 882.347656 L 791.890625 882.347656 L 791.890625 837.945312 L 669.785156 837.945312 Z M 669.785156 882.347656 " fill-opacity="1" fill-rule="nonzero"/><path fill="#424242" d="M 925.097656 904.546875 L 802.992188 904.546875 C 796.863281 904.546875 791.890625 899.578125 791.890625 893.449219 L 791.890625 826.84375 C 791.890625 820.714844 796.863281 815.742188 802.992188 815.742188 L 925.097656 815.742188 C 931.230469 815.742188 936.199219 820.714844 936.199219 826.84375 L 936.199219 893.449219 C 936.199219 899.578125 931.230469 904.546875 925.097656 904.546875 Z M 814.09375 882.347656 L 914 882.347656 L 914 837.945312 L 814.09375 837.945312 Z M 814.09375 882.347656 " fill-opacity="1" fill-rule="nonzero"/><g clip-path="url(#66672c87ec)"><path fill="#424242" d="M 503.273438 837.945312 L 436.667969 837.945312 C 430.539062 837.945312 425.570312 832.972656 425.570312 826.84375 L 425.570312 760.238281 C 425.570312 754.109375 430.539062 749.140625 436.667969 749.140625 L 503.273438 749.140625 C 509.402344 749.140625 514.375 754.109375 514.375 760.238281 L 514.375 826.84375 C 514.375 832.972656 509.402344 837.945312 503.273438 837.945312 Z M 447.769531 815.742188 L 492.171875 815.742188 L 492.171875 771.339844 L 447.769531 771.339844 Z M 447.769531 815.742188 " fill-opacity="1" fill-rule="nonzero"/></g><path fill="#424242" d="M 603.179688 837.945312 L 503.273438 837.945312 C 497.140625 837.945312 492.171875 832.972656 492.171875 826.84375 L 492.171875 760.238281 C 492.171875 754.109375 497.140625 749.140625 503.273438 749.140625 L 603.179688 749.140625 C 609.308594 749.140625 614.28125 754.109375 614.28125 760.238281 L 614.28125 826.84375 C 614.28125 832.972656 609.308594 837.945312 603.179688 837.945312 Z M 514.375 815.742188 L 592.078125 815.742188 L 592.078125 771.339844 L 514.375 771.339844 Z M 514.375 815.742188 " fill-opacity="1" fill-rule="nonzero"/><path fill="#424242" d="M 747.488281 837.945312 L 603.179688 837.945312 C 597.046875 837.945312 592.078125 832.972656 592.078125 826.84375 L 592.078125 760.238281 C 592.078125 754.109375 597.046875 749.140625 603.179688 749.140625 L 747.488281 749.140625 C 753.617188 749.140625 758.589844 754.109375 758.589844 760.238281 L 758.589844 826.84375 C 758.589844 832.972656 753.617188 837.945312 747.488281 837.945312 Z M 614.28125 815.742188 L 736.386719 815.742188 L 736.386719 771.339844 L 614.28125 771.339844 Z M 614.28125 815.742188 " fill-opacity="1" fill-rule="nonzero"/><path fill="#424242" d="M 869.59375 837.945312 L 747.488281 837.945312 C 741.359375 837.945312 736.386719 832.972656 736.386719 826.84375 L 736.386719 760.238281 C 736.386719 754.109375 741.359375 749.140625 747.488281 749.140625 L 869.59375 749.140625 C 875.726562 749.140625 880.695312 754.109375 880.695312 760.238281 L 880.695312 826.84375 C 880.695312 832.972656 875.726562 837.945312 869.59375 837.945312 Z M 758.589844 815.742188 L 858.496094 815.742188 L 858.496094 771.339844 L 758.589844 771.339844 Z M 758.589844 815.742188 " fill-opacity="1" fill-rule="nonzero"/><g clip-path="url(#33c17e20d6)"><path fill="#424242" d="M 536.574219 771.339844 L 436.667969 771.339844 C 430.539062 771.339844 425.570312 766.371094 425.570312 760.238281 L 425.570312 693.636719 C 425.570312 687.503906 430.539062 682.535156 436.667969 682.535156 L 536.574219 682.535156 C 542.703125 682.535156 547.675781 687.503906 547.675781 693.636719 L 547.675781 760.238281 C 547.675781 766.371094 542.703125 771.339844 536.574219 771.339844 Z M 447.769531 749.140625 L 525.472656 749.140625 L 525.472656 704.734375 L 447.769531 704.734375 Z M 447.769531 749.140625 " fill-opacity="1" fill-rule="nonzero"/></g><path fill="#424242" d="M 614.28125 771.339844 L 536.574219 771.339844 C 530.445312 771.339844 525.472656 766.371094 525.472656 760.238281 L 525.472656 693.636719 C 525.472656 687.503906 530.445312 682.535156 536.574219 682.535156 L 614.28125 682.535156 C 620.410156 682.535156 625.378906 687.503906 625.378906 693.636719 L 625.378906 760.238281 C 625.378906 766.371094 620.410156 771.339844 614.28125 771.339844 Z M 547.675781 749.140625 L 603.179688 749.140625 L 603.179688 704.734375 L 547.675781 704.734375 Z M 547.675781 749.140625 " fill-opacity="1" fill-rule="nonzero"/><path fill="#424242" d="M 703.085938 771.339844 L 614.28125 771.339844 C 608.148438 771.339844 603.179688 766.371094 603.179688 760.238281 L 603.179688 693.636719 C 603.179688 687.503906 608.148438 682.535156 614.28125 682.535156 L 665.71875 682.535156 C 671.851562 682.535156 676.820312 687.503906 676.820312 693.636719 C 676.820312 699.765625 671.851562 704.734375 665.71875 704.734375 L 625.378906 704.734375 L 625.378906 749.140625 L 691.984375 749.140625 L 691.984375 717.289062 C 691.984375 711.160156 696.953125 706.191406 703.085938 706.191406 C 709.214844 706.191406 714.1875 711.160156 714.1875 717.289062 L 714.1875 760.238281 C 714.1875 766.371094 709.214844 771.339844 703.085938 771.339844 Z M 703.085938 771.339844 " fill-opacity="1" fill-rule="nonzero"/><path fill="#424242" d="M 814.09375 771.339844 L 703.085938 771.339844 C 696.953125 771.339844 691.984375 766.371094 691.984375 760.238281 L 691.984375 717.289062 C 691.984375 711.160156 696.953125 706.191406 703.085938 706.191406 C 709.214844 706.191406 714.1875 711.160156 714.1875 717.289062 L 714.1875 749.140625 L 802.992188 749.140625 L 802.992188 704.734375 L 757.554688 704.734375 C 751.425781 704.734375 746.457031 699.765625 746.457031 693.636719 C 746.457031 687.503906 751.425781 682.535156 757.554688 682.535156 L 814.09375 682.535156 C 820.222656 682.535156 825.191406 687.503906 825.191406 693.636719 L 825.191406 760.238281 C 825.191406 766.371094 820.222656 771.339844 814.09375 771.339844 Z M 814.09375 771.339844 " fill-opacity="1" fill-rule="nonzero"/><path fill="#424242" d="M 665.640625 719.675781 C 654.71875 708.753906 651.570312 692.515625 657.617188 678.304688 L 717.777344 536.9375 C 724.597656 520.914062 745.460938 516.921875 757.726562 529.1875 L 757.730469 529.1875 L 855.257812 626.71875 C 867.496094 638.957031 863.546875 659.703125 847.679688 666.597656 L 707.265625 727.585938 C 693.054688 733.761719 676.699219 730.738281 665.640625 719.675781 Z M 739.921875 544.242188 C 739.363281 544.351562 738.609375 544.679688 738.207031 545.628906 L 678.046875 687 C 675.566406 692.832031 676.855469 699.496094 681.339844 703.976562 C 685.855469 708.496094 692.566406 709.769531 698.421875 707.226562 L 838.835938 646.234375 C 839.777344 645.824219 840.101562 645.074219 840.207031 644.519531 C 840.3125 643.960938 840.285156 643.144531 839.558594 642.417969 L 742.03125 544.890625 C 741.449219 544.308594 740.71875 544.089844 739.921875 544.242188 Z M 739.921875 544.242188 " fill-opacity="1" fill-rule="nonzero"/><path fill="#424242" d="M 842.402344 582.464844 L 803.15625 543.21875 C 798.820312 538.882812 798.820312 531.855469 803.15625 527.519531 L 869.875 460.800781 C 885.023438 445.652344 909.671875 445.652344 924.820312 460.800781 C 939.96875 475.949219 939.96875 500.597656 924.820312 515.746094 L 858.101562 582.464844 C 853.761719 586.800781 846.738281 586.800781 842.402344 582.464844 Z M 826.703125 535.367188 L 850.25 558.917969 L 909.121094 500.046875 C 915.613281 493.554688 915.613281 482.992188 909.121094 476.496094 C 902.628906 470.007812 892.0625 470.003906 885.574219 476.5 Z M 826.703125 535.367188 " fill-opacity="1" fill-rule="nonzero"/><path fill="#424242" d="M 767.246094 617.203125 C 762.914062 612.867188 762.914062 605.839844 767.246094 601.503906 L 822.191406 546.554688 C 826.527344 542.222656 833.554688 542.222656 837.890625 546.554688 C 842.226562 550.890625 842.226562 557.917969 837.890625 562.253906 L 782.945312 617.203125 C 778.609375 621.539062 771.582031 621.535156 767.246094 617.203125 Z M 767.246094 617.203125 " fill-opacity="1" fill-rule="nonzero"/><g clip-path="url(#df9e859144)"><path fill="#424242" d="M 514.375 704.734375 L 436.667969 704.734375 C 430.539062 704.734375 425.570312 699.765625 425.570312 693.636719 L 425.570312 627.03125 C 425.570312 620.902344 430.539062 615.929688 436.667969 615.929688 L 514.375 615.929688 C 520.503906 615.929688 525.472656 620.902344 525.472656 627.03125 L 525.472656 693.636719 C 525.472656 699.765625 520.503906 704.734375 514.375 704.734375 Z M 447.769531 682.535156 L 503.273438 682.535156 L 503.273438 638.132812 L 447.769531 638.132812 Z M 447.769531 682.535156 " fill-opacity="1" fill-rule="nonzero"/></g><path fill="#424242" d="M 614.28125 704.734375 L 514.375 704.734375 C 508.242188 704.734375 503.273438 699.765625 503.273438 693.636719 L 503.273438 627.03125 C 503.273438 620.902344 508.242188 615.929688 514.375 615.929688 L 614.28125 615.929688 C 620.410156 615.929688 625.378906 620.902344 625.378906 627.03125 L 625.378906 693.636719 C 625.378906 699.765625 620.410156 704.734375 614.28125 704.734375 Z M 525.472656 682.535156 L 603.179688 682.535156 L 603.179688 638.132812 L 525.472656 638.132812 Z M 525.472656 682.535156 " fill-opacity="1" fill-rule="nonzero"/><g clip-path="url(#903c908767)"><path fill="#424242" d="M 536.574219 638.132812 L 436.667969 638.132812 C 430.539062 638.132812 425.570312 633.164062 425.570312 627.03125 L 425.570312 560.425781 C 425.570312 554.296875 430.539062 549.328125 436.667969 549.328125 L 536.574219 549.328125 C 542.703125 549.328125 547.675781 554.296875 547.675781 560.425781 L 547.675781 627.03125 C 547.675781 633.160156 542.703125 638.132812 536.574219 638.132812 Z M 447.769531 615.929688 L 525.472656 615.929688 L 525.472656 571.527344 L 447.769531 571.527344 Z M 447.769531 615.929688 " fill-opacity="1" fill-rule="nonzero"/></g></svg>