<svg xmlns="http://www.w3.org/2000/svg" xmlns:xlink="http://www.w3.org/1999/xlink" width="1889" zoomAndPan="magnify" viewBox="0 0 1416.96 1417.499962" height="1889" preserveAspectRatio="xMidYMid meet" version="1.0"><defs><clipPath id="1e1a1c73c9"><path d="M 0.230469 0 L 1416.691406 0 L 1416.691406 1417 L 0.230469 1417 Z M 0.230469 0 " clip-rule="nonzero"/></clipPath></defs><g clip-path="url(#1e1a1c73c9)"><path fill="#ffffff" d="M 0.230469 0 L 1417.230469 0 L 1417.230469 1417 L 0.230469 1417 Z M 0.230469 0 " fill-opacity="1" fill-rule="nonzero"/><path fill="#ffffff" d="M 0.230469 0 L 1417.230469 0 L 1417.230469 1417 L 0.230469 1417 Z M 0.230469 0 " fill-opacity="1" fill-rule="nonzero"/></g><path fill="#424242" d="M 454.332031 962.65625 C 426.121094 934.449219 426.117188 888.785156 454.332031 860.574219 L 638.246094 676.660156 C 642.464844 672.441406 649.300781 672.441406 653.519531 676.660156 L 740.328125 763.46875 C 744.546875 767.6875 744.546875 774.523438 740.328125 778.742188 L 556.414062 962.65625 C 528.207031 990.863281 482.542969 990.871094 454.332031 962.65625 Z M 645.882812 699.570312 L 469.605469 875.847656 C 449.839844 895.613281 449.835938 927.613281 469.605469 947.382812 C 489.375 967.148438 521.367188 967.152344 541.140625 947.382812 L 717.417969 771.105469 Z M 645.882812 699.570312 " fill-opacity="1" fill-rule="nonzero"/><path fill="#424242" d="M 688.894531 814.902344 L 602.085938 728.09375 C 597.867188 723.878906 597.867188 717.039062 602.085938 712.820312 C 606.304688 708.601562 613.140625 708.601562 617.359375 712.820312 L 704.167969 799.628906 C 708.386719 803.84375 708.386719 810.683594 704.167969 814.902344 C 699.949219 819.121094 693.113281 819.121094 688.894531 814.902344 Z M 688.894531 814.902344 " fill-opacity="1" fill-rule="nonzero"/><path fill="#424242" d="M 650.707031 853.089844 L 563.898438 766.28125 C 559.679688 762.0625 559.679688 755.222656 563.898438 751.003906 C 568.117188 746.789062 574.953125 746.789062 579.175781 751.003906 L 665.980469 837.8125 C 670.199219 842.03125 670.199219 848.871094 665.980469 853.089844 C 661.761719 857.308594 654.925781 857.308594 650.707031 853.089844 Z M 650.707031 853.089844 " fill-opacity="1" fill-rule="nonzero"/><path fill="#424242" d="M 705.761719 759.453125 L 657.535156 711.226562 C 653.320312 707.007812 653.320312 700.167969 657.535156 695.949219 L 838.46875 515.019531 L 847.304688 488.5 C 848.027344 486.335938 849.417969 484.453125 851.277344 483.128906 L 918.792969 434.902344 C 923.089844 431.832031 928.976562 432.316406 932.710938 436.050781 L 980.9375 484.28125 C 984.667969 488.011719 985.15625 493.898438 982.089844 498.195312 L 933.863281 565.710938 C 932.535156 567.570312 930.652344 568.957031 928.488281 569.679688 L 901.96875 578.519531 L 721.039062 759.453125 C 716.828125 763.664062 709.988281 763.679688 705.761719 759.453125 Z M 680.449219 703.585938 L 713.398438 736.539062 L 888.496094 561.441406 C 889.683594 560.257812 891.128906 559.363281 892.71875 558.835938 L 918.324219 550.300781 L 959.191406 493.085938 L 923.902344 457.796875 L 866.6875 498.664062 L 858.15625 524.269531 C 857.625 525.859375 856.730469 527.304688 855.546875 528.492188 Z M 680.449219 703.585938 " fill-opacity="1" fill-rule="nonzero"/><path fill="#424242" d="M 825.378906 956.546875 C 799.5625 930.730469 791.367188 891.707031 804.164062 857.859375 L 705.761719 759.457031 C 701.542969 755.238281 701.542969 748.398438 705.761719 744.179688 C 709.980469 739.964844 716.816406 739.964844 721.035156 744.179688 L 823.253906 846.398438 C 827.214844 850.410156 828.292969 856.484375 825.996094 861.566406 C 813.929688 888.394531 819.816406 920.433594 840.65625 941.269531 C 858.15625 958.773438 883.246094 965.691406 906.738281 960.441406 L 873.789062 927.496094 C 869.574219 923.277344 869.570312 916.4375 873.789062 912.21875 L 912.523438 873.484375 C 916.742188 869.269531 923.582031 869.269531 927.800781 873.484375 L 960.746094 906.429688 C 965.988281 882.941406 959.070312 857.84375 941.578125 840.351562 C 920.738281 819.507812 888.695312 813.625 861.851562 825.699219 C 856.789062 827.992188 850.714844 826.90625 846.753906 823 L 744.484375 720.730469 C 740.269531 716.511719 740.269531 709.675781 744.484375 705.457031 C 748.703125 701.238281 755.542969 701.238281 759.761719 705.457031 L 858.164062 803.859375 C 892.027344 791.058594 931.039062 799.257812 956.851562 825.074219 C 984.644531 852.867188 991.941406 895.386719 975.011719 930.875 C 971.8125 937.578125 962.914062 939.144531 957.625 933.859375 L 920.164062 896.398438 L 896.703125 919.859375 L 934.164062 957.320312 C 939.425781 962.582031 937.910156 971.492188 931.179688 974.707031 C 895.542969 991.71875 853.0625 984.230469 825.378906 956.546875 Z M 825.378906 956.546875 " fill-opacity="1" fill-rule="nonzero"/><path fill="#424242" d="M 657.53125 711.226562 L 559.128906 612.820312 C 525.261719 625.617188 486.253906 617.421875 460.441406 591.609375 C 432.636719 563.804688 425.339844 521.289062 442.285156 485.808594 C 445.488281 479.09375 454.394531 477.550781 459.667969 482.824219 L 497.132812 520.289062 L 520.59375 496.824219 L 483.128906 459.363281 C 477.867188 454.101562 479.382812 445.1875 486.117188 441.976562 C 521.601562 425.046875 564.121094 432.34375 591.914062 460.136719 C 617.734375 485.957031 625.929688 524.976562 613.128906 558.824219 L 711.535156 657.226562 C 715.75 661.445312 715.75 668.285156 711.535156 672.503906 C 707.316406 676.722656 700.476562 676.722656 696.257812 672.503906 L 594.039062 570.285156 C 590.078125 566.269531 589 560.195312 591.296875 555.117188 C 603.367188 528.292969 597.480469 496.253906 576.640625 475.414062 C 559.144531 457.917969 534.050781 451.003906 510.558594 456.246094 L 543.503906 489.191406 C 547.71875 493.40625 547.722656 500.246094 543.503906 504.464844 L 504.769531 543.203125 C 502.742188 545.226562 499.996094 546.363281 497.132812 546.363281 C 494.265625 546.363281 491.519531 545.226562 489.492188 543.203125 L 456.546875 510.25 C 451.296875 533.738281 458.214844 558.832031 475.714844 576.332031 C 496.554688 597.171875 528.59375 603.058594 555.441406 590.984375 C 560.503906 588.691406 566.574219 589.773438 570.535156 593.683594 L 672.808594 695.953125 C 677.023438 700.171875 677.023438 707.007812 672.808594 711.226562 C 668.585938 715.445312 661.75 715.445312 657.53125 711.226562 Z M 657.53125 711.226562 " fill-opacity="1" fill-rule="nonzero"/></svg>