<svg xmlns="http://www.w3.org/2000/svg" xmlns:xlink="http://www.w3.org/1999/xlink" width="50" zoomAndPan="magnify" viewBox="0 0 37.5 37.499999" height="50" preserveAspectRatio="xMidYMid meet" version="1.0"><defs><clipPath id="843a53cf22"><path d="M 0 0 L 37.007812 0 L 37.007812 37.007812 L 0 37.007812 Z M 0 0 " clip-rule="nonzero"/></clipPath></defs><g clip-path="url(#843a53cf22)"><path fill="#ffffff" d="M 0 0 L 37.007812 0 L 37.007812 37.007812 L 0 37.007812 Z M 0 0 " fill-opacity="1" fill-rule="nonzero"/><path fill="#ffffff" d="M 0 0 L 37.007812 0 L 37.007812 37.007812 L 0 37.007812 Z M 0 0 " fill-opacity="1" fill-rule="nonzero"/></g><path fill="#26437e" d="M 36.949219 30.476562 C 36.941406 30.453125 36.183594 28.34375 33.976562 27.628906 L 33.976562 26.828125 C 34.917969 26.679688 35.652344 26.191406 36.167969 25.367188 C 36.167969 25.363281 36.167969 25.363281 36.171875 25.359375 C 36.175781 25.351562 36.179688 25.339844 36.183594 25.328125 C 36.195312 25.304688 36.199219 25.28125 36.203125 25.257812 C 36.207031 25.25 36.210938 25.246094 36.210938 25.242188 C 36.210938 25.234375 36.207031 25.230469 36.207031 25.226562 C 36.210938 25.195312 36.207031 25.167969 36.199219 25.136719 C 36.199219 25.132812 36.199219 25.128906 36.195312 25.121094 C 36.1875 25.09375 36.175781 25.066406 36.15625 25.039062 C 36.152344 25.035156 36.148438 25.03125 36.148438 25.027344 C 36.144531 25.027344 36.144531 25.023438 36.144531 25.023438 C 35.773438 24.523438 35.101562 24.179688 34.296875 24.082031 C 34.1875 24.070312 34.082031 24.0625 33.976562 24.058594 L 33.976562 23.410156 L 34.207031 23.515625 C 34.246094 23.53125 34.289062 23.539062 34.328125 23.539062 C 34.382812 23.539062 34.4375 23.523438 34.488281 23.492188 C 34.570312 23.441406 34.621094 23.347656 34.621094 23.246094 L 34.621094 21.488281 C 34.621094 21.375 34.554688 21.269531 34.449219 21.222656 L 18.648438 14.089844 C 17.34375 10.453125 14.464844 7.851562 9.847656 6.066406 C 9.78125 6.039062 9.703125 6.039062 9.636719 6.066406 C 3.070312 8.601562 0.0117188 12.796875 0.0117188 19.265625 C 0.0117188 19.429688 0.140625 19.558594 0.304688 19.558594 L 1.007812 19.558594 L 1.007812 29.855469 C 1.007812 30.019531 1.140625 30.152344 1.300781 30.152344 L 8.75 30.152344 C 8.628906 30.277344 8.554688 30.367188 8.539062 30.382812 C 8.464844 30.46875 8.445312 30.59375 8.496094 30.695312 C 8.542969 30.800781 8.648438 30.867188 8.761719 30.867188 L 36.671875 30.867188 C 36.765625 30.867188 36.855469 30.820312 36.910156 30.746094 C 36.964844 30.667969 36.980469 30.566406 36.949219 30.476562 Z M 33 27.421875 L 33 26.863281 C 33.136719 26.875 33.261719 26.871094 33.390625 26.871094 L 33.390625 27.476562 C 33.265625 27.453125 33.136719 27.433594 33 27.421875 Z M 32.746094 26.25 C 32.664062 26.238281 32.578125 26.265625 32.511719 26.320312 C 32.449219 26.375 32.414062 26.457031 32.414062 26.539062 L 32.414062 27.394531 C 32.160156 27.394531 31.917969 27.402344 31.683594 27.421875 L 31.609375 25.777344 C 31.609375 25.773438 31.605469 25.769531 31.605469 25.765625 C 31.605469 25.761719 31.609375 25.757812 31.605469 25.75 C 31.386719 24.128906 30.695312 22.542969 29.566406 21.03125 C 31.125 21.753906 32.324219 23.523438 31.953125 25.796875 C 31.933594 25.914062 31.988281 26.03125 32.089844 26.09375 C 32.191406 26.15625 32.320312 26.148438 32.414062 26.078125 C 33.074219 25.59375 34.042969 25.394531 35.359375 25.464844 C 34.753906 26.136719 33.894531 26.398438 32.746094 26.25 Z M 17.761719 28.722656 C 17.035156 28.285156 15.914062 27.777344 14.492188 27.648438 L 14.492188 27.1875 C 14.664062 27.21875 14.832031 27.234375 14.992188 27.234375 C 15.78125 27.234375 16.464844 26.878906 16.875 26.222656 C 16.941406 26.109375 16.929688 25.964844 16.839844 25.867188 C 16.519531 25.515625 16.0625 25.355469 15.578125 25.320312 C 16.261719 24.679688 16.636719 23.828125 16.671875 22.839844 C 17.003906 23.175781 17.417969 23.464844 17.886719 23.679688 L 17.886719 28.785156 C 17.84375 28.769531 17.804688 28.746094 17.761719 28.722656 Z M 9.367188 29.5625 L 6.03125 29.5625 L 9.742188 25.957031 L 10.101562 26.308594 C 10.105469 26.308594 10.109375 26.3125 10.109375 26.316406 C 10.128906 26.332031 10.148438 26.347656 10.164062 26.367188 L 11.851562 28.003906 C 10.820312 28.410156 9.957031 29.046875 9.367188 29.5625 Z M 13.882812 22.5 C 13.371094 23.042969 13.046875 23.753906 12.894531 24.652344 C 12.597656 24.289062 12.28125 24.027344 11.914062 23.84375 L 13.882812 21.929688 Z M 11.300781 23.621094 C 10.859375 23.507812 10.351562 23.472656 9.738281 23.5 C 9.726562 23.5 9.71875 23.503906 9.707031 23.503906 C 9.691406 23.507812 9.675781 23.511719 9.660156 23.515625 C 9.640625 23.523438 9.621094 23.53125 9.605469 23.542969 C 9.589844 23.550781 9.578125 23.558594 9.566406 23.566406 C 9.546875 23.582031 9.535156 23.597656 9.519531 23.617188 C 9.511719 23.625 9.503906 23.632812 9.5 23.640625 C 9.496094 23.644531 9.496094 23.648438 9.496094 23.652344 C 9.484375 23.671875 9.476562 23.695312 9.472656 23.71875 C 9.46875 23.730469 9.460938 23.742188 9.460938 23.757812 C 9.460938 23.757812 9.457031 23.761719 9.457031 23.761719 C 9.417969 24.167969 9.421875 24.539062 9.46875 24.875 L 6.03125 21.527344 L 13.453125 21.527344 Z M 10.527344 25.902344 C 10.1875 25.527344 10.019531 25.003906 10.019531 24.308594 C 11.101562 25.019531 11.9375 25.785156 12.550781 26.640625 C 11.65625 26.59375 10.996094 26.367188 10.585938 25.957031 Z M 9.320312 25.546875 L 5.601562 29.164062 L 5.601562 21.929688 Z M 12.480469 27.800781 L 11.808594 27.148438 C 12.113281 27.203125 12.445312 27.234375 12.808594 27.234375 L 12.808594 27.71875 C 12.699219 27.742188 12.589844 27.769531 12.480469 27.800781 Z M 13.390625 26.917969 C 13.390625 26.898438 13.386719 26.878906 13.378906 26.859375 C 13.375 26.84375 13.371094 26.824219 13.359375 26.808594 C 13.359375 26.800781 13.359375 26.792969 13.351562 26.789062 C 12.75 25.796875 11.894531 24.914062 10.765625 24.113281 C 11.710938 24.230469 12.273438 24.664062 12.851562 25.609375 C 12.917969 25.71875 13.050781 25.773438 13.175781 25.742188 C 13.300781 25.710938 13.386719 25.601562 13.394531 25.472656 C 13.488281 23.820312 14.046875 22.804688 15.21875 22.242188 C 14.339844 23.316406 13.90625 24.5 13.90625 25.839844 C 13.90625 25.839844 13.90625 25.839844 13.90625 25.84375 L 13.90625 27.617188 C 13.871094 27.617188 13.835938 27.613281 13.796875 27.613281 C 13.664062 27.613281 13.53125 27.625 13.394531 27.636719 L 13.394531 26.941406 C 13.394531 26.933594 13.394531 26.925781 13.390625 26.917969 Z M 19.179688 19.558594 C 19.339844 19.558594 19.472656 19.429688 19.472656 19.265625 C 19.472656 18.398438 19.414062 17.574219 19.304688 16.789062 L 22.210938 18.101562 C 21.835938 18.417969 21.542969 18.828125 21.359375 19.316406 C 20.996094 20.277344 21.070312 21.460938 21.53125 22.582031 L 21 22.457031 C 20.5625 21.71875 19.773438 21.167969 18.808594 20.9375 C 18.699219 20.910156 18.585938 20.890625 18.476562 20.875 L 18.476562 19.558594 Z M 31.03125 25.945312 L 31.054688 26.496094 C 30.269531 26.429688 29.207031 26.128906 28.835938 25.03125 C 29.21875 24.945312 29.636719 24.945312 29.996094 25.03125 C 30.296875 25.355469 30.640625 25.660156 31.03125 25.945312 Z M 29.027344 21.289062 C 29.976562 22.523438 30.589844 23.777344 30.886719 25.082031 C 29.730469 24.078125 29.128906 22.84375 29.027344 21.289062 Z M 28.425781 20.90625 C 28.445312 22.246094 28.789062 23.398438 29.472656 24.382812 C 29.238281 24.378906 29 24.402344 28.769531 24.449219 L 28.769531 23.914062 C 28.769531 23.753906 28.640625 23.621094 28.476562 23.621094 L 28.117188 23.621094 C 28.117188 23.613281 28.113281 23.601562 28.113281 23.59375 C 28.109375 23.566406 28.101562 23.542969 28.089844 23.519531 C 28.085938 23.515625 28.085938 23.507812 28.082031 23.503906 C 28.082031 23.5 28.074219 23.496094 28.074219 23.492188 C 28.058594 23.46875 28.039062 23.449219 28.019531 23.429688 C 28.011719 23.425781 28.007812 23.417969 28 23.414062 C 28 23.414062 28 23.410156 27.996094 23.410156 C 26.664062 22.464844 24.773438 22.59375 23.621094 23.632812 L 23.429688 23.109375 C 24.367188 21.917969 24.628906 20.347656 24.1875 18.992188 Z M 25.507812 25.710938 C 25.972656 25.652344 26.410156 25.519531 26.800781 25.3125 C 27.308594 25.039062 27.691406 24.65625 27.925781 24.207031 L 28.183594 24.207031 L 28.183594 26.882812 L 25.507812 26.882812 Z M 27.222656 23.632812 C 26.070312 24.195312 25.019531 24.335938 24.039062 24.046875 C 24.871094 23.308594 26.171875 23.140625 27.222656 23.632812 Z M 23.195312 22.425781 C 22.820312 21.132812 22.859375 19.902344 23.320312 18.484375 C 24.015625 19.664062 23.96875 21.210938 23.195312 22.425781 Z M 18.671875 21.507812 C 19.332031 21.664062 19.886719 21.996094 20.261719 22.433594 C 19.089844 22.429688 17.949219 22.148438 16.859375 21.597656 C 17.382812 21.390625 18.027344 21.355469 18.671875 21.507812 Z M 14.519531 25.363281 C 14.621094 24.175781 15.121094 23.148438 16.054688 22.1875 C 16.234375 23.589844 15.691406 24.710938 14.519531 25.363281 Z M 14.496094 26.046875 C 15.082031 25.847656 15.785156 25.820312 16.230469 26.113281 C 15.832031 26.574219 15.207031 26.746094 14.496094 26.585938 Z M 18.476562 23.90625 C 19.027344 24.078125 19.617188 24.152344 20.207031 24.105469 C 20.328125 24.09375 20.421875 24.097656 20.5 24.113281 C 20.984375 24.21875 21.386719 24.433594 21.667969 24.714844 C 21.492188 24.636719 21.304688 24.570312 21.101562 24.527344 C 20.238281 24.332031 19.332031 24.515625 18.792969 24.992188 C 18.792969 24.992188 18.789062 24.996094 18.789062 25 C 18.78125 25.003906 18.777344 25.011719 18.773438 25.015625 C 18.753906 25.035156 18.738281 25.058594 18.726562 25.085938 C 18.722656 25.089844 18.71875 25.097656 18.71875 25.105469 C 18.707031 25.136719 18.699219 25.171875 18.699219 25.203125 C 18.699219 25.207031 18.695312 25.207031 18.695312 25.210938 C 18.695312 25.214844 18.699219 25.222656 18.699219 25.226562 C 18.699219 25.242188 18.699219 25.257812 18.703125 25.269531 C 18.945312 26.433594 20.121094 27.132812 21.769531 27.132812 C 21.871094 27.132812 21.972656 27.128906 22.078125 27.121094 L 22.078125 27.429688 C 20.640625 27.578125 19.539062 28.171875 18.839844 28.679688 C 18.726562 28.761719 18.605469 28.8125 18.476562 28.839844 Z M 22.078125 25.832031 L 22.078125 26.113281 C 21.515625 25.667969 20.738281 25.28125 20 25.074219 C 20.308594 25.023438 20.644531 25.027344 20.972656 25.097656 C 21.507812 25.21875 21.90625 25.484375 22.078125 25.832031 Z M 21.671875 26.539062 C 20.742188 26.519531 19.804688 26.25 19.421875 25.546875 C 20.164062 25.667969 21.066406 26.074219 21.671875 26.539062 Z M 22.664062 25.761719 L 22.664062 25.65625 C 22.664062 24.652344 21.84375 23.800781 20.621094 23.539062 C 20.445312 23.5 20.273438 23.511719 20.160156 23.519531 C 19.519531 23.570312 18.871094 23.457031 18.304688 23.230469 C 18.296875 23.226562 18.289062 23.222656 18.285156 23.222656 C 17.742188 23.003906 17.273438 22.679688 16.949219 22.289062 C 18.019531 22.773438 19.140625 23.023438 20.289062 23.023438 C 20.449219 23.023438 20.613281 23.015625 20.777344 23.007812 L 21.988281 23.289062 C 22.003906 23.292969 22.015625 23.289062 22.027344 23.292969 C 22.050781 23.292969 22.074219 23.296875 22.097656 23.292969 C 22.117188 23.289062 22.132812 23.28125 22.152344 23.277344 C 22.167969 23.269531 22.183594 23.269531 22.199219 23.261719 C 22.199219 23.261719 22.203125 23.257812 22.203125 23.257812 C 22.222656 23.246094 22.234375 23.230469 22.25 23.21875 C 22.261719 23.207031 22.277344 23.195312 22.289062 23.179688 C 22.296875 23.167969 22.304688 23.152344 22.308594 23.140625 C 22.320312 23.121094 22.332031 23.101562 22.339844 23.078125 C 22.339844 23.074219 22.339844 23.074219 22.34375 23.070312 C 22.34375 23.058594 22.34375 23.042969 22.34375 23.03125 C 22.34375 23.007812 22.347656 22.988281 22.34375 22.964844 C 22.34375 22.941406 22.332031 22.925781 22.324219 22.902344 C 22.320312 22.890625 22.320312 22.875 22.3125 22.863281 C 21.695312 21.738281 21.542969 20.488281 21.90625 19.523438 C 22.074219 19.078125 22.347656 18.71875 22.710938 18.453125 C 22.199219 20.121094 22.238281 21.597656 22.820312 23.160156 L 23.234375 24.277344 C 23.238281 24.277344 23.238281 24.28125 23.238281 24.28125 C 23.242188 24.289062 23.242188 24.292969 23.246094 24.296875 C 23.257812 24.324219 23.273438 24.347656 23.292969 24.367188 C 23.296875 24.375 23.304688 24.382812 23.308594 24.386719 C 23.335938 24.410156 23.363281 24.429688 23.394531 24.445312 C 23.394531 24.445312 23.394531 24.445312 23.398438 24.445312 C 23.925781 24.667969 24.476562 24.78125 25.050781 24.78125 C 25.71875 24.78125 26.414062 24.625 27.136719 24.320312 C 26.96875 24.5 26.765625 24.664062 26.519531 24.796875 C 25.722656 25.226562 24.660156 25.277344 23.683594 24.933594 C 23.59375 24.902344 23.492188 24.917969 23.414062 24.972656 C 23.339844 25.027344 23.292969 25.113281 23.292969 25.210938 L 23.28125 27.414062 C 23.109375 27.402344 22.9375 27.390625 22.761719 27.390625 C 22.726562 27.390625 22.699219 27.394531 22.664062 27.394531 Z M 23.878906 25.605469 C 24.222656 25.695312 24.574219 25.738281 24.921875 25.742188 L 24.921875 27.175781 C 24.921875 27.339844 25.054688 27.46875 25.214844 27.46875 L 28.476562 27.46875 C 28.640625 27.46875 28.769531 27.339844 28.769531 27.175781 L 28.769531 26.078125 C 29.28125 26.667969 30.070312 27.019531 31.078125 27.085938 L 31.097656 27.492188 C 29.742188 27.691406 28.75 28.164062 28.113281 28.582031 C 27.785156 28.792969 27.382812 28.808594 27.054688 28.617188 C 26.300781 28.175781 25.1875 27.675781 23.871094 27.480469 Z M 34.988281 24.863281 C 34.023438 24.851562 33.230469 24.992188 32.597656 25.292969 C 32.605469 25.1875 32.601562 25.085938 32.601562 24.980469 C 32.988281 24.710938 33.59375 24.589844 34.226562 24.664062 C 34.503906 24.699219 34.761719 24.765625 34.988281 24.863281 Z M 33.390625 24.089844 C 33.09375 24.128906 32.8125 24.207031 32.570312 24.324219 C 32.488281 23.652344 32.277344 23.042969 31.976562 22.507812 L 33.390625 23.148438 Z M 34.035156 21.679688 L 34.035156 22.792969 L 33.800781 22.6875 L 31.265625 21.542969 C 30.582031 20.820312 29.699219 20.335938 28.78125 20.164062 C 28.773438 20.164062 28.769531 20.164062 28.765625 20.164062 C 28.738281 20.160156 28.714844 20.164062 28.691406 20.167969 C 28.675781 20.167969 28.660156 20.167969 28.648438 20.171875 C 28.621094 20.179688 28.597656 20.191406 28.574219 20.207031 C 28.566406 20.214844 28.554688 20.214844 28.542969 20.222656 C 28.542969 20.222656 28.542969 20.226562 28.539062 20.226562 C 28.539062 20.230469 28.535156 20.230469 28.535156 20.230469 C 28.515625 20.246094 28.503906 20.269531 28.488281 20.289062 L 23.820312 18.183594 C 23.714844 18 23.59375 17.824219 23.457031 17.660156 C 23.453125 17.65625 23.449219 17.652344 23.445312 17.648438 C 23.4375 17.636719 23.425781 17.632812 23.417969 17.625 C 23.398438 17.609375 23.375 17.59375 23.355469 17.582031 C 23.347656 17.582031 23.34375 17.574219 23.335938 17.574219 C 23.332031 17.570312 23.328125 17.574219 23.324219 17.570312 C 23.292969 17.558594 23.261719 17.554688 23.226562 17.554688 C 23.226562 17.554688 23.222656 17.554688 23.222656 17.554688 C 23.191406 17.554688 23.160156 17.558594 23.132812 17.570312 C 23.125 17.574219 23.121094 17.574219 23.113281 17.578125 C 23 17.621094 22.894531 17.667969 22.792969 17.71875 L 19.191406 16.09375 C 19.109375 15.664062 19.011719 15.25 18.894531 14.847656 Z M 9.742188 6.65625 C 14.15625 8.382812 16.898438 10.894531 18.128906 14.398438 C 18.128906 14.402344 18.132812 14.40625 18.132812 14.410156 C 18.609375 15.777344 18.859375 17.292969 18.882812 18.972656 L 17.632812 18.972656 C 17.535156 13.585938 14.777344 9.671875 9.839844 7.933594 C 9.777344 7.910156 9.707031 7.910156 9.644531 7.933594 C 4.707031 9.671875 1.949219 13.585938 1.851562 18.972656 L 0.601562 18.972656 C 0.691406 12.980469 3.605469 9.058594 9.742188 6.65625 Z M 1.59375 19.558594 L 2.140625 19.558594 C 2.304688 19.558594 2.433594 19.429688 2.433594 19.265625 C 2.433594 13.957031 4.960938 10.242188 9.742188 8.519531 C 14.523438 10.242188 17.046875 13.957031 17.046875 19.265625 C 17.046875 19.429688 17.179688 19.558594 17.339844 19.558594 L 17.886719 19.558594 L 17.886719 20.832031 C 17.230469 20.832031 16.613281 21 16.128906 21.324219 C 15.476562 21.46875 14.925781 21.691406 14.46875 22 L 14.46875 21.234375 C 14.46875 21.222656 14.464844 21.210938 14.460938 21.195312 C 14.457031 21.171875 14.457031 21.148438 14.445312 21.125 C 14.4375 21.101562 14.421875 21.078125 14.402344 21.058594 C 14.398438 21.050781 14.394531 21.039062 14.386719 21.03125 C 14.386719 21.03125 14.386719 21.03125 14.382812 21.03125 C 14.355469 21 14.320312 20.980469 14.28125 20.964844 C 14.25 20.949219 14.214844 20.941406 14.179688 20.941406 C 14.175781 20.941406 14.175781 20.941406 14.175781 20.941406 L 5.308594 20.941406 C 5.308594 20.941406 5.304688 20.941406 5.304688 20.941406 C 5.269531 20.941406 5.230469 20.949219 5.195312 20.964844 C 5.160156 20.980469 5.125 21.003906 5.097656 21.03125 C 5.089844 21.039062 5.085938 21.050781 5.078125 21.058594 C 5.0625 21.082031 5.046875 21.101562 5.035156 21.125 C 5.027344 21.148438 5.027344 21.171875 5.023438 21.195312 C 5.019531 21.210938 5.015625 21.222656 5.015625 21.234375 L 5.015625 29.5625 L 1.59375 29.5625 Z M 9.457031 30.28125 C 10.242188 29.539062 11.914062 28.199219 13.796875 28.199219 C 15.414062 28.199219 16.683594 28.757812 17.460938 29.226562 C 17.683594 29.359375 17.925781 29.429688 18.171875 29.445312 C 18.175781 29.445312 18.179688 29.445312 18.179688 29.445312 C 18.183594 29.445312 18.1875 29.445312 18.1875 29.445312 C 18.535156 29.464844 18.886719 29.367188 19.183594 29.15625 C 19.921875 28.617188 21.144531 27.976562 22.761719 27.976562 C 24.527344 27.976562 26.023438 28.695312 26.761719 29.125 C 27.28125 29.429688 27.921875 29.410156 28.433594 29.074219 C 29.199219 28.574219 30.515625 27.976562 32.441406 27.976562 C 34.753906 27.976562 35.835938 29.535156 36.222656 30.28125 Z M 9.457031 30.28125 " fill-opacity="1" fill-rule="nonzero"/><path fill="#26437e" d="M 7.210938 18.191406 L 12.273438 18.191406 C 12.433594 18.191406 12.566406 18.058594 12.566406 17.898438 L 12.566406 12.835938 C 12.566406 12.675781 12.433594 12.542969 12.273438 12.542969 L 7.210938 12.542969 C 7.046875 12.542969 6.917969 12.675781 6.917969 12.835938 L 6.917969 17.898438 C 6.917969 18.058594 7.046875 18.191406 7.210938 18.191406 Z M 7.503906 15.660156 L 9.449219 15.660156 L 9.449219 17.605469 L 7.503906 17.605469 Z M 10.035156 17.605469 L 10.035156 15.660156 L 11.980469 15.660156 L 11.980469 17.605469 Z M 11.980469 15.074219 L 10.035156 15.074219 L 10.035156 13.128906 L 11.980469 13.128906 Z M 9.449219 13.128906 L 9.449219 15.074219 L 7.503906 15.074219 L 7.503906 13.128906 Z M 9.449219 13.128906 " fill-opacity="1" fill-rule="nonzero"/><path fill="#26437e" d="M 28.195312 9.621094 C 30.15625 9.621094 31.75 8.027344 31.75 6.066406 C 31.75 4.105469 30.15625 2.507812 28.195312 2.507812 C 26.234375 2.507812 24.636719 4.105469 24.636719 6.066406 C 24.636719 8.027344 26.234375 9.621094 28.195312 9.621094 Z M 28.195312 3.09375 C 29.832031 3.09375 31.164062 4.429688 31.164062 6.066406 C 31.164062 7.703125 29.832031 9.035156 28.195312 9.035156 C 26.558594 9.035156 25.226562 7.703125 25.226562 6.066406 C 25.226562 4.429688 26.558594 3.09375 28.195312 3.09375 Z M 28.195312 3.09375 " fill-opacity="1" fill-rule="nonzero"/><path fill="#26437e" d="M 22.324219 6.945312 C 22.203125 7.003906 22.136719 7.132812 22.164062 7.265625 C 22.191406 7.394531 22.300781 7.492188 22.433594 7.5 C 22.933594 7.53125 23.308594 7.730469 23.4375 8.035156 C 23.5625 8.339844 23.4375 8.746094 23.105469 9.125 C 23.019531 9.222656 23.007812 9.371094 23.082031 9.480469 C 23.15625 9.589844 23.292969 9.640625 23.421875 9.59375 C 23.894531 9.433594 24.320312 9.472656 24.550781 9.707031 C 24.785156 9.941406 24.828125 10.363281 24.664062 10.839844 C 24.621094 10.964844 24.667969 11.101562 24.777344 11.175781 C 24.890625 11.25 25.035156 11.242188 25.136719 11.152344 C 25.511719 10.820312 25.917969 10.699219 26.222656 10.824219 C 26.527344 10.949219 26.730469 11.324219 26.757812 11.824219 C 26.765625 11.957031 26.863281 12.070312 26.996094 12.097656 C 27.125 12.121094 27.257812 12.054688 27.316406 11.9375 C 27.535156 11.484375 27.863281 11.214844 28.195312 11.214844 C 28.523438 11.214844 28.851562 11.484375 29.074219 11.9375 C 29.121094 12.039062 29.226562 12.101562 29.335938 12.101562 C 29.355469 12.101562 29.375 12.101562 29.394531 12.097656 C 29.523438 12.070312 29.621094 11.960938 29.628906 11.828125 C 29.660156 11.324219 29.859375 10.949219 30.164062 10.824219 C 30.472656 10.699219 30.878906 10.820312 31.253906 11.152344 C 31.351562 11.242188 31.5 11.25 31.609375 11.179688 C 31.722656 11.105469 31.769531 10.964844 31.722656 10.839844 C 31.5625 10.363281 31.601562 9.941406 31.835938 9.707031 C 32.070312 9.472656 32.492188 9.433594 32.96875 9.597656 C 33.09375 9.640625 33.230469 9.59375 33.304688 9.480469 C 33.378906 9.371094 33.371094 9.222656 33.28125 9.125 C 32.949219 8.75 32.828125 8.34375 32.953125 8.035156 C 33.078125 7.730469 33.453125 7.53125 33.953125 7.5 C 34.089844 7.492188 34.199219 7.394531 34.222656 7.265625 C 34.25 7.136719 34.183594 7.003906 34.066406 6.945312 C 33.613281 6.722656 33.34375 6.394531 33.34375 6.066406 C 33.34375 5.734375 33.613281 5.40625 34.066406 5.1875 C 34.183594 5.128906 34.25 4.996094 34.222656 4.867188 C 34.199219 4.734375 34.089844 4.640625 33.953125 4.628906 C 33.453125 4.601562 33.078125 4.398438 32.953125 4.09375 C 32.828125 3.789062 32.949219 3.382812 33.28125 3.007812 C 33.371094 2.90625 33.378906 2.761719 33.304688 2.648438 C 33.230469 2.539062 33.09375 2.492188 32.96875 2.535156 C 32.492188 2.699219 32.070312 2.65625 31.835938 2.421875 C 31.601562 2.191406 31.5625 1.765625 31.722656 1.292969 C 31.769531 1.167969 31.722656 1.027344 31.609375 0.953125 C 31.5 0.878906 31.351562 0.890625 31.253906 0.976562 C 30.878906 1.308594 30.46875 1.433594 30.164062 1.308594 C 29.859375 1.179688 29.660156 0.804688 29.628906 0.304688 C 29.621094 0.171875 29.523438 0.0625 29.394531 0.0351562 C 29.261719 0.0078125 29.132812 0.0742188 29.074219 0.195312 C 28.851562 0.644531 28.523438 0.914062 28.195312 0.914062 C 27.863281 0.914062 27.535156 0.644531 27.316406 0.195312 C 27.257812 0.0742188 27.125 0.0078125 26.996094 0.0351562 C 26.863281 0.0625 26.769531 0.171875 26.757812 0.304688 C 26.730469 0.804688 26.527344 1.179688 26.222656 1.308594 C 25.917969 1.433594 25.511719 1.308594 25.136719 0.976562 C 25.035156 0.890625 24.890625 0.878906 24.777344 0.953125 C 24.667969 1.027344 24.621094 1.167969 24.664062 1.292969 C 24.828125 1.765625 24.785156 2.191406 24.550781 2.421875 C 24.320312 2.65625 23.898438 2.699219 23.421875 2.535156 C 23.292969 2.492188 23.15625 2.539062 23.082031 2.648438 C 23.007812 2.761719 23.019531 2.90625 23.105469 3.007812 C 23.4375 3.382812 23.5625 3.789062 23.4375 4.09375 C 23.308594 4.398438 22.933594 4.601562 22.433594 4.628906 C 22.300781 4.640625 22.191406 4.734375 22.164062 4.867188 C 22.136719 4.996094 22.203125 5.128906 22.324219 5.1875 C 22.773438 5.40625 23.042969 5.734375 23.042969 6.066406 C 23.042969 6.394531 22.773438 6.722656 22.324219 6.945312 Z M 23.175781 5.066406 C 23.558594 4.914062 23.835938 4.660156 23.976562 4.320312 C 24.117188 3.976562 24.101562 3.597656 23.9375 3.222656 C 24.34375 3.234375 24.707031 3.097656 24.96875 2.839844 C 25.226562 2.578125 25.359375 2.21875 25.351562 1.808594 C 25.726562 1.972656 26.109375 1.988281 26.449219 1.847656 C 26.789062 1.707031 27.042969 1.429688 27.195312 1.046875 C 27.480469 1.339844 27.824219 1.5 28.195312 1.5 C 28.5625 1.5 28.90625 1.339844 29.191406 1.046875 C 29.34375 1.429688 29.601562 1.707031 29.941406 1.847656 C 30.28125 1.988281 30.660156 1.972656 31.039062 1.808594 C 31.03125 2.222656 31.160156 2.578125 31.421875 2.839844 C 31.683594 3.097656 32.039062 3.230469 32.449219 3.222656 C 32.285156 3.597656 32.269531 3.980469 32.410156 4.320312 C 32.550781 4.660156 32.832031 4.917969 33.214844 5.066406 C 32.917969 5.351562 32.757812 5.699219 32.757812 6.066406 C 32.757812 6.433594 32.917969 6.777344 33.214844 7.0625 C 32.832031 7.214844 32.550781 7.472656 32.410156 7.8125 C 32.269531 8.152344 32.285156 8.53125 32.449219 8.910156 C 32.039062 8.90625 31.683594 9.03125 31.421875 9.292969 C 31.160156 9.554688 31.03125 9.910156 31.039062 10.320312 C 30.660156 10.15625 30.28125 10.140625 29.941406 10.28125 C 29.601562 10.421875 29.34375 10.703125 29.191406 11.085938 C 28.90625 10.789062 28.5625 10.628906 28.195312 10.628906 C 27.824219 10.628906 27.480469 10.789062 27.195312 11.085938 C 27.042969 10.703125 26.789062 10.421875 26.449219 10.28125 C 26.292969 10.21875 26.128906 10.1875 25.964844 10.1875 C 25.761719 10.1875 25.558594 10.230469 25.351562 10.320312 C 25.359375 9.910156 25.226562 9.554688 24.96875 9.292969 C 24.707031 9.03125 24.363281 8.902344 23.9375 8.910156 C 24.101562 8.53125 24.117188 8.152344 23.976562 7.8125 C 23.835938 7.472656 23.554688 7.214844 23.175781 7.0625 C 23.46875 6.777344 23.628906 6.433594 23.628906 6.066406 C 23.628906 5.699219 23.46875 5.351562 23.175781 5.066406 Z M 23.175781 5.066406 " fill-opacity="1" fill-rule="nonzero"/></svg>