<svg xmlns="http://www.w3.org/2000/svg" xmlns:xlink="http://www.w3.org/1999/xlink" width="50" zoomAndPan="magnify" viewBox="0 0 37.5 37.499999" height="50" preserveAspectRatio="xMidYMid meet" version="1.0"><defs><clipPath id="6c9ab29986"><path d="M 0 0 L 37.007812 0 L 37.007812 37.007812 L 0 37.007812 Z M 0 0 " clip-rule="nonzero"/></clipPath><clipPath id="caadc817ee"><path d="M 7 19 L 25 19 L 25 34.785156 L 7 34.785156 Z M 7 19 " clip-rule="nonzero"/></clipPath><clipPath id="90586776c9"><path d="M 29 17 L 37.007812 17 L 37.007812 32 L 29 32 Z M 29 17 " clip-rule="nonzero"/></clipPath></defs><g clip-path="url(#6c9ab29986)"><path fill="#ffffff" d="M 0 0 L 37.007812 0 L 37.007812 37.007812 L 0 37.007812 Z M 0 0 " fill-opacity="1" fill-rule="nonzero"/><path fill="#ffffff" d="M 0 0 L 37.007812 0 L 37.007812 37.007812 L 0 37.007812 Z M 0 0 " fill-opacity="1" fill-rule="nonzero"/></g><g clip-path="url(#caadc817ee)"><path fill="#26437e" d="M 18.589844 34.613281 C 17.824219 34.605469 17.160156 34.339844 16.597656 33.820312 C 16.476562 33.707031 16.339844 33.621094 16.1875 33.558594 C 16.035156 33.5 15.875 33.46875 15.710938 33.46875 C 15.546875 33.46875 15.386719 33.5 15.234375 33.558594 C 15.082031 33.621094 14.945312 33.707031 14.824219 33.820312 C 14.265625 34.339844 13.601562 34.605469 12.835938 34.613281 C 9.5 34.613281 7.078125 30.738281 7.078125 25.402344 C 7.078125 22.230469 9.144531 19.648438 11.683594 19.648438 C 12.355469 19.640625 13 19.769531 13.617188 20.035156 C 14.234375 20.300781 14.769531 20.679688 15.230469 21.171875 C 15.363281 21.300781 15.523438 21.367188 15.710938 21.367188 C 15.898438 21.367188 16.0625 21.300781 16.195312 21.171875 C 16.652344 20.679688 17.191406 20.300781 17.808594 20.035156 C 18.425781 19.769531 19.070312 19.640625 19.742188 19.648438 C 22.28125 19.648438 24.34375 22.230469 24.34375 25.402344 C 24.34375 30.738281 21.925781 34.613281 18.589844 34.613281 Z M 15.710938 32.3125 C 16.34375 32.316406 16.894531 32.535156 17.363281 32.960938 C 17.707031 33.285156 18.117188 33.453125 18.589844 33.460938 C 21.214844 33.460938 23.195312 29.996094 23.195312 25.402344 C 23.195312 22.867188 21.644531 20.800781 19.742188 20.800781 C 18.675781 20.785156 17.777344 21.167969 17.046875 21.945312 C 16.875 22.128906 16.671875 22.273438 16.441406 22.375 C 16.207031 22.476562 15.964844 22.527344 15.710938 22.527344 C 15.457031 22.527344 15.214844 22.476562 14.984375 22.375 C 14.75 22.273438 14.550781 22.128906 14.375 21.945312 C 13.648438 21.167969 12.75 20.785156 11.683594 20.800781 C 9.777344 20.800781 8.230469 22.867188 8.230469 25.402344 C 8.230469 29.996094 10.210938 33.460938 12.835938 33.460938 C 13.308594 33.453125 13.714844 33.285156 14.0625 32.960938 C 14.527344 32.535156 15.078125 32.316406 15.710938 32.3125 Z M 15.710938 32.3125 " fill-opacity="1" fill-rule="nonzero"/></g><path fill="#26437e" d="M 15.710938 21.949219 C 15.554688 21.949219 15.417969 21.894531 15.304688 21.78125 C 15.191406 21.671875 15.136719 21.535156 15.136719 21.375 C 15.136719 18.519531 16.945312 16.195312 19.164062 16.195312 C 19.324219 16.195312 19.460938 16.253906 19.570312 16.363281 C 19.683594 16.476562 19.742188 16.613281 19.742188 16.769531 C 19.742188 16.929688 19.683594 17.066406 19.570312 17.179688 C 19.460938 17.289062 19.324219 17.347656 19.164062 17.347656 C 17.578125 17.347656 16.289062 19.15625 16.289062 21.375 C 16.289062 21.535156 16.230469 21.671875 16.117188 21.78125 C 16.007812 21.894531 15.871094 21.949219 15.710938 21.949219 Z M 15.710938 21.949219 " fill-opacity="1" fill-rule="nonzero"/><path fill="#26437e" d="M 9.382812 7.5625 L 4.777344 7.5625 C 4.617188 7.5625 4.480469 7.507812 4.371094 7.394531 C 4.257812 7.28125 4.203125 7.144531 4.203125 6.988281 L 4.203125 5.261719 C 4.203125 5.03125 4.246094 4.8125 4.332031 4.601562 C 4.421875 4.386719 4.546875 4.203125 4.707031 4.039062 C 4.867188 3.878906 5.054688 3.753906 5.265625 3.664062 C 5.480469 3.578125 5.699219 3.535156 5.929688 3.535156 L 8.230469 3.535156 C 8.460938 3.535156 8.679688 3.578125 8.890625 3.664062 C 9.101562 3.753906 9.289062 3.878906 9.449219 4.039062 C 9.613281 4.203125 9.738281 4.386719 9.824219 4.601562 C 9.914062 4.8125 9.957031 5.03125 9.957031 5.261719 L 9.957031 6.988281 C 9.957031 7.144531 9.902344 7.28125 9.789062 7.394531 C 9.675781 7.507812 9.539062 7.5625 9.382812 7.5625 Z M 5.351562 6.410156 L 8.804688 6.410156 L 8.804688 5.261719 C 8.804688 5.101562 8.75 4.964844 8.636719 4.855469 C 8.523438 4.742188 8.390625 4.683594 8.230469 4.683594 L 5.929688 4.683594 C 5.769531 4.683594 5.632812 4.742188 5.519531 4.855469 C 5.410156 4.964844 5.351562 5.101562 5.351562 5.261719 Z M 5.351562 6.410156 " fill-opacity="1" fill-rule="nonzero"/><path fill="#26437e" d="M 9.957031 33.460938 L 3.050781 33.460938 C 2.820312 33.460938 2.601562 33.417969 2.390625 33.332031 C 2.179688 33.242188 1.992188 33.117188 1.828125 32.957031 C 1.667969 32.792969 1.542969 32.605469 1.457031 32.394531 C 1.367188 32.183594 1.324219 31.964844 1.324219 31.734375 L 1.324219 22.792969 C 1.335938 22.589844 1.253906 22.429688 1.082031 22.320312 C 0.847656 22.195312 0.65625 22.027344 0.5 21.8125 C 0.34375 21.597656 0.246094 21.359375 0.199219 21.097656 C 0.152344 20.839844 0.167969 20.582031 0.238281 20.328125 C 0.3125 20.070312 0.4375 19.847656 0.613281 19.648438 C 0.472656 19.492188 0.363281 19.3125 0.285156 19.113281 C 0.210938 18.914062 0.171875 18.710938 0.171875 18.496094 C 0.171875 18.285156 0.210938 18.078125 0.285156 17.882812 C 0.363281 17.683594 0.472656 17.503906 0.613281 17.347656 C 0.4375 17.148438 0.3125 16.925781 0.238281 16.667969 C 0.167969 16.414062 0.152344 16.15625 0.199219 15.898438 C 0.246094 15.636719 0.34375 15.398438 0.5 15.183594 C 0.65625 14.96875 0.847656 14.800781 1.082031 14.675781 C 1.253906 14.5625 1.335938 14.40625 1.324219 14.203125 L 1.324219 12.167969 C 1.324219 10.582031 2.355469 9.289062 3.625 9.289062 C 4.25 9.289062 4.777344 8.5 4.777344 7.5625 L 4.777344 6.988281 L 5.929688 6.988281 L 5.929688 7.5625 C 5.929688 9.148438 4.894531 10.441406 3.625 10.441406 C 3.003906 10.441406 2.476562 11.230469 2.476562 12.167969 L 2.476562 14.203125 C 2.480469 14.511719 2.40625 14.796875 2.257812 15.0625 C 2.105469 15.328125 1.894531 15.539062 1.628906 15.6875 C 1.511719 15.75 1.425781 15.84375 1.371094 15.960938 C 1.320312 16.082031 1.308594 16.207031 1.339844 16.335938 C 1.371094 16.464844 1.441406 16.570312 1.542969 16.648438 C 1.648438 16.730469 1.765625 16.773438 1.898438 16.769531 C 2.058594 16.769531 2.195312 16.828125 2.304688 16.941406 C 2.417969 17.050781 2.476562 17.1875 2.476562 17.347656 C 2.476562 17.503906 2.417969 17.640625 2.304688 17.753906 C 2.195312 17.867188 2.058594 17.921875 1.898438 17.921875 C 1.742188 17.921875 1.605469 17.980469 1.492188 18.089844 C 1.378906 18.203125 1.324219 18.339844 1.324219 18.496094 C 1.324219 18.65625 1.378906 18.792969 1.492188 18.90625 C 1.605469 19.015625 1.742188 19.074219 1.898438 19.074219 C 2.058594 19.074219 2.195312 19.128906 2.304688 19.242188 C 2.417969 19.355469 2.476562 19.488281 2.476562 19.648438 C 2.476562 19.808594 2.417969 19.945312 2.304688 20.054688 C 2.195312 20.167969 2.058594 20.222656 1.898438 20.222656 C 1.765625 20.222656 1.648438 20.265625 1.546875 20.347656 C 1.441406 20.425781 1.371094 20.53125 1.339844 20.660156 C 1.308594 20.789062 1.320312 20.914062 1.371094 21.035156 C 1.425781 21.152344 1.511719 21.246094 1.628906 21.308594 C 1.894531 21.457031 2.105469 21.667969 2.257812 21.933594 C 2.40625 22.199219 2.480469 22.484375 2.476562 22.792969 L 2.476562 31.734375 C 2.476562 31.894531 2.53125 32.03125 2.644531 32.140625 C 2.753906 32.253906 2.890625 32.3125 3.050781 32.3125 L 9.957031 32.3125 Z M 9.957031 33.460938 " fill-opacity="1" fill-rule="nonzero"/><path fill="#26437e" d="M 12.257812 20.222656 C 12.101562 20.222656 11.964844 20.167969 11.851562 20.054688 C 11.738281 19.945312 11.683594 19.808594 11.683594 19.648438 C 11.683594 19.488281 11.738281 19.355469 11.851562 19.242188 C 11.964844 19.128906 12.101562 19.074219 12.257812 19.074219 C 12.417969 19.074219 12.554688 19.015625 12.664062 18.90625 C 12.777344 18.792969 12.835938 18.65625 12.835938 18.496094 C 12.835938 18.339844 12.777344 18.203125 12.664062 18.089844 C 12.554688 17.980469 12.417969 17.921875 12.257812 17.921875 C 12.101562 17.921875 11.964844 17.867188 11.851562 17.753906 C 11.738281 17.640625 11.683594 17.503906 11.683594 17.347656 C 11.683594 17.1875 11.738281 17.050781 11.851562 16.941406 C 11.964844 16.828125 12.101562 16.769531 12.257812 16.769531 C 12.390625 16.769531 12.507812 16.730469 12.613281 16.648438 C 12.71875 16.570312 12.785156 16.464844 12.816406 16.335938 C 12.847656 16.207031 12.839844 16.082031 12.785156 15.960938 C 12.730469 15.84375 12.648438 15.75 12.53125 15.6875 C 12.261719 15.539062 12.054688 15.328125 11.902344 15.0625 C 11.75 14.796875 11.675781 14.511719 11.683594 14.203125 L 11.683594 12.167969 C 11.683594 11.230469 11.15625 10.441406 10.53125 10.441406 C 9.261719 10.441406 8.230469 9.148438 8.230469 7.5625 L 8.230469 6.988281 C 8.230469 6.828125 8.285156 6.691406 8.398438 6.582031 C 8.511719 6.46875 8.648438 6.410156 8.804688 6.410156 C 8.964844 6.410156 9.101562 6.46875 9.210938 6.582031 C 9.324219 6.691406 9.382812 6.828125 9.382812 6.988281 L 9.382812 7.5625 C 9.382812 8.5 9.910156 9.289062 10.53125 9.289062 C 11.800781 9.289062 12.835938 10.582031 12.835938 12.167969 L 12.835938 14.203125 C 12.824219 14.40625 12.902344 14.5625 13.074219 14.675781 C 13.308594 14.800781 13.503906 14.96875 13.65625 15.183594 C 13.8125 15.398438 13.914062 15.636719 13.957031 15.898438 C 14.003906 16.15625 13.992188 16.414062 13.917969 16.667969 C 13.847656 16.925781 13.722656 17.148438 13.542969 17.347656 C 13.769531 17.601562 13.910156 17.894531 13.964844 18.230469 C 14.015625 18.566406 13.972656 18.890625 13.835938 19.203125 C 13.695312 19.511719 13.484375 19.761719 13.199219 19.945312 C 12.910156 20.132812 12.597656 20.222656 12.257812 20.222656 Z M 12.257812 20.222656 " fill-opacity="1" fill-rule="nonzero"/><path fill="#26437e" d="M 1.898438 16.769531 L 12.257812 16.769531 L 12.257812 17.921875 L 1.898438 17.921875 Z M 1.898438 16.769531 " fill-opacity="1" fill-rule="nonzero"/><path fill="#26437e" d="M 1.898438 19.074219 L 12.257812 19.074219 L 12.257812 20.222656 L 1.898438 20.222656 Z M 1.898438 19.074219 " fill-opacity="1" fill-rule="nonzero"/><path fill="#26437e" d="M 10.53125 15.621094 L 3.625 15.621094 C 3.46875 15.621094 3.332031 15.5625 3.21875 15.453125 C 3.105469 15.339844 3.050781 15.203125 3.050781 15.042969 C 3.050781 14.886719 3.105469 14.75 3.21875 14.636719 C 3.332031 14.523438 3.46875 14.46875 3.625 14.46875 L 10.53125 14.46875 C 10.691406 14.46875 10.828125 14.523438 10.9375 14.636719 C 11.050781 14.75 11.109375 14.886719 11.109375 15.042969 C 11.109375 15.203125 11.050781 15.339844 10.9375 15.453125 C 10.828125 15.5625 10.691406 15.621094 10.53125 15.621094 Z M 10.53125 15.621094 " fill-opacity="1" fill-rule="nonzero"/><path fill="#26437e" d="M 8.230469 22.527344 L 3.625 22.527344 C 3.46875 22.527344 3.332031 22.46875 3.21875 22.359375 C 3.105469 22.246094 3.050781 22.109375 3.050781 21.949219 C 3.050781 21.792969 3.105469 21.65625 3.21875 21.542969 C 3.332031 21.433594 3.46875 21.375 3.625 21.375 L 8.230469 21.375 C 8.390625 21.375 8.523438 21.433594 8.636719 21.542969 C 8.75 21.65625 8.804688 21.792969 8.804688 21.949219 C 8.804688 22.109375 8.75 22.246094 8.636719 22.359375 C 8.523438 22.46875 8.390625 22.527344 8.230469 22.527344 Z M 8.230469 22.527344 " fill-opacity="1" fill-rule="nonzero"/><path fill="#26437e" d="M 25.496094 32.3125 L 22.042969 32.3125 L 22.042969 31.160156 L 24.921875 31.160156 L 24.921875 10.441406 L 11.683594 10.441406 L 11.683594 9.289062 L 25.496094 9.289062 C 25.65625 9.289062 25.789062 9.34375 25.902344 9.457031 C 26.015625 9.570312 26.070312 9.707031 26.070312 9.863281 L 26.070312 31.734375 C 26.070312 31.894531 26.015625 32.03125 25.902344 32.140625 C 25.789062 32.253906 25.65625 32.3125 25.496094 32.3125 Z M 25.496094 32.3125 " fill-opacity="1" fill-rule="nonzero"/><path fill="#26437e" d="M 30.101562 32.3125 L 25.496094 32.3125 C 25.335938 32.3125 25.203125 32.253906 25.089844 32.140625 C 24.976562 32.03125 24.921875 31.894531 24.921875 31.734375 C 24.921875 31.574219 24.976562 31.441406 25.089844 31.328125 C 25.203125 31.214844 25.335938 31.160156 25.496094 31.160156 L 29.523438 31.160156 L 29.523438 10 L 27.796875 6.546875 L 26.015625 10.121094 C 25.941406 10.265625 25.832031 10.359375 25.679688 10.410156 C 25.53125 10.460938 25.382812 10.449219 25.242188 10.378906 C 25.097656 10.308594 25.003906 10.199219 24.953125 10.046875 C 24.902344 9.894531 24.914062 9.75 24.984375 9.609375 L 27.285156 5.003906 C 27.339844 4.914062 27.414062 4.839844 27.503906 4.789062 C 27.597656 4.738281 27.695312 4.710938 27.800781 4.710938 C 27.90625 4.710938 28.003906 4.738281 28.097656 4.789062 C 28.1875 4.839844 28.261719 4.914062 28.316406 5.003906 L 30.617188 9.609375 C 30.65625 9.6875 30.675781 9.773438 30.675781 9.863281 L 30.675781 31.734375 C 30.675781 31.894531 30.621094 32.03125 30.507812 32.140625 C 30.394531 32.253906 30.257812 32.3125 30.101562 32.3125 Z M 30.101562 32.3125 " fill-opacity="1" fill-rule="nonzero"/><path fill="#26437e" d="M 11.683594 10.441406 C 11.582031 10.441406 11.488281 10.417969 11.402344 10.367188 C 11.316406 10.320312 11.246094 10.253906 11.195312 10.167969 C 11.140625 10.082031 11.113281 9.992188 11.109375 9.890625 C 11.105469 9.792969 11.125 9.695312 11.167969 9.609375 L 13.472656 5.003906 C 13.542969 4.859375 13.652344 4.765625 13.804688 4.714844 C 13.953125 4.664062 14.101562 4.675781 14.242188 4.746094 C 14.386719 4.816406 14.480469 4.925781 14.53125 5.078125 C 14.582031 5.230469 14.570312 5.375 14.5 5.519531 L 12.199219 10.121094 C 12.09375 10.335938 11.921875 10.441406 11.683594 10.441406 Z M 11.683594 10.441406 " fill-opacity="1" fill-rule="nonzero"/><path fill="#26437e" d="M 27.796875 5.835938 L 13.984375 5.835938 C 13.828125 5.835938 13.691406 5.78125 13.578125 5.667969 C 13.464844 5.554688 13.410156 5.417969 13.410156 5.261719 L 13.410156 1.808594 C 13.410156 1.578125 13.453125 1.359375 13.542969 1.148438 C 13.628906 0.933594 13.753906 0.75 13.914062 0.585938 C 14.078125 0.425781 14.265625 0.300781 14.476562 0.210938 C 14.6875 0.125 14.90625 0.0820312 15.136719 0.0820312 L 26.648438 0.0820312 C 26.875 0.0820312 27.097656 0.125 27.308594 0.210938 C 27.519531 0.300781 27.707031 0.425781 27.867188 0.585938 C 28.03125 0.75 28.15625 0.933594 28.242188 1.148438 C 28.328125 1.359375 28.375 1.578125 28.375 1.808594 L 28.375 5.261719 C 28.375 5.417969 28.316406 5.554688 28.203125 5.667969 C 28.09375 5.78125 27.957031 5.835938 27.796875 5.835938 Z M 14.5625 4.683594 L 27.222656 4.683594 L 27.222656 1.808594 C 27.222656 1.648438 27.167969 1.511719 27.054688 1.402344 C 26.941406 1.289062 26.804688 1.230469 26.648438 1.230469 L 15.136719 1.230469 C 14.976562 1.230469 14.84375 1.289062 14.730469 1.402344 C 14.617188 1.511719 14.5625 1.648438 14.5625 1.808594 Z M 14.5625 4.683594 " fill-opacity="1" fill-rule="nonzero"/><g clip-path="url(#90586776c9)"><path fill="#26437e" d="M 35.28125 31.160156 L 30.101562 31.160156 C 29.941406 31.160156 29.804688 31.101562 29.691406 30.992188 C 29.582031 30.878906 29.523438 30.742188 29.523438 30.585938 C 29.523438 30.425781 29.582031 30.289062 29.691406 30.175781 C 29.804688 30.066406 29.941406 30.007812 30.101562 30.007812 L 35.28125 30.007812 C 35.4375 30.007812 35.574219 29.953125 35.6875 29.839844 C 35.800781 29.726562 35.855469 29.59375 35.855469 29.433594 L 35.855469 23.101562 C 35.851562 22.871094 35.804688 22.648438 35.714844 22.4375 C 35.625 22.222656 35.496094 22.035156 35.332031 21.875 C 35.167969 21.710938 34.976562 21.589844 34.761719 21.5 C 34.546875 21.414062 34.324219 21.375 34.09375 21.375 C 33.792969 21.371094 33.503906 21.308594 33.226562 21.1875 C 32.949219 21.066406 32.703125 20.902344 32.492188 20.6875 C 32.28125 20.472656 32.117188 20.222656 32 19.945312 C 31.886719 19.664062 31.828125 19.375 31.828125 19.074219 L 31.828125 17.921875 C 31.828125 17.761719 31.882812 17.628906 31.996094 17.515625 C 32.109375 17.402344 32.242188 17.347656 32.402344 17.347656 C 32.5625 17.347656 32.695312 17.402344 32.808594 17.515625 C 32.921875 17.628906 32.976562 17.761719 32.976562 17.921875 L 32.976562 19.074219 C 32.976562 19.222656 33.007812 19.371094 33.066406 19.507812 C 33.121094 19.648438 33.203125 19.773438 33.308594 19.878906 C 33.417969 19.988281 33.539062 20.070312 33.675781 20.128906 C 33.816406 20.191406 33.960938 20.222656 34.109375 20.222656 C 34.492188 20.222656 34.863281 20.296875 35.214844 20.441406 C 35.570312 20.585938 35.882812 20.792969 36.15625 21.0625 C 36.425781 21.332031 36.636719 21.644531 36.785156 22 C 36.929688 22.351562 37.003906 22.71875 37.007812 23.101562 L 37.007812 29.433594 C 37.007812 29.660156 36.960938 29.882812 36.875 30.09375 C 36.789062 30.304688 36.664062 30.492188 36.5 30.652344 C 36.339844 30.816406 36.152344 30.941406 35.941406 31.027344 C 35.730469 31.117188 35.507812 31.160156 35.28125 31.160156 Z M 35.28125 31.160156 " fill-opacity="1" fill-rule="nonzero"/></g><path fill="#26437e" d="M 33.554688 18.496094 L 30.101562 18.496094 C 29.941406 18.496094 29.804688 18.441406 29.691406 18.328125 C 29.582031 18.21875 29.523438 18.082031 29.523438 17.921875 L 29.523438 15.621094 C 29.523438 15.460938 29.582031 15.324219 29.691406 15.214844 C 29.804688 15.101562 29.941406 15.042969 30.101562 15.042969 L 32.402344 15.042969 C 32.632812 15.042969 32.851562 15.089844 33.0625 15.175781 C 33.273438 15.265625 33.460938 15.386719 33.625 15.550781 C 33.785156 15.710938 33.910156 15.898438 33.996094 16.109375 C 34.085938 16.320312 34.128906 16.542969 34.128906 16.769531 L 34.128906 17.921875 C 34.128906 18.082031 34.074219 18.21875 33.960938 18.328125 C 33.847656 18.441406 33.710938 18.496094 33.554688 18.496094 Z M 30.675781 17.347656 L 32.976562 17.347656 L 32.976562 16.769531 C 32.976562 16.613281 32.921875 16.476562 32.808594 16.363281 C 32.695312 16.253906 32.5625 16.195312 32.402344 16.195312 L 30.675781 16.195312 Z M 30.675781 17.347656 " fill-opacity="1" fill-rule="nonzero"/><path fill="#26437e" d="M 33.554688 28.859375 L 30.101562 28.859375 C 29.941406 28.859375 29.804688 28.800781 29.691406 28.6875 C 29.582031 28.578125 29.523438 28.441406 29.523438 28.28125 C 29.523438 28.121094 29.582031 27.988281 29.691406 27.875 C 29.804688 27.761719 29.941406 27.707031 30.101562 27.707031 L 32.976562 27.707031 L 32.976562 23.675781 L 30.101562 23.675781 C 29.941406 23.675781 29.804688 23.621094 29.691406 23.507812 C 29.582031 23.398438 29.523438 23.261719 29.523438 23.101562 C 29.523438 22.941406 29.582031 22.808594 29.691406 22.695312 C 29.804688 22.582031 29.941406 22.527344 30.101562 22.527344 L 33.554688 22.527344 C 33.710938 22.527344 33.847656 22.582031 33.960938 22.695312 C 34.074219 22.808594 34.128906 22.941406 34.128906 23.101562 L 34.128906 28.28125 C 34.128906 28.441406 34.074219 28.578125 33.960938 28.6875 C 33.847656 28.800781 33.710938 28.859375 33.554688 28.859375 Z M 33.554688 28.859375 " fill-opacity="1" fill-rule="nonzero"/><path fill="#26437e" d="M 23.195312 21.949219 L 22.042969 21.949219 L 22.042969 13.316406 L 13.984375 13.316406 L 13.984375 20.800781 L 12.835938 20.800781 L 12.835938 12.742188 C 12.835938 12.582031 12.890625 12.449219 13.003906 12.335938 C 13.117188 12.222656 13.25 12.167969 13.410156 12.167969 L 22.617188 12.167969 C 22.777344 12.167969 22.914062 12.222656 23.023438 12.335938 C 23.136719 12.449219 23.195312 12.582031 23.195312 12.742188 Z M 23.195312 21.949219 " fill-opacity="1" fill-rule="nonzero"/></svg>