<svg xmlns="http://www.w3.org/2000/svg" xmlns:xlink="http://www.w3.org/1999/xlink" width="50" zoomAndPan="magnify" viewBox="0 0 37.5 37.499999" height="50" preserveAspectRatio="xMidYMid meet" version="1.0"><defs><clipPath id="80a4a56d5c"><path d="M 0 0 L 37.007812 0 L 37.007812 37.007812 L 0 37.007812 Z M 0 0 " clip-rule="nonzero"/></clipPath><clipPath id="958435fc34"><path d="M 23 12 L 27 12 L 27 37.007812 L 23 37.007812 Z M 23 12 " clip-rule="nonzero"/></clipPath><clipPath id="393092cbf2"><path d="M 10 17 L 14 17 L 14 37.007812 L 10 37.007812 Z M 10 17 " clip-rule="nonzero"/></clipPath><clipPath id="ab92119975"><path d="M 0 36 L 37.007812 36 L 37.007812 37.007812 L 0 37.007812 Z M 0 36 " clip-rule="nonzero"/></clipPath><clipPath id="edc4c34960"><path d="M 27 33 L 37.007812 33 L 37.007812 37.007812 L 27 37.007812 Z M 27 33 " clip-rule="nonzero"/></clipPath><clipPath id="56d05e06a5"><path d="M 0 33 L 10 33 L 10 37.007812 L 0 37.007812 Z M 0 33 " clip-rule="nonzero"/></clipPath></defs><g clip-path="url(#80a4a56d5c)"><path fill="#ffffff" d="M 0 0 L 37.007812 0 L 37.007812 37.007812 L 0 37.007812 Z M 0 0 " fill-opacity="1" fill-rule="nonzero"/><path fill="#ffffff" d="M 0 0 L 37.007812 0 L 37.007812 37.007812 L 0 37.007812 Z M 0 0 " fill-opacity="1" fill-rule="nonzero"/></g><g clip-path="url(#958435fc34)"><path fill="#26437e" d="M 26.507812 37.007812 L 24.242188 37.007812 C 24.140625 37.007812 24.050781 36.96875 23.976562 36.894531 C 23.902344 36.820312 23.867188 36.734375 23.867188 36.628906 L 24.191406 12.519531 C 24.191406 12.375 24.253906 12.269531 24.375 12.195312 C 24.5 12.125 24.628906 12.125 24.753906 12.195312 C 25.175781 12.421875 25.609375 12.445312 26.054688 12.269531 C 26.175781 12.222656 26.292969 12.238281 26.398438 12.308594 C 26.507812 12.382812 26.5625 12.488281 26.566406 12.621094 L 26.886719 36.628906 C 26.886719 36.734375 26.847656 36.820312 26.777344 36.894531 C 26.703125 36.96875 26.613281 37.007812 26.507812 37.007812 Z M 24.621094 36.25 L 26.132812 36.25 L 25.816406 13.097656 C 25.523438 13.140625 25.234375 13.128906 24.945312 13.058594 Z M 24.621094 36.25 " fill-opacity="1" fill-rule="nonzero"/></g><path fill="#26437e" d="M 16.921875 16.394531 C 16.570312 16.441406 16.292969 16.3125 16.097656 16.019531 C 16.007812 15.847656 15.992188 15.667969 16.046875 15.480469 C 16.300781 14.546875 18.3125 13.046875 20.171875 11.976562 C 21.210938 11.371094 22.300781 10.867188 23.433594 10.46875 C 23.558594 10.429688 23.667969 10.445312 23.773438 10.519531 C 23.878906 10.597656 23.929688 10.699219 23.929688 10.828125 C 23.929688 11.328125 24.125 11.730469 24.519531 12.042969 C 24.613281 12.117188 24.660156 12.210938 24.664062 12.328125 C 24.664062 12.449219 24.621094 12.546875 24.53125 12.625 C 23.636719 13.363281 22.679688 14.019531 21.667969 14.585938 C 20.582031 15.222656 19.441406 15.742188 18.25 16.144531 C 17.820312 16.292969 17.375 16.375 16.921875 16.394531 Z M 16.78125 15.640625 C 17.203125 15.738281 18.917969 15.289062 21.289062 13.933594 C 22.140625 13.457031 22.949219 12.917969 23.71875 12.316406 C 23.476562 12.027344 23.3125 11.699219 23.230469 11.328125 C 22.304688 11.6875 21.410156 12.117188 20.546875 12.617188 C 18.183594 13.972656 16.917969 15.222656 16.78125 15.632812 Z M 16.78125 15.640625 " fill-opacity="1" fill-rule="nonzero"/><path fill="#26437e" d="M 33.859375 16.476562 C 32.78125 16.476562 30.769531 15.585938 29.105469 14.613281 C 28.125 14.054688 27.203125 13.414062 26.335938 12.6875 C 26.242188 12.609375 26.195312 12.503906 26.203125 12.382812 C 26.210938 12.257812 26.261719 12.160156 26.367188 12.089844 C 26.789062 11.796875 27.007812 11.390625 27.023438 10.875 C 27.027344 10.746094 27.082031 10.644531 27.1875 10.574219 C 27.292969 10.5 27.40625 10.484375 27.527344 10.527344 C 28.605469 10.929688 29.636719 11.421875 30.625 12.011719 C 32.484375 13.097656 34.46875 14.617188 34.714844 15.558594 C 34.773438 15.75 34.753906 15.9375 34.652344 16.113281 C 34.550781 16.285156 34.402344 16.390625 34.203125 16.433594 C 34.09375 16.460938 33.976562 16.476562 33.859375 16.476562 Z M 27.160156 12.394531 C 27.898438 12.972656 28.671875 13.5 29.484375 13.972656 C 31.839844 15.34375 33.550781 15.816406 33.972656 15.722656 C 33.851562 15.3125 32.605469 14.050781 30.238281 12.667969 C 29.425781 12.1875 28.582031 11.769531 27.707031 11.40625 C 27.609375 11.78125 27.425781 12.109375 27.160156 12.394531 Z M 27.160156 12.394531 " fill-opacity="1" fill-rule="nonzero"/><path fill="#26437e" d="M 24.589844 9.484375 C 24.535156 9.488281 24.480469 9.472656 24.429688 9.449219 C 24.316406 9.394531 24.246094 9.304688 24.21875 9.183594 C 24 7.980469 23.898438 6.765625 23.917969 5.539062 C 23.917969 4.972656 23.988281 0 25.457031 0 C 26.921875 0 26.933594 4.988281 26.933594 5.558594 C 26.9375 6.757812 26.828125 7.945312 26.605469 9.125 C 26.582031 9.238281 26.519531 9.324219 26.414062 9.378906 C 26.304688 9.429688 26.199219 9.429688 26.089844 9.378906 C 25.640625 9.1875 25.199219 9.207031 24.765625 9.429688 C 24.710938 9.460938 24.652344 9.480469 24.589844 9.484375 Z M 25.453125 0.800781 C 25.15625 1.121094 24.695312 2.832031 24.671875 5.5625 C 24.660156 6.582031 24.730469 7.597656 24.882812 8.609375 C 25.234375 8.515625 25.585938 8.503906 25.941406 8.578125 C 26.097656 7.578125 26.175781 6.570312 26.175781 5.558594 C 26.191406 2.832031 25.742188 1.132812 25.453125 0.785156 Z M 26.554688 5.570312 Z M 26.554688 5.570312 " fill-opacity="1" fill-rule="nonzero"/><path fill="#26437e" d="M 25.480469 13.121094 C 25.097656 13.117188 24.734375 13.023438 24.394531 12.839844 C 24.273438 12.777344 24.15625 12.703125 24.050781 12.617188 C 23.898438 12.496094 23.765625 12.359375 23.648438 12.207031 C 23.535156 12.054688 23.4375 11.886719 23.363281 11.710938 C 23.289062 11.53125 23.234375 11.347656 23.207031 11.160156 C 23.175781 10.96875 23.171875 10.777344 23.191406 10.585938 C 23.210938 10.394531 23.25 10.207031 23.316406 10.027344 C 23.382812 9.84375 23.46875 9.675781 23.578125 9.515625 C 23.683594 9.355469 23.8125 9.210938 23.957031 9.085938 C 24.097656 8.957031 24.257812 8.847656 24.429688 8.761719 C 24.605469 8.667969 24.789062 8.601562 24.980469 8.558594 C 25.175781 8.515625 25.371094 8.496094 25.566406 8.503906 C 25.765625 8.511719 25.960938 8.542969 26.148438 8.597656 C 26.339844 8.65625 26.519531 8.734375 26.6875 8.839844 C 26.855469 8.941406 27.011719 9.0625 27.148438 9.207031 C 27.285156 9.347656 27.402344 9.507812 27.5 9.679688 C 27.597656 9.851562 27.667969 10.035156 27.71875 10.226562 C 27.769531 10.417969 27.792969 10.613281 27.792969 10.8125 C 27.792969 10.84375 27.792969 10.875 27.792969 10.90625 C 27.765625 11.671875 27.4375 12.273438 26.8125 12.710938 C 26.664062 12.8125 26.503906 12.894531 26.339844 12.964844 C 26.0625 13.070312 25.777344 13.121094 25.480469 13.121094 Z M 25.480469 9.269531 C 25.226562 9.269531 24.988281 9.324219 24.765625 9.445312 C 24.507812 9.574219 24.304688 9.765625 24.152344 10.011719 C 24 10.257812 23.925781 10.523438 23.925781 10.8125 C 23.925781 11.101562 24 11.371094 24.152344 11.617188 C 24.304688 11.863281 24.507812 12.050781 24.765625 12.183594 C 25.1875 12.40625 25.625 12.433594 26.070312 12.257812 C 26.183594 12.210938 26.289062 12.15625 26.386719 12.085938 C 26.8125 11.796875 27.03125 11.390625 27.042969 10.875 C 27.039062 10.851562 27.039062 10.828125 27.042969 10.804688 C 27.042969 10.597656 27.003906 10.402344 26.925781 10.210938 C 26.847656 10.019531 26.738281 9.851562 26.589844 9.707031 C 26.445312 9.5625 26.28125 9.449219 26.089844 9.371094 C 25.898438 9.292969 25.703125 9.25 25.496094 9.25 Z M 25.480469 9.269531 " fill-opacity="1" fill-rule="nonzero"/><g clip-path="url(#393092cbf2)"><path fill="#26437e" d="M 12.714844 37.007812 L 10.449219 37.007812 C 10.34375 37.007812 10.253906 36.96875 10.183594 36.894531 C 10.109375 36.820312 10.070312 36.734375 10.070312 36.628906 L 10.390625 18.183594 C 10.394531 18.042969 10.457031 17.9375 10.578125 17.863281 C 10.703125 17.792969 10.828125 17.792969 10.953125 17.863281 C 11.378906 18.085938 11.8125 18.109375 12.257812 17.9375 C 12.316406 17.914062 12.375 17.90625 12.4375 17.910156 C 12.496094 17.917969 12.554688 17.9375 12.605469 17.972656 C 12.65625 18.007812 12.699219 18.050781 12.726562 18.105469 C 12.757812 18.160156 12.773438 18.21875 12.773438 18.28125 L 13.09375 36.628906 C 13.09375 36.734375 13.058594 36.824219 12.984375 36.902344 C 12.90625 36.972656 12.816406 37.007812 12.714844 37.007812 Z M 10.828125 36.25 L 12.316406 36.25 L 12.011719 18.761719 C 11.714844 18.804688 11.421875 18.792969 11.132812 18.722656 Z M 10.828125 36.25 " fill-opacity="1" fill-rule="nonzero"/></g><path fill="#26437e" d="M 3.128906 22.058594 C 2.777344 22.105469 2.5 21.980469 2.304688 21.683594 C 1.585938 20.417969 5.886719 17.90625 6.378906 17.632812 C 7.417969 17.019531 8.507812 16.519531 9.644531 16.121094 C 9.765625 16.082031 9.878906 16.097656 9.984375 16.175781 C 10.085938 16.25 10.140625 16.351562 10.140625 16.480469 C 10.132812 16.980469 10.328125 17.382812 10.722656 17.6875 C 10.816406 17.761719 10.867188 17.859375 10.867188 17.976562 C 10.871094 18.097656 10.824219 18.195312 10.734375 18.273438 C 9.84375 19.015625 8.890625 19.671875 7.878906 20.242188 C 6.796875 20.875 5.664062 21.394531 4.480469 21.796875 C 4.042969 21.949219 3.59375 22.039062 3.128906 22.058594 Z M 2.988281 21.304688 C 3.410156 21.402344 5.128906 20.953125 7.519531 19.597656 C 8.367188 19.121094 9.175781 18.582031 9.941406 17.976562 C 9.691406 17.691406 9.523438 17.363281 9.441406 16.992188 C 8.511719 17.351562 7.613281 17.78125 6.75 18.28125 C 4.390625 19.636719 3.125 20.882812 2.988281 21.296875 Z M 2.988281 21.304688 " fill-opacity="1" fill-rule="nonzero"/><path fill="#26437e" d="M 20.042969 22.136719 C 18.535156 22.136719 15.703125 20.507812 15.3125 20.277344 C 14.332031 19.714844 13.410156 19.070312 12.539062 18.347656 C 12.445312 18.269531 12.402344 18.167969 12.410156 18.042969 C 12.414062 17.917969 12.46875 17.820312 12.570312 17.75 C 12.992188 17.457031 13.207031 17.054688 13.214844 16.539062 C 13.21875 16.410156 13.273438 16.3125 13.378906 16.238281 C 13.484375 16.164062 13.601562 16.148438 13.722656 16.191406 C 14.796875 16.59375 15.828125 17.089844 16.8125 17.675781 C 17.300781 17.960938 21.582031 20.507812 20.847656 21.777344 C 20.648438 22.050781 20.382812 22.171875 20.042969 22.136719 Z M 20.535156 21.589844 Z M 13.359375 18.054688 C 14.101562 18.636719 14.878906 19.164062 15.695312 19.636719 C 18.046875 21.007812 19.761719 21.480469 20.183594 21.386719 C 20.054688 20.976562 18.808594 19.710938 16.449219 18.332031 C 15.636719 17.851562 14.789062 17.433594 13.914062 17.074219 C 13.816406 17.449219 13.636719 17.773438 13.371094 18.054688 Z M 13.359375 18.054688 " fill-opacity="1" fill-rule="nonzero"/><path fill="#26437e" d="M 10.800781 15.148438 C 10.742188 15.152344 10.6875 15.136719 10.636719 15.113281 C 10.523438 15.058594 10.457031 14.96875 10.429688 14.847656 C 10.210938 13.644531 10.109375 12.429688 10.125 11.207031 C 10.128906 10.636719 10.195312 5.664062 11.660156 5.664062 C 13.125 5.664062 13.140625 10.652344 13.136719 11.222656 C 13.140625 12.421875 13.03125 13.609375 12.8125 14.789062 C 12.789062 14.90625 12.722656 14.992188 12.617188 15.046875 C 12.507812 15.097656 12.402344 15.097656 12.296875 15.046875 C 11.847656 14.859375 11.40625 14.875 10.972656 15.097656 C 10.917969 15.128906 10.863281 15.144531 10.800781 15.148438 Z M 11.65625 6.464844 C 11.363281 6.785156 10.902344 8.496094 10.878906 11.226562 C 10.871094 12.246094 10.941406 13.265625 11.089844 14.273438 C 11.441406 14.179688 11.792969 14.167969 12.148438 14.238281 C 12.304688 13.238281 12.382812 12.230469 12.382812 11.21875 C 12.398438 8.496094 11.949219 6.796875 11.65625 6.449219 Z M 12.757812 11.234375 Z M 12.757812 11.234375 " fill-opacity="1" fill-rule="nonzero"/><path fill="#26437e" d="M 11.707031 18.785156 C 11.3125 18.785156 10.941406 18.691406 10.597656 18.503906 C 10.472656 18.4375 10.355469 18.359375 10.25 18.273438 C 9.667969 17.816406 9.378906 17.214844 9.382812 16.476562 C 9.382812 16.171875 9.441406 15.875 9.558594 15.59375 C 9.675781 15.3125 9.84375 15.0625 10.058594 14.847656 C 10.273438 14.628906 10.523438 14.464844 10.804688 14.347656 C 11.089844 14.230469 11.382812 14.171875 11.6875 14.171875 C 11.992188 14.171875 12.285156 14.230469 12.570312 14.347656 C 12.851562 14.464844 13.101562 14.628906 13.316406 14.847656 C 13.53125 15.0625 13.699219 15.3125 13.816406 15.59375 C 13.933594 15.875 13.992188 16.171875 13.992188 16.476562 C 13.992188 16.503906 13.992188 16.535156 13.992188 16.566406 C 13.964844 17.332031 13.636719 17.929688 13.003906 18.359375 C 12.859375 18.46875 12.699219 18.550781 12.53125 18.617188 C 12.265625 18.726562 11.992188 18.78125 11.707031 18.785156 Z M 11.707031 14.933594 C 11.453125 14.933594 11.214844 14.992188 10.992188 15.109375 C 10.734375 15.242188 10.53125 15.429688 10.382812 15.679688 C 10.230469 15.925781 10.15625 16.195312 10.15625 16.484375 C 10.152344 16.984375 10.347656 17.386719 10.742188 17.695312 C 10.816406 17.757812 10.898438 17.808594 10.980469 17.855469 C 11.402344 18.070312 11.832031 18.09375 12.273438 17.921875 C 12.382812 17.878906 12.488281 17.824219 12.585938 17.753906 C 13.003906 17.457031 13.210938 17.050781 13.214844 16.539062 C 13.214844 16.519531 13.214844 16.496094 13.214844 16.476562 C 13.214844 16.273438 13.175781 16.082031 13.101562 15.894531 C 13.023438 15.707031 12.914062 15.542969 12.773438 15.398438 C 12.632812 15.253906 12.46875 15.144531 12.285156 15.0625 C 12.101562 14.980469 11.90625 14.941406 11.707031 14.933594 Z M 11.707031 14.933594 " fill-opacity="1" fill-rule="nonzero"/><g clip-path="url(#ab92119975)"><path fill="#26437e" d="M 36.628906 37.007812 L 0.378906 37.007812 C 0.273438 37.007812 0.183594 36.96875 0.109375 36.894531 C 0.0351562 36.820312 0 36.734375 0 36.628906 C 0 36.523438 0.0351562 36.4375 0.109375 36.363281 C 0.183594 36.289062 0.273438 36.25 0.378906 36.25 L 36.628906 36.25 C 36.734375 36.25 36.820312 36.289062 36.894531 36.363281 C 36.96875 36.4375 37.007812 36.523438 37.007812 36.628906 C 37.007812 36.734375 36.96875 36.820312 36.894531 36.894531 C 36.820312 36.96875 36.734375 37.007812 36.628906 37.007812 Z M 36.628906 37.007812 " fill-opacity="1" fill-rule="nonzero"/></g><path fill="#26437e" d="M 3.777344 11.523438 L 1.929688 11.523438 C 1.824219 11.523438 1.738281 11.488281 1.664062 11.414062 C 1.589844 11.339844 1.550781 11.25 1.550781 11.148438 C 1.550781 11.042969 1.589844 10.953125 1.664062 10.878906 C 1.738281 10.804688 1.824219 10.769531 1.929688 10.769531 L 3.777344 10.769531 C 3.878906 10.769531 3.96875 10.804688 4.042969 10.878906 C 4.117188 10.953125 4.152344 11.042969 4.152344 11.148438 C 4.152344 11.25 4.117188 11.339844 4.042969 11.414062 C 3.96875 11.488281 3.878906 11.523438 3.777344 11.523438 Z M 3.777344 11.523438 " fill-opacity="1" fill-rule="nonzero"/><path fill="#26437e" d="M 7.792969 11.511719 L 5.371094 11.511719 C 5.265625 11.511719 5.175781 11.472656 5.101562 11.398438 C 5.027344 11.324219 4.992188 11.238281 4.992188 11.132812 C 4.992188 11.027344 5.027344 10.9375 5.101562 10.863281 C 5.175781 10.792969 5.265625 10.753906 5.371094 10.753906 L 7.792969 10.753906 C 7.941406 10.757812 8.070312 10.710938 8.179688 10.613281 C 8.292969 10.515625 8.355469 10.394531 8.371094 10.246094 C 8.390625 10.101562 8.355469 9.96875 8.269531 9.847656 C 8.183594 9.726562 8.070312 9.652344 7.925781 9.621094 C 7.785156 9.589844 7.648438 9.609375 7.519531 9.679688 C 7.390625 9.753906 7.304688 9.859375 7.257812 10 C 7.222656 10.097656 7.15625 10.167969 7.0625 10.210938 C 6.96875 10.257812 6.871094 10.261719 6.773438 10.222656 C 6.675781 10.1875 6.605469 10.121094 6.558594 10.027344 C 6.515625 9.933594 6.511719 9.835938 6.546875 9.738281 C 6.664062 9.425781 6.871094 9.1875 7.167969 9.03125 C 7.464844 8.871094 7.773438 8.832031 8.101562 8.910156 C 8.425781 8.988281 8.6875 9.164062 8.878906 9.441406 C 9.070312 9.714844 9.144531 10.019531 9.105469 10.355469 C 9.066406 10.6875 8.921875 10.964844 8.671875 11.1875 C 8.421875 11.410156 8.128906 11.523438 7.792969 11.523438 Z M 7.792969 11.511719 " fill-opacity="1" fill-rule="nonzero"/><path fill="#26437e" d="M 7.035156 15.570312 C 6.753906 15.570312 6.496094 15.488281 6.265625 15.324219 C 6.035156 15.164062 5.875 14.949219 5.78125 14.683594 C 5.746094 14.582031 5.753906 14.488281 5.796875 14.394531 C 5.84375 14.300781 5.914062 14.234375 6.011719 14.199219 C 6.113281 14.164062 6.207031 14.171875 6.300781 14.214844 C 6.394531 14.261719 6.460938 14.335938 6.496094 14.433594 C 6.542969 14.570312 6.628906 14.675781 6.757812 14.746094 C 6.882812 14.816406 7.015625 14.835938 7.160156 14.804688 C 7.300781 14.773438 7.414062 14.699219 7.5 14.578125 C 7.582031 14.460938 7.617188 14.328125 7.601562 14.183594 C 7.585938 14.039062 7.523438 13.921875 7.414062 13.824219 C 7.308594 13.726562 7.179688 13.675781 7.035156 13.675781 L 3.101562 13.675781 C 2.996094 13.675781 2.90625 13.640625 2.832031 13.566406 C 2.757812 13.492188 2.722656 13.402344 2.722656 13.300781 C 2.722656 13.195312 2.757812 13.105469 2.832031 13.03125 C 2.90625 12.957031 2.996094 12.921875 3.101562 12.921875 L 7.035156 12.921875 C 7.21875 12.90625 7.398438 12.929688 7.570312 12.992188 C 7.746094 13.054688 7.902344 13.144531 8.035156 13.273438 C 8.171875 13.398438 8.277344 13.542969 8.351562 13.714844 C 8.421875 13.882812 8.460938 14.058594 8.460938 14.242188 C 8.460938 14.429688 8.421875 14.605469 8.351562 14.773438 C 8.277344 14.941406 8.171875 15.089844 8.035156 15.214844 C 7.902344 15.339844 7.746094 15.433594 7.570312 15.496094 C 7.398438 15.554688 7.21875 15.578125 7.035156 15.566406 Z M 7.035156 15.570312 " fill-opacity="1" fill-rule="nonzero"/><path fill="#26437e" d="M 1.644531 13.671875 L 0.753906 13.671875 C 0.652344 13.671875 0.5625 13.636719 0.488281 13.5625 C 0.414062 13.488281 0.378906 13.398438 0.378906 13.296875 C 0.378906 13.191406 0.414062 13.101562 0.488281 13.027344 C 0.5625 12.957031 0.652344 12.917969 0.753906 12.917969 L 1.652344 12.917969 C 1.757812 12.917969 1.847656 12.957031 1.921875 13.027344 C 1.996094 13.101562 2.03125 13.191406 2.03125 13.296875 C 2.03125 13.398438 1.996094 13.488281 1.921875 13.5625 C 1.847656 13.636719 1.757812 13.671875 1.652344 13.671875 Z M 1.644531 13.671875 " fill-opacity="1" fill-rule="nonzero"/><path fill="#26437e" d="M 13.972656 3.332031 L 12.125 3.332031 C 12.019531 3.332031 11.933594 3.292969 11.859375 3.21875 C 11.785156 3.144531 11.746094 3.058594 11.746094 2.953125 C 11.746094 2.847656 11.785156 2.757812 11.859375 2.6875 C 11.933594 2.613281 12.019531 2.574219 12.125 2.574219 L 13.972656 2.574219 C 14.074219 2.574219 14.164062 2.613281 14.238281 2.6875 C 14.3125 2.757812 14.347656 2.847656 14.347656 2.953125 C 14.347656 3.058594 14.3125 3.144531 14.238281 3.21875 C 14.164062 3.292969 14.074219 3.332031 13.972656 3.332031 Z M 13.972656 3.332031 " fill-opacity="1" fill-rule="nonzero"/><path fill="#26437e" d="M 20.820312 3.3125 L 15.566406 3.3125 C 15.460938 3.3125 15.371094 3.273438 15.296875 3.199219 C 15.226562 3.128906 15.1875 3.039062 15.1875 2.933594 C 15.1875 2.828125 15.226562 2.742188 15.296875 2.667969 C 15.371094 2.59375 15.460938 2.554688 15.566406 2.554688 L 20.820312 2.554688 C 20.96875 2.558594 21.09375 2.507812 21.203125 2.414062 C 21.3125 2.316406 21.375 2.195312 21.390625 2.050781 C 21.40625 1.90625 21.375 1.773438 21.289062 1.65625 C 21.207031 1.539062 21.09375 1.460938 20.949219 1.429688 C 20.808594 1.398438 20.675781 1.417969 20.546875 1.488281 C 20.421875 1.558594 20.332031 1.664062 20.285156 1.800781 C 20.246094 1.898438 20.175781 1.96875 20.078125 2.007812 C 19.980469 2.050781 19.882812 2.050781 19.785156 2.011719 C 19.6875 1.96875 19.617188 1.902344 19.578125 1.804688 C 19.535156 1.707031 19.535156 1.609375 19.574219 1.511719 C 19.691406 1.195312 19.898438 0.960938 20.195312 0.800781 C 20.492188 0.644531 20.800781 0.605469 21.128906 0.683594 C 21.453125 0.761719 21.714844 0.9375 21.90625 1.210938 C 22.097656 1.488281 22.175781 1.792969 22.136719 2.125 C 22.097656 2.457031 21.953125 2.738281 21.699219 2.960938 C 21.449219 3.183594 21.15625 3.296875 20.820312 3.296875 Z M 20.820312 3.3125 " fill-opacity="1" fill-rule="nonzero"/><path fill="#26437e" d="M 20.0625 7.375 C 19.78125 7.375 19.523438 7.292969 19.292969 7.128906 C 19.0625 6.964844 18.902344 6.75 18.808594 6.484375 C 18.773438 6.386719 18.78125 6.289062 18.824219 6.195312 C 18.871094 6.101562 18.941406 6.035156 19.042969 6.003906 C 19.140625 5.96875 19.234375 5.972656 19.332031 6.019531 C 19.425781 6.0625 19.488281 6.136719 19.523438 6.234375 C 19.570312 6.371094 19.65625 6.476562 19.785156 6.546875 C 19.910156 6.617188 20.042969 6.636719 20.1875 6.605469 C 20.328125 6.574219 20.441406 6.5 20.527344 6.382812 C 20.609375 6.261719 20.644531 6.132812 20.628906 5.988281 C 20.613281 5.84375 20.550781 5.722656 20.441406 5.625 C 20.335938 5.527344 20.207031 5.480469 20.0625 5.480469 L 16.128906 5.480469 C 16.023438 5.480469 15.933594 5.441406 15.859375 5.367188 C 15.789062 5.292969 15.75 5.207031 15.75 5.101562 C 15.75 4.996094 15.789062 4.910156 15.859375 4.835938 C 15.933594 4.761719 16.023438 4.722656 16.128906 4.722656 L 20.0625 4.722656 C 20.402344 4.761719 20.683594 4.90625 20.910156 5.15625 C 21.136719 5.410156 21.25 5.707031 21.25 6.046875 C 21.25 6.386719 21.136719 6.679688 20.910156 6.933594 C 20.683594 7.1875 20.402344 7.332031 20.0625 7.367188 Z M 20.0625 7.375 " fill-opacity="1" fill-rule="nonzero"/><path fill="#26437e" d="M 14.675781 5.476562 L 13.777344 5.476562 C 13.671875 5.476562 13.582031 5.4375 13.507812 5.363281 C 13.433594 5.292969 13.398438 5.203125 13.398438 5.097656 C 13.398438 4.992188 13.433594 4.90625 13.507812 4.832031 C 13.582031 4.757812 13.671875 4.71875 13.777344 4.71875 L 14.675781 4.71875 C 14.777344 4.71875 14.867188 4.757812 14.941406 4.832031 C 15.015625 4.90625 15.050781 4.992188 15.050781 5.097656 C 15.050781 5.203125 15.015625 5.292969 14.941406 5.363281 C 14.867188 5.4375 14.777344 5.476562 14.675781 5.476562 Z M 14.675781 5.476562 " fill-opacity="1" fill-rule="nonzero"/><g clip-path="url(#edc4c34960)"><path fill="#26437e" d="M 36.628906 37.007812 L 27.707031 37.007812 C 27.601562 37.007812 27.511719 36.96875 27.4375 36.894531 C 27.363281 36.820312 27.328125 36.734375 27.328125 36.628906 C 27.328125 36.152344 27.421875 35.695312 27.601562 35.257812 C 27.785156 34.820312 28.042969 34.429688 28.378906 34.09375 C 28.714844 33.757812 29.101562 33.5 29.539062 33.316406 C 29.980469 33.132812 30.4375 33.042969 30.910156 33.042969 L 31.003906 33.042969 C 31.34375 33.046875 31.679688 33.105469 32.003906 33.210938 C 32.621094 33.40625 33.148438 33.742188 33.578125 34.226562 C 33.859375 34.128906 34.152344 34.078125 34.453125 34.078125 C 34.792969 34.078125 35.117188 34.140625 35.429688 34.269531 C 35.742188 34.398438 36.019531 34.585938 36.257812 34.824219 C 36.5 35.0625 36.683594 35.339844 36.8125 35.652344 C 36.941406 35.964844 37.007812 36.289062 37.007812 36.628906 C 37.007812 36.734375 36.96875 36.820312 36.894531 36.894531 C 36.820312 36.96875 36.734375 37.007812 36.628906 37.007812 Z M 28.109375 36.25 L 36.210938 36.25 C 36.148438 35.980469 36.035156 35.734375 35.859375 35.515625 C 35.6875 35.296875 35.476562 35.128906 35.222656 35.007812 C 34.972656 34.890625 34.707031 34.832031 34.429688 34.835938 C 34.152344 34.839844 33.886719 34.902344 33.636719 35.027344 C 33.449219 35.121094 33.292969 35.085938 33.167969 34.917969 C 32.804688 34.441406 32.339844 34.113281 31.773438 33.933594 C 31.511719 33.847656 31.242188 33.804688 30.964844 33.800781 L 30.90625 33.800781 C 30.566406 33.800781 30.234375 33.863281 29.917969 33.984375 C 29.597656 34.105469 29.308594 34.277344 29.050781 34.503906 C 28.792969 34.726562 28.585938 34.992188 28.421875 35.292969 C 28.261719 35.59375 28.15625 35.914062 28.109375 36.25 Z M 28.109375 36.25 " fill-opacity="1" fill-rule="nonzero"/></g><path fill="#26437e" d="M 32.574219 35.917969 C 32.425781 35.917969 32.316406 35.855469 32.246094 35.730469 C 32.171875 35.605469 32.171875 35.480469 32.246094 35.351562 C 32.472656 34.960938 32.785156 34.648438 33.179688 34.421875 C 33.574219 34.195312 34 34.082031 34.453125 34.078125 C 34.558594 34.078125 34.648438 34.117188 34.722656 34.191406 C 34.792969 34.265625 34.832031 34.351562 34.832031 34.457031 C 34.832031 34.5625 34.792969 34.652344 34.722656 34.726562 C 34.648438 34.796875 34.558594 34.835938 34.453125 34.835938 C 34.132812 34.835938 33.835938 34.917969 33.558594 35.074219 C 33.28125 35.234375 33.058594 35.453125 32.898438 35.730469 C 32.824219 35.855469 32.71875 35.917969 32.574219 35.917969 Z M 32.574219 35.917969 " fill-opacity="1" fill-rule="nonzero"/><g clip-path="url(#56d05e06a5)"><path fill="#26437e" d="M 9.300781 37.007812 L 0.378906 37.007812 C 0.273438 37.007812 0.183594 36.96875 0.109375 36.894531 C 0.0351562 36.820312 0 36.734375 0 36.628906 C 0 36.289062 0.0664062 35.964844 0.195312 35.652344 C 0.324219 35.339844 0.507812 35.066406 0.75 34.828125 C 0.988281 34.585938 1.265625 34.402344 1.578125 34.273438 C 1.890625 34.144531 2.214844 34.078125 2.550781 34.078125 C 2.851562 34.082031 3.144531 34.132812 3.429688 34.230469 C 3.863281 33.75 4.386719 33.417969 5.007812 33.230469 C 5.332031 33.125 5.664062 33.066406 6.003906 33.058594 L 6.09375 33.058594 C 6.570312 33.0625 7.027344 33.152344 7.464844 33.335938 C 7.90625 33.519531 8.292969 33.777344 8.628906 34.113281 C 8.964844 34.449219 9.222656 34.835938 9.40625 35.277344 C 9.585938 35.714844 9.679688 36.171875 9.679688 36.648438 C 9.671875 36.75 9.632812 36.832031 9.5625 36.902344 C 9.488281 36.972656 9.402344 37.007812 9.300781 37.007812 Z M 0.796875 36.25 L 8.898438 36.25 C 8.851562 35.914062 8.746094 35.589844 8.585938 35.289062 C 8.421875 34.988281 8.210938 34.726562 7.957031 34.5 C 7.699219 34.273438 7.410156 34.101562 7.089844 33.980469 C 6.769531 33.859375 6.4375 33.796875 6.09375 33.796875 L 6.042969 33.796875 C 5.769531 33.800781 5.503906 33.84375 5.246094 33.929688 C 4.675781 34.109375 4.210938 34.4375 3.847656 34.914062 C 3.722656 35.082031 3.5625 35.121094 3.375 35.023438 C 3.125 34.898438 2.863281 34.832031 2.582031 34.828125 C 2.304688 34.824219 2.035156 34.882812 1.785156 35.003906 C 1.53125 35.121094 1.320312 35.292969 1.144531 35.511719 C 0.972656 35.730469 0.855469 35.976562 0.796875 36.25 Z M 0.796875 36.25 " fill-opacity="1" fill-rule="nonzero"/></g><path fill="#26437e" d="M 4.433594 35.917969 C 4.289062 35.917969 4.179688 35.855469 4.109375 35.730469 C 3.945312 35.453125 3.726562 35.234375 3.449219 35.074219 C 3.171875 34.917969 2.871094 34.835938 2.550781 34.835938 C 2.449219 34.835938 2.359375 34.796875 2.285156 34.726562 C 2.210938 34.652344 2.175781 34.5625 2.175781 34.457031 C 2.175781 34.351562 2.210938 34.265625 2.285156 34.191406 C 2.359375 34.117188 2.449219 34.078125 2.550781 34.078125 C 3.007812 34.082031 3.433594 34.195312 3.828125 34.421875 C 4.222656 34.648438 4.53125 34.960938 4.761719 35.351562 C 4.835938 35.480469 4.835938 35.605469 4.761719 35.730469 C 4.6875 35.855469 4.578125 35.917969 4.433594 35.917969 Z M 4.433594 35.917969 " fill-opacity="1" fill-rule="nonzero"/></svg>