<svg xmlns="http://www.w3.org/2000/svg" xmlns:xlink="http://www.w3.org/1999/xlink" width="50" zoomAndPan="magnify" viewBox="0 0 37.5 37.499999" height="50" preserveAspectRatio="xMidYMid meet" version="1.0"><defs><clipPath id="822ad7d572"><path d="M 0 0 L 37.007812 0 L 37.007812 37.007812 L 0 37.007812 Z M 0 0 " clip-rule="nonzero"/></clipPath><clipPath id="bcf90739b5"><path d="M 0 9 L 37.007812 9 L 37.007812 37.007812 L 0 37.007812 Z M 0 9 " clip-rule="nonzero"/></clipPath></defs><g clip-path="url(#822ad7d572)"><path fill="#ffffff" d="M 0 0 L 37.007812 0 L 37.007812 37.007812 L 0 37.007812 Z M 0 0 " fill-opacity="1" fill-rule="nonzero"/><path fill="#ffffff" d="M 0 0 L 37.007812 0 L 37.007812 37.007812 L 0 37.007812 Z M 0 0 " fill-opacity="1" fill-rule="nonzero"/></g><path fill="#26437e" d="M 3.699219 33.304688 L 2.46875 33.304688 L 2.46875 34.539062 L 3.699219 34.539062 L 3.699219 33.304688 " fill-opacity="1" fill-rule="nonzero"/><path fill="#26437e" d="M 6.167969 33.304688 L 4.933594 33.304688 L 4.933594 34.539062 L 6.167969 34.539062 L 6.167969 33.304688 " fill-opacity="1" fill-rule="nonzero"/><path fill="#26437e" d="M 8.636719 33.304688 L 7.402344 33.304688 L 7.402344 34.539062 L 8.636719 34.539062 L 8.636719 33.304688 " fill-opacity="1" fill-rule="nonzero"/><path fill="#26437e" d="M 23.4375 33.304688 L 22.203125 33.304688 L 22.203125 34.539062 L 23.4375 34.539062 L 23.4375 33.304688 " fill-opacity="1" fill-rule="nonzero"/><path fill="#26437e" d="M 25.90625 33.304688 L 24.671875 33.304688 L 24.671875 34.539062 L 25.90625 34.539062 L 25.90625 33.304688 " fill-opacity="1" fill-rule="nonzero"/><path fill="#26437e" d="M 28.371094 33.304688 L 27.136719 33.304688 L 27.136719 34.539062 L 28.371094 34.539062 L 28.371094 33.304688 " fill-opacity="1" fill-rule="nonzero"/><path fill="#26437e" d="M 33.304688 33.304688 L 32.074219 33.304688 L 32.074219 34.539062 L 33.304688 34.539062 L 33.304688 33.304688 " fill-opacity="1" fill-rule="nonzero"/><g clip-path="url(#bcf90739b5)"><path fill="#26437e" d="M 35.15625 30.839844 L 30.839844 30.839844 L 30.839844 29.605469 L 35.15625 29.605469 C 35.496094 29.605469 35.773438 29.882812 35.773438 30.222656 C 35.773438 30.5625 35.496094 30.839844 35.15625 30.839844 Z M 34.539062 35.773438 L 30.839844 35.773438 L 30.839844 32.074219 L 34.539062 32.074219 Z M 30.839844 27.136719 L 34.539062 27.136719 L 34.539062 28.371094 L 30.839844 28.371094 Z M 29.605469 30.839844 L 20.96875 30.839844 L 20.96875 26.882812 L 29.605469 22.027344 Z M 29.605469 35.773438 L 20.96875 35.773438 L 20.96875 32.074219 L 29.605469 32.074219 Z M 20.664062 20.4375 C 20.476562 20.328125 20.242188 20.328125 20.050781 20.433594 L 18.746094 21.167969 L 18.933594 15.417969 L 23.007812 15.417969 L 23.296875 24.15625 L 20.96875 25.464844 L 20.96875 20.96875 C 20.96875 20.75 20.855469 20.546875 20.664062 20.4375 Z M 19.738281 26.519531 L 19.738281 28.988281 L 11.101562 28.988281 L 11.101562 26.882812 L 19.738281 22.027344 Z M 19.738281 35.773438 L 17.269531 35.773438 L 17.269531 33.304688 C 17.269531 32.964844 16.992188 32.6875 16.652344 32.6875 L 14.1875 32.6875 C 13.847656 32.6875 13.570312 32.964844 13.570312 33.304688 L 13.570312 35.773438 L 11.101562 35.773438 L 11.101562 30.222656 L 19.738281 30.222656 Z M 16.035156 35.773438 L 14.800781 35.773438 L 14.800781 33.921875 L 16.035156 33.921875 Z M 10.796875 20.4375 C 10.609375 20.328125 10.375 20.328125 10.183594 20.433594 L 8.246094 21.523438 L 8.449219 15.417969 L 12.519531 15.417969 L 12.820312 24.496094 L 11.101562 25.464844 L 11.101562 20.96875 C 11.101562 20.75 10.984375 20.546875 10.796875 20.4375 Z M 9.867188 26.519531 L 9.867188 30.839844 L 1.234375 30.839844 L 1.234375 26.882812 L 9.867188 22.027344 Z M 9.867188 35.773438 L 1.234375 35.773438 L 1.234375 32.074219 L 9.867188 32.074219 Z M 8.535156 12.953125 L 12.4375 12.953125 L 12.453125 13.394531 L 12.480469 14.1875 L 8.492188 14.1875 Z M 8.617188 10.484375 L 12.355469 10.484375 L 12.394531 11.71875 L 8.574219 11.71875 Z M 19.015625 13.070312 L 19.019531 12.953125 L 22.921875 12.953125 L 22.929688 13.230469 L 22.964844 14.1875 L 18.976562 14.1875 Z M 19.101562 10.484375 L 22.839844 10.484375 L 22.882812 11.71875 L 19.058594 11.71875 Z M 35.773438 28.484375 L 35.773438 26.519531 C 35.773438 26.183594 35.496094 25.90625 35.15625 25.90625 L 30.839844 25.90625 L 30.839844 20.96875 C 30.839844 20.75 30.722656 20.546875 30.53125 20.4375 C 30.34375 20.328125 30.109375 20.328125 29.921875 20.433594 L 24.507812 23.476562 L 24.054688 9.847656 C 24.042969 9.515625 23.769531 9.25 23.4375 9.25 L 18.503906 9.25 C 18.171875 9.25 17.898438 9.515625 17.886719 9.847656 L 17.488281 21.875 L 14.035156 23.816406 L 13.570312 9.847656 C 13.558594 9.515625 13.285156 9.25 12.953125 9.25 L 8.019531 9.25 C 7.6875 9.25 7.414062 9.515625 7.402344 9.847656 L 7.238281 14.785156 L 6.988281 22.226562 L 0.316406 25.984375 C 0.121094 26.09375 0 26.300781 0 26.519531 L 0 36.390625 C 0 36.730469 0.277344 37.007812 0.617188 37.007812 L 35.15625 37.007812 C 35.496094 37.007812 35.773438 36.730469 35.773438 36.390625 L 35.773438 31.960938 C 36.488281 31.703125 37.007812 31.023438 37.007812 30.222656 C 37.007812 29.417969 36.488281 28.742188 35.773438 28.484375 " fill-opacity="1" fill-rule="nonzero"/></g><path fill="#26437e" d="M 19.121094 5.550781 C 19.121094 4.53125 19.949219 3.699219 20.96875 3.699219 L 22.820312 3.699219 C 23.160156 3.699219 23.4375 3.421875 23.4375 3.082031 C 23.4375 2.0625 24.265625 1.234375 25.289062 1.234375 L 30.222656 1.234375 L 30.222656 2.46875 C 30.222656 3.488281 29.394531 4.316406 28.371094 4.316406 L 26.519531 4.316406 C 26.183594 4.316406 25.90625 4.59375 25.90625 4.933594 C 25.90625 5.957031 25.074219 6.785156 24.054688 6.785156 L 19.121094 6.785156 Z M 18.503906 8.019531 L 24.054688 8.019531 C 25.542969 8.019531 26.789062 6.957031 27.074219 5.550781 L 28.371094 5.550781 C 30.074219 5.550781 31.457031 4.167969 31.457031 2.46875 L 31.457031 0.617188 C 31.457031 0.277344 31.179688 0 30.839844 0 L 25.289062 0 C 23.800781 0 22.554688 1.058594 22.265625 2.46875 L 20.96875 2.46875 C 19.269531 2.46875 17.886719 3.851562 17.886719 5.550781 L 17.886719 7.402344 C 17.886719 7.742188 18.164062 8.019531 18.503906 8.019531 " fill-opacity="1" fill-rule="nonzero"/><path fill="#26437e" d="M 8.636719 6.167969 C 8.636719 5.144531 9.464844 4.316406 10.484375 4.316406 C 10.824219 4.316406 11.101562 4.039062 11.101562 3.699219 L 11.101562 3.082031 C 11.101562 2.0625 11.929688 1.234375 12.953125 1.234375 L 16.035156 1.234375 L 16.035156 1.851562 C 16.035156 2.871094 15.207031 3.699219 14.1875 3.699219 C 13.847656 3.699219 13.570312 3.976562 13.570312 4.316406 L 13.570312 4.933594 C 13.570312 5.957031 12.742188 6.785156 11.71875 6.785156 L 8.636719 6.785156 Z M 8.019531 8.019531 L 11.71875 8.019531 C 13.417969 8.019531 14.800781 6.636719 14.800781 4.933594 L 14.800781 4.871094 C 16.210938 4.585938 17.269531 3.339844 17.269531 1.851562 L 17.269531 0.617188 C 17.269531 0.277344 16.992188 0 16.652344 0 L 12.953125 0 C 11.25 0 9.867188 1.382812 9.867188 3.082031 L 9.867188 3.148438 C 8.460938 3.433594 7.402344 4.679688 7.402344 6.167969 L 7.402344 7.402344 C 7.402344 7.742188 7.679688 8.019531 8.019531 8.019531 " fill-opacity="1" fill-rule="nonzero"/></svg>