<svg width="57" height="50" viewBox="0 0 57 50" fill="none" xmlns="http://www.w3.org/2000/svg">
<g clip-path="url(#clip0_119_68)">
<mask id="mask0_119_68" style="mask-type:luminance" maskUnits="userSpaceOnUse" x="0" y="0" width="60" height="47">
<path d="M0 0H59.28V47H0V0Z" fill="white"/>
</mask>
<g mask="url(#mask0_119_68)">
<path d="M0 0H59.28V47H0V0Z" fill="white"/>
<path d="M0 0H59.28V47H0V0Z" fill="white"/>
</g>
<mask id="mask1_119_68" style="mask-type:luminance" maskUnits="userSpaceOnUse" x="0" y="0" width="57" height="47">
<path d="M0 0H57V47H0V0Z" fill="white"/>
</mask>
<g mask="url(#mask1_119_68)">
<mask id="mask2_119_68" style="mask-type:luminance" maskUnits="userSpaceOnUse" x="0" y="0" width="57" height="48">
<path d="M35.8564 36.8574C34.3339 36.8574 33.0943 38.2384 33.0943 39.9277C33.0943 41.6237 34.3339 42.998 35.8564 42.998C37.373 42.998 38.6125 41.6237 38.6125 39.9277C38.6125 38.2384 37.373 36.8574 35.8564 36.8574ZM35.8564 40.9534C35.3449 40.9534 34.9357 40.4907 34.9357 39.9277C34.9357 39.3646 35.3449 38.9088 35.8564 38.9088C36.362 38.9088 36.7711 39.3646 36.7711 39.9277C36.7711 40.4907 36.362 40.9534 35.8564 40.9534ZM17.4723 36.8574C15.9557 36.8574 14.7162 38.2384 14.7162 39.9277C14.7162 41.6237 15.9557 42.998 17.4723 42.998C18.9948 42.998 20.2284 41.6237 20.2284 39.9277C20.2284 38.2384 18.9948 36.8574 17.4723 36.8574ZM17.4723 40.9534C16.9667 40.9534 16.5516 40.4907 16.5516 39.9277C16.5516 39.3646 16.9667 38.9088 17.4723 38.9088C17.9777 38.9088 18.393 39.3646 18.393 39.9277C18.393 40.4907 17.9777 40.9534 17.4723 40.9534ZM22.0699 28.6654H25.7466V30.7167H22.0699V28.6654ZM22.6174 18.6366L26.2943 21.7069L25.193 23.3426L21.5162 20.2723L22.6174 18.6366ZM25.2351 18.2544L22.479 16.2098L23.496 14.507L26.2522 16.5516L25.2351 18.2544ZM44.1248 15.3584C44.1248 15.9215 43.7156 16.3841 43.2041 16.3841C42.6986 16.3841 42.2894 15.9215 42.2894 15.3584C42.2894 14.7953 42.6986 14.3328 43.2041 14.3328C43.7156 14.3328 44.1248 14.7953 44.1248 15.3584ZM43.2041 26.6208C43.2041 27.1838 42.795 27.6464 42.2894 27.6464C41.7779 27.6464 41.3687 27.1838 41.3687 26.6208C41.3687 26.0576 41.7779 25.5951 42.2894 25.5951C42.795 25.5951 43.2041 26.0576 43.2041 26.6208ZM54.1865 27.271L50.7203 7.17314C49.9981 3.01681 46.7245 0.00012207 42.9273 0.00012207C41.5613 0.00012207 40.448 1.23362 40.448 2.75537C40.448 3.09055 40.5022 3.41234 40.6044 3.72741L42.1871 8.42669L39.124 13.2065C38.787 13.7294 38.6125 14.3461 38.6125 14.9898V23.2621C38.6125 23.356 38.6006 23.4499 38.5765 23.5437L38.45 24.0263L37.5655 24.5224L36.8373 12.2814C37.8183 12.2412 38.6125 11.3429 38.6125 10.2368V8.19211C38.6125 7.05917 37.7881 6.14076 36.7711 6.14076H20.2284C19.2174 6.14076 18.393 7.05917 18.393 8.19211V10.2368C18.393 11.3161 19.1452 12.1876 20.09 12.268L18.5133 24.5961C18.2425 24.623 17.9838 24.6632 17.725 24.7504L15.8234 25.4073L16.3891 22.4577C16.4974 21.8945 16.5516 21.3181 16.5516 20.7415C16.5516 17.1148 14.3671 13.8903 11.2379 12.8914L11.2018 12.8847L10.3292 6.54969C10.1306 5.12849 9.05344 4.09612 7.75964 4.09612C6.5621 4.09612 5.52705 5.00112 5.23218 6.28824L4.76882 8.35298C4.73271 8.53401 4.63643 8.69492 4.51005 8.80885L1.04986 11.8926C0.387906 12.4825 0.00878906 13.3541 0.00878906 14.2993C0.00878906 15.2914 0.442065 16.2299 1.17021 16.8064L6.62229 21.1437L9.18583 27.6799L6.82087 28.4911C6.04457 28.7592 5.52705 29.5436 5.52705 30.4486V40.9534C5.52705 42.0796 6.35148 42.998 7.36246 42.998H11.6712C12.7062 45.4181 14.9147 47.094 17.4723 47.094C20.0299 47.094 22.2444 45.4181 23.2794 42.998H30.0493C31.0844 45.4181 33.2929 47.094 35.8564 47.094C39.4009 47.094 42.2894 43.8828 42.2894 39.9277C42.2894 39.5791 42.2593 39.2439 42.2112 38.9088H44.209L42.4639 43.3399C42.3436 43.6617 42.2894 44.0035 42.2894 44.3522C42.2894 45.8672 43.3907 47.094 44.7506 47.094H46.7184C52.3812 47.094 56.9907 41.9589 56.9907 35.6507C56.9907 33.5725 56.4853 31.5413 55.5284 29.7581L54.1865 27.271ZM42.9273 2.04476C45.8458 2.04476 48.3613 4.36427 48.9149 7.55525L52.2007 26.6208H50.275L47.8016 19.2667V8.19211C47.8016 7.05917 46.9772 6.14076 45.9662 6.14076H44.6002C44.2031 6.14076 43.8299 6.29495 43.523 6.54969L42.3315 3.01011C42.3015 2.92296 42.2894 2.84252 42.2894 2.75537C42.2894 2.36655 42.5722 2.04476 42.9273 2.04476ZM39.0097 29.2955L39.9966 25.4543L45.9662 22.1359V23.2152C45.9662 23.3292 45.9482 23.4364 45.9181 23.537L43.168 32.7278C42.1089 31.1658 40.6647 29.9726 39.0097 29.2955ZM40.448 14.9898C40.448 14.7751 40.5082 14.5674 40.6224 14.3931L44.6002 8.19211H45.9662V19.8432L40.448 22.9136V14.9898ZM37.2285 28.786C37.0781 28.7592 36.9276 28.7391 36.7711 28.7257V27.2509L37.7641 26.7012L37.2285 28.786ZM26.9683 36.3948L26.8659 36.8574H23.2794C22.6415 35.3759 21.5643 34.1692 20.2284 33.4653V26.6208H34.9357V28.7257C31.1205 29.1481 27.9131 32.1781 26.9683 36.3948ZM27.582 12.2882V24.5694H20.3728L21.9434 12.2882H27.582ZM34.996 12.2882L35.363 18.4287H29.4235V12.2882H34.996ZM35.7421 24.7907C35.4953 24.6565 35.2245 24.5694 34.9357 24.5694H29.4235V20.4734H35.4834L35.7421 24.7907ZM20.2284 8.19211H36.7711L36.7771 10.2368H20.2284V8.19211ZM18.2666 26.7078C18.3087 26.6945 18.3568 26.7012 18.399 26.6877L18.393 32.8418C18.1583 32.8083 17.9176 32.7814 17.6769 32.7748L15.6489 27.6062L18.2666 26.7078ZM10.0283 17.8455L7.44672 19.2869L4.17908 16.6858L9.25805 12.2814L10.0283 17.8455ZM10.588 19.8298L13.5607 27.3983L12.7484 31.6285L8.55397 20.9561L10.588 19.8298ZM14.2167 33.7603L14.8245 30.6161L15.7693 33.0228C15.2216 33.1971 14.6981 33.4452 14.2167 33.7603ZM14.7162 20.7415C14.7162 21.1706 14.6741 21.6063 14.5958 22.0287L14.2227 23.9727L11.9299 18.1405L11.5207 15.1975C13.4344 16.183 14.7162 18.3483 14.7162 20.7415ZM1.85021 14.2993C1.85021 13.9842 1.97659 13.6892 2.19925 13.4881L5.65944 10.4111C6.09874 10.0156 6.41768 9.45911 6.55609 8.84908L7.01945 6.78432C7.1037 6.40891 7.40458 6.14076 7.75964 6.14076C8.13875 6.14076 8.45167 6.44914 8.51185 6.86477L8.93912 9.96196L2.62049 15.4389L2.23536 15.1372C1.99464 14.9428 1.85021 14.6345 1.85021 14.2993ZM9.93203 29.5704L12.3211 35.6574C12.0683 36.0327 11.8517 36.435 11.6712 36.8574H7.36246V30.4486L9.93203 29.5704ZM7.36246 40.9534V38.9088H11.1115C11.0694 39.2439 11.0393 39.5791 11.0393 39.9277C11.0393 40.2762 11.0694 40.6182 11.1115 40.9534H7.36246ZM17.4723 45.0493C14.9388 45.0493 12.8808 42.75 12.8808 39.9277C12.8808 37.1054 14.9388 34.8127 17.4723 34.8127C20.0058 34.8127 22.0699 37.1054 22.0699 39.9277C22.0699 42.75 20.0058 45.0493 17.4723 45.0493ZM23.833 40.9534C23.8751 40.6182 23.9053 40.2762 23.9053 39.9277C23.9053 39.5791 23.8751 39.2439 23.833 38.9088H29.4957C29.4536 39.2439 29.4235 39.5791 29.4235 39.9277C29.4235 40.2762 29.4536 40.6182 29.4957 40.9534H23.833ZM35.8564 45.0493C33.3229 45.0493 31.2589 42.75 31.2589 39.9277C31.2589 37.1054 33.3229 34.8127 35.8564 34.8127C38.3899 34.8127 40.448 37.1054 40.448 39.9277C40.448 42.75 38.3899 45.0493 35.8564 45.0493ZM41.6575 36.8574C40.6224 34.444 38.414 32.7613 35.8564 32.7613C33.2929 32.7613 31.0844 34.444 30.0493 36.8574H28.7616C29.586 33.2373 32.4985 30.7167 35.8564 30.7167C39.2084 30.7167 42.121 33.2373 42.9514 36.8574H41.6575ZM44.7387 36.3948C44.6423 35.9658 44.516 35.5569 44.3776 35.1614L47.585 24.4487L48.6501 27.6128L44.9071 37.1322L44.7387 36.3948ZM44.1248 44.3522C44.1248 44.265 44.1428 44.1846 44.161 44.131L48.9992 31.8228C49.3964 32.158 49.6431 32.6675 49.6431 33.2307C49.6431 33.4653 49.601 33.6932 49.5168 33.9077L45.3524 45.0493H44.7506C44.4077 45.0493 44.1248 44.7342 44.1248 44.3522ZM47.3563 45.0158L51.2137 34.692C51.3882 34.2295 51.4785 33.7334 51.4785 33.2307C51.4785 31.9503 50.9068 30.7703 49.956 30.0597L49.7514 29.9123L50.2388 28.6654H52.7964L53.9518 30.8173C54.7401 32.272 55.1553 33.9479 55.1553 35.6507C55.1553 40.5913 51.7072 44.6472 47.3563 45.0158Z" fill="white"/>
</mask>
<g mask="url(#mask2_119_68)">
<path d="M0.00878906 0.00012207V47.0001H56.9907V0.00012207H0.00878906Z" fill="#26437E"/>
</g>
</g>
</g>
<defs>
<clipPath id="clip0_119_68">
<rect width="57" height="50" fill="white"/>
</clipPath>
</defs>
</svg>
