<svg xmlns="http://www.w3.org/2000/svg" xmlns:xlink="http://www.w3.org/1999/xlink" width="50" zoomAndPan="magnify" viewBox="0 0 37.5 37.499999" height="80" preserveAspectRatio="xMidYMid meet" version="1.0"><defs><clipPath id="aff59416ec"><path d="M 0 0 L 37.007812 0 L 37.007812 37.007812 L 0 37.007812 Z M 0 0 " clip-rule="nonzero"/></clipPath><clipPath id="edb00d7246"><path d="M 7 26 L 17 26 L 17 34.785156 L 7 34.785156 Z M 7 26 " clip-rule="nonzero"/></clipPath><clipPath id="c5b6566fa3"><path d="M 20 26 L 30 26 L 30 34.785156 L 20 34.785156 Z M 20 26 " clip-rule="nonzero"/></clipPath><clipPath id="ad4bd0d07d"><path d="M 33 30 L 37.007812 30 L 37.007812 32 L 33 32 Z M 33 30 " clip-rule="nonzero"/></clipPath><clipPath id="d5784a230a"><path d="M 36 28 L 37.007812 28 L 37.007812 33 L 36 33 Z M 36 28 " clip-rule="nonzero"/></clipPath><clipPath id="d4260e13c9"><path d="M 3 34 L 34 34 L 34 34.785156 L 3 34.785156 Z M 3 34 " clip-rule="nonzero"/></clipPath></defs><g clip-path="url(#aff59416ec)"><path fill="#ffffff" d="M 0 0 L 37.007812 0 L 37.007812 37.007812 L 0 37.007812 Z M 0 0 " fill-opacity="1" fill-rule="nonzero"/><path fill="#ffffff" d="M 0 0 L 37.007812 0 L 37.007812 37.007812 L 0 37.007812 Z M 0 0 " fill-opacity="1" fill-rule="nonzero"/></g><path fill="#26437e" d="M 29.917969 29.484375 L 28.378906 29.484375 C 28.203125 29.484375 28.054688 29.375 27.988281 29.226562 C 27.425781 27.988281 26.1875 27.207031 24.84375 27.207031 C 23.480469 27.207031 22.265625 27.988281 21.699219 29.226562 C 21.613281 29.375 21.460938 29.484375 21.3125 29.484375 L 15.71875 29.484375 C 15.542969 29.484375 15.390625 29.375 15.328125 29.226562 C 14.761719 27.988281 13.527344 27.207031 12.183594 27.207031 C 10.816406 27.207031 9.582031 27.988281 9.039062 29.226562 C 8.953125 29.375 8.800781 29.484375 8.628906 29.484375 L 7.109375 29.484375 C 6.894531 29.484375 6.71875 29.332031 6.675781 29.136719 L 3.925781 16.390625 C 3.878906 16.261719 3.925781 16.128906 4.011719 16.023438 C 4.097656 15.914062 4.207031 15.871094 4.335938 15.871094 L 32.671875 15.871094 C 32.800781 15.871094 32.929688 15.914062 33.019531 16.023438 C 33.082031 16.128906 33.125 16.261719 33.105469 16.390625 L 30.328125 29.136719 C 30.285156 29.332031 30.113281 29.484375 29.917969 29.484375 Z M 28.636719 28.617188 L 29.570312 28.617188 L 32.128906 16.738281 L 4.878906 16.738281 L 7.457031 28.617188 L 8.367188 28.617188 C 9.105469 27.230469 10.578125 26.339844 12.183594 26.339844 C 13.765625 26.339844 15.242188 27.230469 15.976562 28.617188 L 21.027344 28.617188 C 21.789062 27.230469 23.238281 26.339844 24.84375 26.339844 C 26.425781 26.339844 27.902344 27.230469 28.636719 28.617188 Z M 28.636719 28.617188 " fill-opacity="1" fill-rule="evenodd"/><path fill="#26437e" d="M 31.847656 32.695312 L 28.378906 32.695312 C 28.226562 32.695312 28.097656 32.605469 28.007812 32.5 C 27.945312 32.367188 27.921875 32.214844 27.988281 32.085938 C 28.183594 31.632812 28.292969 31.15625 28.292969 30.65625 C 28.292969 30.15625 28.183594 29.679688 27.988281 29.226562 C 27.921875 29.09375 27.945312 28.941406 28.007812 28.8125 C 28.097656 28.683594 28.226562 28.617188 28.378906 28.617188 L 31.847656 28.617188 C 32.972656 28.617188 33.882812 29.527344 33.882812 30.65625 C 33.882812 31.78125 32.972656 32.695312 31.847656 32.695312 Z M 29.007812 31.828125 L 31.847656 31.828125 C 32.496094 31.828125 33.019531 31.304688 33.019531 30.65625 C 33.019531 30.003906 32.496094 29.484375 31.847656 29.484375 L 29.007812 29.484375 C 29.09375 29.855469 29.160156 30.242188 29.160156 30.65625 C 29.160156 31.046875 29.09375 31.4375 29.007812 31.828125 Z M 21.3125 32.695312 L 15.71875 32.695312 C 15.566406 32.695312 15.4375 32.605469 15.347656 32.5 C 15.261719 32.367188 15.261719 32.214844 15.328125 32.085938 C 15.523438 31.632812 15.628906 31.15625 15.628906 30.65625 C 15.628906 30.15625 15.523438 29.679688 15.328125 29.226562 C 15.261719 29.09375 15.261719 28.941406 15.347656 28.8125 C 15.4375 28.683594 15.566406 28.617188 15.71875 28.617188 L 21.3125 28.617188 C 21.441406 28.617188 21.59375 28.683594 21.65625 28.8125 C 21.746094 28.941406 21.765625 29.09375 21.699219 29.226562 C 21.484375 29.679688 21.398438 30.15625 21.398438 30.65625 C 21.398438 31.15625 21.484375 31.632812 21.699219 32.085938 C 21.765625 32.214844 21.746094 32.367188 21.65625 32.5 C 21.59375 32.605469 21.441406 32.695312 21.3125 32.695312 Z M 16.324219 31.828125 L 20.683594 31.828125 C 20.574219 31.4375 20.53125 31.046875 20.53125 30.65625 C 20.53125 30.242188 20.574219 29.855469 20.683594 29.484375 L 16.324219 29.484375 C 16.433594 29.855469 16.496094 30.242188 16.496094 30.65625 C 16.496094 31.046875 16.433594 31.4375 16.324219 31.828125 Z M 8.628906 32.695312 L 5.160156 32.695312 C 4.03125 32.695312 3.121094 31.78125 3.121094 30.65625 C 3.121094 29.527344 4.03125 28.617188 5.160156 28.617188 L 8.628906 28.617188 C 8.78125 28.617188 8.910156 28.683594 8.996094 28.8125 C 9.082031 28.941406 9.082031 29.09375 9.039062 29.226562 C 8.824219 29.679688 8.714844 30.15625 8.714844 30.65625 C 8.714844 31.15625 8.824219 31.632812 9.039062 32.085938 C 9.082031 32.214844 9.082031 32.367188 8.996094 32.5 C 8.910156 32.605469 8.78125 32.695312 8.628906 32.695312 Z M 5.160156 29.484375 C 4.507812 29.484375 3.988281 30.003906 3.988281 30.65625 C 3.988281 31.304688 4.507812 31.828125 5.160156 31.828125 L 8.019531 31.828125 C 7.914062 31.4375 7.847656 31.046875 7.847656 30.65625 C 7.847656 30.242188 7.914062 29.855469 8.019531 29.484375 Z M 5.160156 29.484375 " fill-opacity="1" fill-rule="evenodd"/><g clip-path="url(#edb00d7246)"><path fill="#26437e" d="M 12.183594 34.96875 C 9.800781 34.96875 7.847656 33.039062 7.847656 30.65625 C 7.847656 28.269531 9.800781 26.339844 12.183594 26.339844 C 14.546875 26.339844 16.496094 28.269531 16.496094 30.65625 C 16.496094 33.039062 14.546875 34.96875 12.183594 34.96875 Z M 12.183594 27.207031 C 10.277344 27.207031 8.714844 28.746094 8.714844 30.65625 C 8.714844 32.5625 10.277344 34.101562 12.183594 34.101562 C 14.070312 34.101562 15.628906 32.5625 15.628906 30.65625 C 15.628906 28.746094 14.070312 27.207031 12.183594 27.207031 Z M 12.183594 27.207031 " fill-opacity="1" fill-rule="evenodd"/></g><path fill="#26437e" d="M 12.183594 32.695312 C 11.054688 32.695312 10.125 31.78125 10.125 30.65625 C 10.125 29.527344 11.054688 28.617188 12.183594 28.617188 C 13.3125 28.617188 14.222656 29.527344 14.222656 30.65625 C 14.222656 31.78125 13.3125 32.695312 12.183594 32.695312 Z M 12.183594 29.484375 C 11.535156 29.484375 10.992188 30.003906 10.992188 30.65625 C 10.992188 31.304688 11.535156 31.828125 12.183594 31.828125 C 12.8125 31.828125 13.355469 31.304688 13.355469 30.65625 C 13.355469 30.003906 12.8125 29.484375 12.183594 29.484375 Z M 12.183594 29.484375 " fill-opacity="1" fill-rule="evenodd"/><g clip-path="url(#c5b6566fa3)"><path fill="#26437e" d="M 24.84375 34.96875 C 22.460938 34.96875 20.53125 33.039062 20.53125 30.65625 C 20.53125 28.269531 22.460938 26.339844 24.84375 26.339844 C 27.230469 26.339844 29.160156 28.269531 29.160156 30.65625 C 29.160156 33.039062 27.230469 34.96875 24.84375 34.96875 Z M 24.84375 27.207031 C 22.9375 27.207031 21.398438 28.746094 21.398438 30.65625 C 21.398438 32.5625 22.9375 34.101562 24.84375 34.101562 C 26.753906 34.101562 28.292969 32.5625 28.292969 30.65625 C 28.292969 28.746094 26.753906 27.207031 24.84375 27.207031 Z M 24.84375 27.207031 " fill-opacity="1" fill-rule="evenodd"/></g><path fill="#26437e" d="M 24.84375 32.695312 C 23.71875 32.695312 22.804688 31.78125 22.804688 30.65625 C 22.804688 29.527344 23.71875 28.617188 24.84375 28.617188 C 25.972656 28.617188 26.882812 29.527344 26.882812 30.65625 C 26.882812 31.78125 25.972656 32.695312 24.84375 32.695312 Z M 24.84375 29.484375 C 24.195312 29.484375 23.671875 30.003906 23.671875 30.65625 C 23.671875 31.304688 24.195312 31.828125 24.84375 31.828125 C 25.496094 31.828125 26.015625 31.304688 26.015625 30.65625 C 26.015625 30.003906 25.496094 29.484375 24.84375 29.484375 Z M 24.84375 29.484375 " fill-opacity="1" fill-rule="evenodd"/><path fill="#26437e" d="M 3.554688 31.089844 L 0.433594 31.089844 C 0.195312 31.089844 0 30.894531 0 30.65625 C 0 30.417969 0.195312 30.222656 0.433594 30.222656 L 3.554688 30.222656 C 3.792969 30.222656 3.988281 30.417969 3.988281 30.65625 C 3.988281 30.894531 3.792969 31.089844 3.554688 31.089844 Z M 3.554688 31.089844 " fill-opacity="1" fill-rule="evenodd"/><path fill="#26437e" d="M 0.433594 32.347656 C 0.195312 32.347656 0 32.152344 0 31.914062 L 0 29.421875 C 0 29.179688 0.195312 28.988281 0.433594 28.988281 C 0.671875 28.988281 0.867188 29.179688 0.867188 29.421875 L 0.867188 31.914062 C 0.867188 32.152344 0.671875 32.347656 0.433594 32.347656 Z M 0.433594 32.347656 " fill-opacity="1" fill-rule="evenodd"/><g clip-path="url(#ad4bd0d07d)"><path fill="#26437e" d="M 36.574219 31.089844 L 33.453125 31.089844 C 33.210938 31.089844 33.019531 30.894531 33.019531 30.65625 C 33.019531 30.417969 33.210938 30.222656 33.453125 30.222656 L 36.574219 30.222656 C 36.8125 30.222656 37.007812 30.417969 37.007812 30.65625 C 37.007812 30.894531 36.8125 31.089844 36.574219 31.089844 Z M 36.574219 31.089844 " fill-opacity="1" fill-rule="evenodd"/></g><g clip-path="url(#d5784a230a)"><path fill="#26437e" d="M 36.574219 32.347656 C 36.335938 32.347656 36.140625 32.152344 36.140625 31.914062 L 36.140625 29.421875 C 36.140625 29.179688 36.335938 28.988281 36.574219 28.988281 C 36.8125 28.988281 37.007812 29.179688 37.007812 29.421875 L 37.007812 31.914062 C 37.007812 32.152344 36.8125 32.347656 36.574219 32.347656 Z M 36.574219 32.347656 " fill-opacity="1" fill-rule="evenodd"/></g><path fill="#26437e" d="M 11.144531 13.527344 L 4.335938 13.527344 C 4.183594 13.527344 4.054688 13.441406 3.96875 13.3125 C 3.878906 13.160156 3.902344 13.007812 3.96875 12.855469 C 4.421875 12.140625 5.464844 10.253906 5.464844 8.695312 C 5.464844 8.542969 5.527344 8.414062 5.660156 8.324219 C 5.765625 8.261719 5.917969 8.238281 6.070312 8.304688 L 10.753906 10.363281 C 10.882812 10.429688 10.96875 10.539062 10.992188 10.667969 L 11.554688 12.945312 C 11.578125 12.988281 11.578125 13.050781 11.578125 13.09375 C 11.578125 13.335938 11.382812 13.527344 11.144531 13.527344 Z M 5.09375 12.660156 L 10.601562 12.660156 L 10.210938 11.078125 L 6.285156 9.34375 C 6.113281 10.539062 5.570312 11.773438 5.09375 12.660156 Z M 5.09375 12.660156 " fill-opacity="1" fill-rule="evenodd"/><path fill="#26437e" d="M 7.71875 9.929688 C 7.652344 9.929688 7.566406 9.929688 7.523438 9.886719 C 7.304688 9.777344 7.21875 9.519531 7.328125 9.300781 L 9.753906 4.511719 C 9.84375 4.335938 10.058594 4.25 10.253906 4.292969 L 14.179688 5.335938 C 14.417969 5.398438 14.546875 5.636719 14.480469 5.855469 C 14.417969 6.09375 14.199219 6.222656 13.960938 6.179688 L 10.363281 5.226562 L 8.085938 9.691406 C 8.019531 9.84375 7.871094 9.929688 7.71875 9.929688 Z M 7.71875 9.929688 " fill-opacity="1" fill-rule="evenodd"/><path fill="#26437e" d="M 17.0625 5.984375 C 16.929688 5.984375 16.78125 5.917969 16.714844 5.789062 C 16.585938 5.59375 16.628906 5.335938 16.824219 5.203125 L 19.292969 3.601562 L 19.988281 2.105469 L 15.5 2.210938 L 13.765625 3.296875 L 12.183594 5.421875 C 12.054688 5.617188 11.773438 5.660156 11.578125 5.507812 C 11.382812 5.378906 11.359375 5.097656 11.488281 4.902344 L 13.117188 2.710938 C 13.160156 2.667969 13.179688 2.625 13.246094 2.601562 L 15.152344 1.410156 C 15.21875 1.367188 15.285156 1.34375 15.371094 1.34375 L 20.660156 1.238281 C 20.8125 1.214844 20.941406 1.300781 21.027344 1.433594 C 21.117188 1.539062 21.117188 1.714844 21.050781 1.84375 L 20.03125 4.078125 C 19.988281 4.164062 19.945312 4.207031 19.859375 4.273438 L 17.300781 5.917969 C 17.234375 5.964844 17.148438 5.984375 17.0625 5.984375 Z M 17.0625 5.984375 " fill-opacity="1" fill-rule="evenodd"/><path fill="#26437e" d="M 22.460938 10.710938 C 22.371094 10.710938 22.285156 10.6875 22.199219 10.625 C 22.027344 10.472656 21.984375 10.210938 22.113281 10.015625 L 24.585938 6.742188 C 24.671875 6.613281 24.84375 6.546875 24.996094 6.570312 L 27.121094 6.980469 L 28.117188 5.984375 L 27.425781 4.378906 L 24.910156 3.210938 C 24.84375 3.167969 24.800781 3.144531 24.78125 3.101562 C 24.042969 2.34375 23.175781 1.476562 22.71875 1.105469 C 22.4375 1.367188 21.894531 1.671875 20.8125 2.0625 C 20.59375 2.148438 20.335938 2.039062 20.269531 1.800781 C 20.183594 1.582031 20.292969 1.34375 20.53125 1.257812 C 21.246094 1 21.984375 0.628906 22.15625 0.457031 C 22.199219 0.304688 22.285156 0.195312 22.4375 0.132812 C 22.742188 0 23 0.21875 23.371094 0.523438 C 23.585938 0.714844 23.890625 0.976562 24.238281 1.324219 C 24.714844 1.800781 25.191406 2.277344 25.34375 2.449219 L 27.945312 3.664062 C 28.03125 3.707031 28.117188 3.796875 28.160156 3.882812 L 29.027344 5.898438 C 29.09375 6.070312 29.070312 6.265625 28.941406 6.398438 L 27.574219 7.742188 C 27.46875 7.847656 27.335938 7.890625 27.1875 7.871094 L 25.105469 7.480469 L 22.804688 10.539062 C 22.71875 10.644531 22.589844 10.710938 22.460938 10.710938 Z M 22.460938 10.710938 " fill-opacity="1" fill-rule="evenodd"/><path fill="#26437e" d="M 31.847656 13.527344 C 31.761719 13.527344 31.671875 13.507812 31.585938 13.441406 C 31.390625 13.3125 31.347656 13.03125 31.476562 12.835938 L 32.152344 11.882812 L 31.152344 9.996094 L 27.054688 7.828125 C 26.859375 7.71875 26.773438 7.457031 26.882812 7.242188 C 26.992188 7.023438 27.25 6.9375 27.46875 7.070312 L 31.671875 9.300781 C 31.738281 9.34375 31.804688 9.386719 31.847656 9.476562 L 33.039062 11.707031 C 33.125 11.859375 33.125 12.035156 33.019531 12.164062 L 32.195312 13.335938 C 32.105469 13.464844 31.976562 13.527344 31.847656 13.527344 Z M 31.847656 13.527344 " fill-opacity="1" fill-rule="evenodd"/><g clip-path="url(#d4260e13c9)"><path fill="#26437e" d="M 33.558594 34.96875 L 3.445312 34.96875 C 3.207031 34.96875 3.011719 34.773438 3.011719 34.535156 C 3.011719 34.296875 3.207031 34.101562 3.445312 34.101562 L 33.558594 34.101562 C 33.796875 34.101562 33.992188 34.296875 33.992188 34.535156 C 33.992188 34.773438 33.796875 34.96875 33.558594 34.96875 Z M 33.558594 34.96875 " fill-opacity="1" fill-rule="evenodd"/></g><path fill="#26437e" d="M 28.355469 25.429688 L 8.628906 25.429688 C 8.433594 25.429688 8.261719 25.300781 8.214844 25.105469 L 6.613281 18.667969 C 6.570312 18.535156 6.613281 18.40625 6.675781 18.296875 C 6.765625 18.191406 6.894531 18.125 7.023438 18.125 L 29.984375 18.125 C 30.113281 18.125 30.242188 18.191406 30.328125 18.296875 C 30.417969 18.40625 30.4375 18.535156 30.394531 18.667969 L 28.789062 25.105469 C 28.746094 25.300781 28.574219 25.429688 28.355469 25.429688 Z M 8.976562 24.5625 L 28.03125 24.5625 L 29.417969 18.992188 L 7.585938 18.992188 Z M 8.976562 24.5625 " fill-opacity="1" fill-rule="evenodd"/><path fill="#26437e" d="M 35.035156 16.738281 L 1.972656 16.738281 C 1.734375 16.738281 1.539062 16.542969 1.539062 16.304688 L 1.539062 13.09375 C 1.539062 12.855469 1.734375 12.660156 1.972656 12.660156 L 35.035156 12.660156 C 35.273438 12.660156 35.46875 12.855469 35.46875 13.09375 L 35.46875 16.304688 C 35.46875 16.542969 35.273438 16.738281 35.035156 16.738281 Z M 2.40625 15.871094 L 34.601562 15.871094 L 34.601562 13.527344 L 2.40625 13.527344 Z M 2.40625 15.871094 " fill-opacity="1" fill-rule="evenodd"/></svg>