<svg xmlns="http://www.w3.org/2000/svg" xmlns:xlink="http://www.w3.org/1999/xlink" width="50" zoomAndPan="magnify" viewBox="0 0 37.5 37.499999" height="50" preserveAspectRatio="xMidYMid meet" version="1.0"><defs><clipPath id="308d5ef8a5"><path d="M 0 0 L 37.007812 0 L 37.007812 37.007812 L 0 37.007812 Z M 0 0 " clip-rule="nonzero"/></clipPath><clipPath id="f2e06769b4"><path d="M 8.636719 12.761719 L 32.324219 12.761719 L 32.324219 37 L 8.636719 37 Z M 8.636719 12.761719 " clip-rule="nonzero"/></clipPath><clipPath id="697b622cbe"><path d="M 18 4 L 19 4 L 19 6 L 18 6 Z M 18 4 " clip-rule="nonzero"/></clipPath><clipPath id="24713e98b7"><path d="M 0 4.785156 L 23.191406 -0.0234375 L 25.296875 10.121094 L 2.105469 14.933594 Z M 0 4.785156 " clip-rule="nonzero"/></clipPath><clipPath id="0838bd8e3b"><path d="M 0 4.785156 L 23.191406 -0.0234375 L 25.296875 10.121094 L 2.105469 14.933594 Z M 0 4.785156 " clip-rule="nonzero"/></clipPath><clipPath id="bdfdd6ce1d"><path d="M 17 5 L 18 5 L 18 6 L 17 6 Z M 17 5 " clip-rule="nonzero"/></clipPath><clipPath id="c3966d3787"><path d="M 0 4.785156 L 23.191406 -0.0234375 L 25.296875 10.121094 L 2.105469 14.933594 Z M 0 4.785156 " clip-rule="nonzero"/></clipPath><clipPath id="bc0604b13c"><path d="M 0 4.785156 L 23.191406 -0.0234375 L 25.296875 10.121094 L 2.105469 14.933594 Z M 0 4.785156 " clip-rule="nonzero"/></clipPath><clipPath id="00a1b385f3"><path d="M 16 5 L 17 5 L 17 6 L 16 6 Z M 16 5 " clip-rule="nonzero"/></clipPath><clipPath id="9c19416d5e"><path d="M 0 4.785156 L 23.191406 -0.0234375 L 25.296875 10.121094 L 2.105469 14.933594 Z M 0 4.785156 " clip-rule="nonzero"/></clipPath><clipPath id="48db725792"><path d="M 0 4.785156 L 23.191406 -0.0234375 L 25.296875 10.121094 L 2.105469 14.933594 Z M 0 4.785156 " clip-rule="nonzero"/></clipPath><clipPath id="409b5b200c"><path d="M 14 5 L 16 5 L 16 6 L 14 6 Z M 14 5 " clip-rule="nonzero"/></clipPath><clipPath id="f93f988ef8"><path d="M 0 4.785156 L 23.191406 -0.0234375 L 25.296875 10.121094 L 2.105469 14.933594 Z M 0 4.785156 " clip-rule="nonzero"/></clipPath><clipPath id="055cecb6b6"><path d="M 0 4.785156 L 23.191406 -0.0234375 L 25.296875 10.121094 L 2.105469 14.933594 Z M 0 4.785156 " clip-rule="nonzero"/></clipPath><clipPath id="d2c6cdc9a2"><path d="M 13 5 L 15 5 L 15 7 L 13 7 Z M 13 5 " clip-rule="nonzero"/></clipPath><clipPath id="d5ad1e56e0"><path d="M 0 4.785156 L 23.191406 -0.0234375 L 25.296875 10.121094 L 2.105469 14.933594 Z M 0 4.785156 " clip-rule="nonzero"/></clipPath><clipPath id="ad665457aa"><path d="M 0 4.785156 L 23.191406 -0.0234375 L 25.296875 10.121094 L 2.105469 14.933594 Z M 0 4.785156 " clip-rule="nonzero"/></clipPath><clipPath id="77c387db02"><path d="M 12 5 L 14 5 L 14 7 L 12 7 Z M 12 5 " clip-rule="nonzero"/></clipPath><clipPath id="d8d93496e3"><path d="M 0 4.785156 L 23.191406 -0.0234375 L 25.296875 10.121094 L 2.105469 14.933594 Z M 0 4.785156 " clip-rule="nonzero"/></clipPath><clipPath id="0ef3e2fa5a"><path d="M 0 4.785156 L 23.191406 -0.0234375 L 25.296875 10.121094 L 2.105469 14.933594 Z M 0 4.785156 " clip-rule="nonzero"/></clipPath><clipPath id="9fe0084da7"><path d="M 11 6 L 13 6 L 13 7 L 11 7 Z M 11 6 " clip-rule="nonzero"/></clipPath><clipPath id="dcee7d179a"><path d="M 0 4.785156 L 23.191406 -0.0234375 L 25.296875 10.121094 L 2.105469 14.933594 Z M 0 4.785156 " clip-rule="nonzero"/></clipPath><clipPath id="65ce47660f"><path d="M 0 4.785156 L 23.191406 -0.0234375 L 25.296875 10.121094 L 2.105469 14.933594 Z M 0 4.785156 " clip-rule="nonzero"/></clipPath><clipPath id="5990334c5a"><path d="M 10 6 L 12 6 L 12 7 L 10 7 Z M 10 6 " clip-rule="nonzero"/></clipPath><clipPath id="b95282b931"><path d="M 0 4.785156 L 23.191406 -0.0234375 L 25.296875 10.121094 L 2.105469 14.933594 Z M 0 4.785156 " clip-rule="nonzero"/></clipPath><clipPath id="8b4eb0ab8d"><path d="M 0 4.785156 L 23.191406 -0.0234375 L 25.296875 10.121094 L 2.105469 14.933594 Z M 0 4.785156 " clip-rule="nonzero"/></clipPath><clipPath id="163b4661f7"><path d="M 9 6 L 11 6 L 11 8 L 9 8 Z M 9 6 " clip-rule="nonzero"/></clipPath><clipPath id="06052eea4f"><path d="M 0 4.785156 L 23.191406 -0.0234375 L 25.296875 10.121094 L 2.105469 14.933594 Z M 0 4.785156 " clip-rule="nonzero"/></clipPath><clipPath id="2776e4d8b5"><path d="M 0 4.785156 L 23.191406 -0.0234375 L 25.296875 10.121094 L 2.105469 14.933594 Z M 0 4.785156 " clip-rule="nonzero"/></clipPath><clipPath id="e6f9124053"><path d="M 8 6 L 10 6 L 10 8 L 8 8 Z M 8 6 " clip-rule="nonzero"/></clipPath><clipPath id="7a46003bb4"><path d="M 0 4.785156 L 23.191406 -0.0234375 L 25.296875 10.121094 L 2.105469 14.933594 Z M 0 4.785156 " clip-rule="nonzero"/></clipPath><clipPath id="9cc46be9cb"><path d="M 0 4.785156 L 23.191406 -0.0234375 L 25.296875 10.121094 L 2.105469 14.933594 Z M 0 4.785156 " clip-rule="nonzero"/></clipPath><clipPath id="2f7087435a"><path d="M 7 6 L 9 6 L 9 8 L 7 8 Z M 7 6 " clip-rule="nonzero"/></clipPath><clipPath id="d22bce04a0"><path d="M 0 4.785156 L 23.191406 -0.0234375 L 25.296875 10.121094 L 2.105469 14.933594 Z M 0 4.785156 " clip-rule="nonzero"/></clipPath><clipPath id="b4db48c6fe"><path d="M 0 4.785156 L 23.191406 -0.0234375 L 25.296875 10.121094 L 2.105469 14.933594 Z M 0 4.785156 " clip-rule="nonzero"/></clipPath><clipPath id="4c6e7dc7ed"><path d="M 6 7 L 8 7 L 8 8 L 6 8 Z M 6 7 " clip-rule="nonzero"/></clipPath><clipPath id="c883478df0"><path d="M 0 4.785156 L 23.191406 -0.0234375 L 25.296875 10.121094 L 2.105469 14.933594 Z M 0 4.785156 " clip-rule="nonzero"/></clipPath><clipPath id="9135a4a09b"><path d="M 0 4.785156 L 23.191406 -0.0234375 L 25.296875 10.121094 L 2.105469 14.933594 Z M 0 4.785156 " clip-rule="nonzero"/></clipPath><clipPath id="cafe80af5a"><path d="M 0 2 L 25 2 L 25 14 L 0 14 Z M 0 2 " clip-rule="nonzero"/></clipPath><clipPath id="05f6c87ad1"><path d="M 0 4.785156 L 23.191406 -0.0234375 L 25.296875 10.121094 L 2.105469 14.933594 Z M 0 4.785156 " clip-rule="nonzero"/></clipPath><clipPath id="c85342614c"><path d="M 0 4.785156 L 23.191406 -0.0234375 L 25.296875 10.121094 L 2.105469 14.933594 Z M 0 4.785156 " clip-rule="nonzero"/></clipPath></defs><g clip-path="url(#308d5ef8a5)"><path fill="#ffffff" d="M 0 0 L 37.007812 0 L 37.007812 37.007812 L 0 37.007812 Z M 0 0 " fill-opacity="1" fill-rule="nonzero"/><path fill="#ffffff" d="M 0 0 L 37.007812 0 L 37.007812 37.007812 L 0 37.007812 Z M 0 0 " fill-opacity="1" fill-rule="nonzero"/></g><g clip-path="url(#f2e06769b4)"><path fill="#26437e" d="M 20.511719 12.761719 C 20.238281 12.761719 19.984375 12.8125 19.765625 12.921875 C 19.546875 13.03125 19.308594 13.246094 19.308594 13.566406 L 19.308594 15.578125 L 18.910156 15.578125 C 18.683594 15.574219 18.503906 15.757812 18.503906 15.980469 L 18.503906 17.1875 L 16.089844 17.1875 C 15.792969 17.1875 15.597656 17.5 15.730469 17.769531 L 16.492188 19.292969 L 16.492188 21.207031 C 15.824219 21.207031 15.285156 21.753906 15.285156 22.414062 L 15.285156 24.484375 C 13.703125 24.769531 12.433594 24.886719 12.433594 24.886719 C 12.226562 24.90625 12.070312 25.078125 12.070312 25.289062 C 12.070312 27.050781 13.199219 29.074219 14.148438 30.488281 C 14.96875 31.714844 15.648438 32.507812 15.941406 32.84375 C 15.652344 32.90625 15.347656 32.863281 15.082031 32.710938 C 14.707031 32.496094 14.480469 32.097656 14.480469 31.664062 C 14.480469 31.128906 13.675781 31.128906 13.675781 31.664062 C 13.675781 32.097656 13.449219 32.496094 13.074219 32.710938 C 12.699219 32.925781 12.238281 32.925781 11.867188 32.710938 C 11.492188 32.496094 11.261719 32.097656 11.261719 31.664062 C 11.265625 31.4375 11.082031 31.253906 10.855469 31.257812 C 10.632812 31.261719 10.453125 31.441406 10.457031 31.664062 C 10.457031 32.382812 10.84375 33.046875 11.464844 33.40625 C 12.085938 33.765625 12.851562 33.765625 13.472656 33.40625 C 13.847656 33.191406 14.019531 32.945312 14.078125 32.871094 C 14.132812 32.941406 14.304688 33.191406 14.679688 33.40625 C 15.300781 33.765625 16.070312 33.765625 16.691406 33.40625 C 17.066406 33.191406 17.242188 32.941406 17.296875 32.871094 C 17.351562 32.941406 17.527344 33.191406 17.898438 33.40625 C 18.519531 33.765625 19.289062 33.765625 19.910156 33.40625 C 20.285156 33.191406 20.457031 32.941406 20.511719 32.871094 C 20.558594 32.925781 20.742188 33.191406 21.117188 33.40625 C 21.738281 33.765625 22.507812 33.765625 23.128906 33.40625 C 23.503906 33.191406 23.679688 32.933594 23.734375 32.871094 C 23.773438 32.925781 23.964844 33.191406 24.332031 33.40625 C 24.957031 33.765625 25.726562 33.765625 26.347656 33.40625 C 26.71875 33.191406 26.890625 32.941406 26.949219 32.871094 C 26.996094 32.929688 27.179688 33.191406 27.554688 33.40625 C 28.175781 33.765625 28.941406 33.765625 29.566406 33.40625 C 30.1875 33.046875 30.570312 32.382812 30.570312 31.664062 C 30.570312 31.128906 29.765625 31.128906 29.765625 31.664062 C 29.765625 32.097656 29.539062 32.496094 29.164062 32.710938 C 28.789062 32.925781 28.332031 32.925781 27.957031 32.710938 C 27.582031 32.496094 27.351562 32.097656 27.351562 31.664062 C 27.351562 31.128906 26.546875 31.128906 26.546875 31.664062 C 26.546875 32.097656 26.316406 32.496094 25.945312 32.710938 C 25.679688 32.863281 25.375 32.90625 25.085938 32.84375 C 25.378906 32.507812 26.058594 31.714844 26.882812 30.488281 C 27.90625 28.960938 28.960938 26.988281 28.960938 25.289062 C 28.960938 25.078125 28.800781 24.90625 28.59375 24.886719 C 28.59375 24.886719 27.527344 24.789062 26.144531 24.554688 L 26.144531 22.414062 C 26.144531 21.753906 25.609375 21.207031 24.941406 21.207031 L 24.539062 21.207031 L 24.539062 19.292969 L 25.300781 17.769531 C 25.433594 17.5 25.238281 17.1875 24.941406 17.1875 L 22.527344 17.1875 L 22.527344 15.980469 C 22.527344 15.757812 22.347656 15.574219 22.121094 15.578125 L 21.722656 15.578125 L 21.722656 13.566406 C 21.722656 13.246094 21.484375 13.03125 21.265625 12.921875 C 21.046875 12.8125 20.789062 12.761719 20.511719 12.761719 Z M 20.511719 13.566406 C 20.683594 13.566406 20.832031 13.605469 20.90625 13.640625 C 20.917969 13.648438 20.910156 13.644531 20.917969 13.644531 L 20.917969 15.578125 L 20.113281 15.578125 L 20.113281 13.644531 C 20.117188 13.644531 20.109375 13.648438 20.125 13.640625 C 20.195312 13.605469 20.34375 13.566406 20.511719 13.566406 Z M 19.308594 16.382812 L 21.722656 16.382812 L 21.722656 17.1875 L 19.308594 17.1875 Z M 16.742188 17.988281 L 24.285156 17.988281 L 23.886719 18.792969 L 17.140625 18.792969 Z M 17.296875 19.597656 L 18.910156 19.597656 L 18.910156 21.207031 L 17.296875 21.207031 Z M 19.710938 19.597656 L 21.316406 19.597656 L 21.316406 21.207031 L 19.710938 21.207031 Z M 22.121094 19.597656 L 23.730469 19.597656 L 23.730469 21.207031 L 22.121094 21.207031 Z M 16.492188 22.011719 L 24.941406 22.011719 C 25.160156 22.011719 25.339844 22.183594 25.339844 22.414062 L 25.339844 24.410156 C 23.710938 24.09375 21.835938 23.59375 20.71875 22.921875 C 20.652344 22.878906 20.574219 22.859375 20.492188 22.863281 C 20.425781 22.867188 20.363281 22.886719 20.304688 22.921875 C 19.28125 23.542969 17.621094 24.011719 16.089844 24.332031 L 16.089844 22.414062 C 16.089844 22.195312 16.261719 22.011719 16.492188 22.011719 Z M 20.511719 23.726562 C 21.769531 24.433594 23.761719 24.933594 25.40625 25.242188 C 26.746094 25.488281 27.8125 25.613281 28.136719 25.644531 C 27.992188 27.046875 27.128906 28.671875 26.214844 30.042969 C 25.351562 31.328125 24.601562 32.183594 24.398438 32.414062 C 24.230469 32.207031 24.132812 31.941406 24.132812 31.664062 C 24.132812 31.128906 23.328125 31.128906 23.328125 31.664062 C 23.328125 32.097656 23.101562 32.496094 22.726562 32.710938 C 22.351562 32.925781 21.894531 32.925781 21.519531 32.710938 C 21.144531 32.496094 20.914062 32.097656 20.914062 31.664062 C 20.890625 31.125 20.132812 31.128906 20.113281 31.664062 C 20.113281 32.097656 19.882812 32.496094 19.507812 32.710938 C 19.132812 32.925781 18.675781 32.925781 18.300781 32.710938 C 17.929688 32.496094 17.699219 32.097656 17.699219 31.664062 C 17.699219 31.128906 16.894531 31.128906 16.894531 31.664062 C 16.894531 31.941406 16.800781 32.203125 16.632812 32.414062 C 16.425781 32.179688 15.675781 31.324219 14.816406 30.042969 C 13.898438 28.671875 13.011719 26.988281 12.890625 25.644531 C 13.21875 25.613281 14.320312 25.484375 15.625 25.242188 C 17.269531 24.933594 19.253906 24.4375 20.511719 23.726562 Z M 23.332031 26.03125 C 22.792969 26.03125 22.792969 26.835938 23.332031 26.835938 L 23.332031 28.449219 C 23.332031 28.59375 23.253906 28.726562 23.128906 28.796875 C 23.003906 28.871094 22.851562 28.871094 22.730469 28.796875 C 22.605469 28.726562 22.527344 28.59375 22.527344 28.449219 C 22.527344 28.222656 22.34375 28.035156 22.117188 28.039062 C 21.894531 28.046875 21.71875 28.226562 21.722656 28.449219 C 21.722656 28.875 21.949219 29.277344 22.324219 29.492188 C 22.695312 29.707031 23.152344 29.710938 23.535156 29.492188 C 23.65625 29.421875 23.691406 29.378906 23.734375 29.347656 C 23.777344 29.386719 23.816406 29.421875 23.933594 29.492188 C 24.316406 29.710938 24.769531 29.707031 25.140625 29.492188 C 25.515625 29.277344 25.746094 28.875 25.746094 28.449219 C 25.746094 27.910156 24.941406 27.910156 24.941406 28.449219 C 24.941406 28.59375 24.863281 28.726562 24.738281 28.796875 C 24.613281 28.871094 24.457031 28.867188 24.339844 28.796875 C 24.210938 28.726562 24.136719 28.59375 24.136719 28.449219 L 24.136719 26.835938 C 24.671875 26.835938 24.671875 26.03125 24.136719 26.03125 Z M 9.246094 34.476562 C 9.023438 34.480469 8.84375 34.664062 8.847656 34.882812 C 8.847656 35.601562 9.234375 36.265625 9.855469 36.625 C 10.476562 36.984375 11.242188 36.984375 11.867188 36.625 C 12.238281 36.410156 12.410156 36.164062 12.46875 36.089844 C 12.523438 36.160156 12.699219 36.410156 13.070312 36.625 C 13.691406 36.984375 14.464844 36.984375 15.082031 36.625 C 15.457031 36.410156 15.632812 36.160156 15.6875 36.089844 C 15.742188 36.160156 15.917969 36.410156 16.289062 36.625 C 16.910156 36.984375 17.679688 36.984375 18.304688 36.625 C 18.675781 36.40625 18.847656 36.164062 18.902344 36.089844 C 18.949219 36.144531 19.132812 36.40625 19.507812 36.625 C 20.128906 36.984375 20.902344 36.984375 21.523438 36.625 C 21.894531 36.410156 22.074219 36.152344 22.125 36.089844 C 22.167969 36.144531 22.355469 36.410156 22.726562 36.625 C 23.347656 36.984375 24.117188 36.984375 24.742188 36.625 C 25.113281 36.410156 25.28125 36.160156 25.34375 36.089844 C 25.386719 36.144531 25.570312 36.410156 25.945312 36.625 C 26.566406 36.984375 27.332031 36.984375 27.957031 36.625 C 28.195312 36.484375 28.398438 36.304688 28.558594 36.089844 C 28.71875 36.304688 28.921875 36.484375 29.160156 36.625 C 29.78125 36.980469 30.550781 36.980469 31.171875 36.625 C 31.792969 36.265625 32.175781 35.601562 32.175781 34.882812 C 32.175781 34.347656 31.371094 34.347656 31.371094 34.882812 C 31.371094 35.316406 31.144531 35.710938 30.769531 35.929688 C 30.394531 36.144531 29.933594 36.144531 29.558594 35.929688 C 29.195312 35.714844 28.96875 35.332031 28.960938 34.90625 C 28.960938 34.902344 28.960938 34.894531 28.960938 34.882812 C 28.960938 34.347656 28.160156 34.347656 28.15625 34.882812 C 28.15625 34.894531 28.15625 34.898438 28.15625 34.90625 C 28.148438 35.332031 27.921875 35.71875 27.554688 35.929688 C 27.179688 36.144531 26.722656 36.144531 26.347656 35.929688 C 25.972656 35.714844 25.742188 35.316406 25.742188 34.882812 C 25.742188 34.347656 24.9375 34.347656 24.9375 34.882812 C 24.9375 35.316406 24.710938 35.714844 24.335938 35.929688 C 23.964844 36.144531 23.503906 36.144531 23.132812 35.929688 C 22.757812 35.714844 22.523438 35.316406 22.523438 34.882812 C 22.523438 34.347656 21.71875 34.347656 21.71875 34.882812 C 21.71875 35.316406 21.492188 35.714844 21.117188 35.929688 C 20.742188 36.144531 20.285156 36.144531 19.910156 35.929688 C 19.535156 35.714844 19.304688 35.316406 19.304688 34.882812 C 19.285156 34.347656 18.523438 34.347656 18.503906 34.882812 C 18.503906 35.316406 18.273438 35.714844 17.898438 35.929688 C 17.523438 36.144531 17.066406 36.144531 16.691406 35.929688 C 16.320312 35.714844 16.089844 35.316406 16.089844 34.882812 C 16.089844 34.347656 15.285156 34.347656 15.285156 34.882812 C 15.285156 35.316406 15.054688 35.714844 14.679688 35.929688 C 14.304688 36.144531 13.847656 36.144531 13.472656 35.929688 C 13.097656 35.714844 12.871094 35.316406 12.871094 34.882812 C 12.871094 34.347656 12.066406 34.347656 12.066406 34.882812 C 12.066406 35.316406 11.839844 35.714844 11.464844 35.929688 C 11.089844 36.144531 10.628906 36.144531 10.257812 35.929688 C 9.882812 35.714844 9.652344 35.316406 9.652344 34.882812 C 9.65625 34.65625 9.472656 34.472656 9.246094 34.476562 " fill-opacity="1" fill-rule="nonzero"/></g><g clip-path="url(#697b622cbe)"><g clip-path="url(#24713e98b7)"><g clip-path="url(#0838bd8e3b)"><path fill="#26437e" d="M 18.640625 5.011719 C 18.65625 5.085938 18.640625 5.152344 18.601562 5.214844 C 18.5625 5.273438 18.503906 5.3125 18.433594 5.328125 C 18.359375 5.34375 18.292969 5.332031 18.230469 5.289062 C 18.171875 5.25 18.132812 5.191406 18.117188 5.121094 C 18.101562 5.046875 18.113281 4.980469 18.15625 4.921875 C 18.195312 4.859375 18.253906 4.820312 18.324219 4.804688 C 18.394531 4.789062 18.464844 4.804688 18.523438 4.84375 C 18.585938 4.882812 18.625 4.941406 18.640625 5.011719 Z M 18.640625 5.011719 " fill-opacity="1" fill-rule="nonzero"/></g></g></g><g clip-path="url(#bdfdd6ce1d)"><g clip-path="url(#c3966d3787)"><g clip-path="url(#bc0604b13c)"><path fill="#26437e" d="M 17.59375 5.230469 C 17.609375 5.300781 17.597656 5.367188 17.554688 5.429688 C 17.515625 5.492188 17.457031 5.53125 17.386719 5.546875 C 17.3125 5.558594 17.246094 5.546875 17.183594 5.507812 C 17.125 5.464844 17.085938 5.410156 17.070312 5.339844 C 17.054688 5.265625 17.066406 5.199219 17.109375 5.136719 C 17.148438 5.074219 17.207031 5.039062 17.277344 5.023438 C 17.351562 5.007812 17.417969 5.019531 17.480469 5.058594 C 17.539062 5.101562 17.578125 5.15625 17.59375 5.230469 Z M 17.59375 5.230469 " fill-opacity="1" fill-rule="nonzero"/></g></g></g><g clip-path="url(#00a1b385f3)"><g clip-path="url(#9c19416d5e)"><g clip-path="url(#48db725792)"><path fill="#26437e" d="M 16.546875 5.445312 C 16.5625 5.519531 16.550781 5.585938 16.507812 5.648438 C 16.46875 5.710938 16.410156 5.746094 16.339844 5.761719 C 16.265625 5.777344 16.199219 5.765625 16.140625 5.722656 C 16.078125 5.683594 16.039062 5.628906 16.023438 5.554688 C 16.007812 5.484375 16.023438 5.414062 16.0625 5.355469 C 16.101562 5.292969 16.160156 5.253906 16.230469 5.238281 C 16.304688 5.222656 16.371094 5.238281 16.433594 5.277344 C 16.492188 5.316406 16.53125 5.375 16.546875 5.445312 Z M 16.546875 5.445312 " fill-opacity="1" fill-rule="nonzero"/></g></g></g><g clip-path="url(#409b5b200c)"><g clip-path="url(#f93f988ef8)"><g clip-path="url(#055cecb6b6)"><path fill="#26437e" d="M 15.5 5.664062 C 15.515625 5.734375 15.503906 5.804688 15.460938 5.863281 C 15.421875 5.925781 15.367188 5.964844 15.292969 5.980469 C 15.222656 5.996094 15.152344 5.980469 15.09375 5.941406 C 15.03125 5.902344 14.992188 5.84375 14.976562 5.773438 C 14.960938 5.699219 14.976562 5.632812 15.015625 5.570312 C 15.054688 5.507812 15.113281 5.472656 15.183594 5.457031 C 15.257812 5.441406 15.324219 5.453125 15.386719 5.496094 C 15.445312 5.535156 15.484375 5.589844 15.5 5.664062 Z M 15.5 5.664062 " fill-opacity="1" fill-rule="nonzero"/></g></g></g><g clip-path="url(#d2c6cdc9a2)"><g clip-path="url(#d5ad1e56e0)"><g clip-path="url(#ad665457aa)"><path fill="#26437e" d="M 14.453125 5.878906 C 14.46875 5.953125 14.457031 6.019531 14.414062 6.082031 C 14.375 6.144531 14.320312 6.183594 14.246094 6.195312 C 14.175781 6.210938 14.109375 6.199219 14.046875 6.160156 C 13.984375 6.117188 13.945312 6.0625 13.929688 5.988281 C 13.914062 5.917969 13.929688 5.851562 13.96875 5.789062 C 14.007812 5.726562 14.066406 5.6875 14.136719 5.671875 C 14.210938 5.660156 14.277344 5.671875 14.339844 5.710938 C 14.402344 5.753906 14.4375 5.808594 14.453125 5.878906 Z M 14.453125 5.878906 " fill-opacity="1" fill-rule="nonzero"/></g></g></g><g clip-path="url(#77c387db02)"><g clip-path="url(#d8d93496e3)"><g clip-path="url(#0ef3e2fa5a)"><path fill="#26437e" d="M 13.40625 6.097656 C 13.421875 6.171875 13.410156 6.238281 13.371094 6.300781 C 13.328125 6.359375 13.273438 6.398438 13.199219 6.414062 C 13.128906 6.429688 13.0625 6.417969 13 6.375 C 12.9375 6.335938 12.898438 6.277344 12.882812 6.207031 C 12.871094 6.132812 12.882812 6.066406 12.921875 6.003906 C 12.964844 5.945312 13.019531 5.90625 13.089844 5.890625 C 13.164062 5.875 13.230469 5.886719 13.292969 5.929688 C 13.355469 5.96875 13.390625 6.027344 13.40625 6.097656 Z M 13.40625 6.097656 " fill-opacity="1" fill-rule="nonzero"/></g></g></g><g clip-path="url(#9fe0084da7)"><g clip-path="url(#dcee7d179a)"><g clip-path="url(#65ce47660f)"><path fill="#26437e" d="M 12.359375 6.316406 C 12.375 6.386719 12.363281 6.453125 12.324219 6.515625 C 12.28125 6.578125 12.226562 6.617188 12.152344 6.632812 C 12.082031 6.644531 12.015625 6.632812 11.953125 6.59375 C 11.890625 6.550781 11.851562 6.496094 11.835938 6.421875 C 11.824219 6.351562 11.835938 6.285156 11.875 6.222656 C 11.917969 6.160156 11.972656 6.121094 12.046875 6.109375 C 12.117188 6.09375 12.183594 6.105469 12.246094 6.144531 C 12.308594 6.1875 12.347656 6.242188 12.359375 6.316406 Z M 12.359375 6.316406 " fill-opacity="1" fill-rule="nonzero"/></g></g></g><g clip-path="url(#5990334c5a)"><g clip-path="url(#b95282b931)"><g clip-path="url(#8b4eb0ab8d)"><path fill="#26437e" d="M 11.316406 6.53125 C 11.328125 6.605469 11.316406 6.671875 11.277344 6.734375 C 11.234375 6.792969 11.179688 6.832031 11.105469 6.847656 C 11.035156 6.863281 10.96875 6.851562 10.90625 6.808594 C 10.84375 6.769531 10.804688 6.714844 10.792969 6.640625 C 10.777344 6.570312 10.789062 6.5 10.828125 6.441406 C 10.871094 6.378906 10.925781 6.339844 11 6.324219 C 11.070312 6.308594 11.136719 6.324219 11.199219 6.363281 C 11.261719 6.402344 11.300781 6.460938 11.316406 6.53125 Z M 11.316406 6.53125 " fill-opacity="1" fill-rule="nonzero"/></g></g></g><g clip-path="url(#163b4661f7)"><g clip-path="url(#06052eea4f)"><g clip-path="url(#2776e4d8b5)"><path fill="#26437e" d="M 10.269531 6.75 C 10.28125 6.820312 10.269531 6.886719 10.230469 6.949219 C 10.1875 7.011719 10.132812 7.050781 10.0625 7.066406 C 9.988281 7.082031 9.921875 7.066406 9.859375 7.027344 C 9.796875 6.988281 9.757812 6.929688 9.746094 6.859375 C 9.730469 6.785156 9.742188 6.71875 9.78125 6.65625 C 9.824219 6.59375 9.878906 6.558594 9.953125 6.542969 C 10.023438 6.527344 10.089844 6.539062 10.152344 6.582031 C 10.214844 6.621094 10.253906 6.675781 10.269531 6.75 Z M 10.269531 6.75 " fill-opacity="1" fill-rule="nonzero"/></g></g></g><g clip-path="url(#e6f9124053)"><g clip-path="url(#7a46003bb4)"><g clip-path="url(#9cc46be9cb)"><path fill="#26437e" d="M 9.222656 6.964844 C 9.238281 7.039062 9.222656 7.105469 9.183594 7.167969 C 9.144531 7.230469 9.085938 7.265625 9.015625 7.28125 C 8.941406 7.296875 8.875 7.285156 8.8125 7.242188 C 8.75 7.203125 8.714844 7.148438 8.699219 7.074219 C 8.683594 7.003906 8.695312 6.9375 8.738281 6.875 C 8.777344 6.8125 8.832031 6.773438 8.90625 6.757812 C 8.976562 6.742188 9.042969 6.757812 9.105469 6.796875 C 9.167969 6.835938 9.207031 6.894531 9.222656 6.964844 Z M 9.222656 6.964844 " fill-opacity="1" fill-rule="nonzero"/></g></g></g><g clip-path="url(#2f7087435a)"><g clip-path="url(#d22bce04a0)"><g clip-path="url(#b4db48c6fe)"><path fill="#26437e" d="M 8.175781 7.183594 C 8.191406 7.253906 8.175781 7.324219 8.136719 7.382812 C 8.097656 7.445312 8.039062 7.484375 7.96875 7.5 C 7.894531 7.515625 7.828125 7.5 7.765625 7.460938 C 7.703125 7.421875 7.667969 7.363281 7.652344 7.292969 C 7.636719 7.21875 7.648438 7.152344 7.691406 7.089844 C 7.730469 7.03125 7.785156 6.992188 7.859375 6.976562 C 7.929688 6.960938 8 6.972656 8.058594 7.015625 C 8.121094 7.054688 8.160156 7.109375 8.175781 7.183594 Z M 8.175781 7.183594 " fill-opacity="1" fill-rule="nonzero"/></g></g></g><g clip-path="url(#4c6e7dc7ed)"><g clip-path="url(#c883478df0)"><g clip-path="url(#9135a4a09b)"><path fill="#26437e" d="M 7.128906 7.402344 C 7.144531 7.472656 7.128906 7.539062 7.089844 7.601562 C 7.050781 7.664062 6.992188 7.703125 6.921875 7.714844 C 6.847656 7.730469 6.78125 7.71875 6.71875 7.679688 C 6.660156 7.636719 6.621094 7.582031 6.605469 7.507812 C 6.589844 7.4375 6.601562 7.371094 6.644531 7.308594 C 6.683594 7.246094 6.738281 7.207031 6.8125 7.191406 C 6.882812 7.179688 6.953125 7.191406 7.011719 7.230469 C 7.074219 7.273438 7.113281 7.328125 7.128906 7.402344 Z M 7.128906 7.402344 " fill-opacity="1" fill-rule="nonzero"/></g></g></g><g clip-path="url(#cafe80af5a)"><g clip-path="url(#05f6c87ad1)"><g clip-path="url(#c85342614c)"><path fill="#26437e" d="M 24.046875 5.117188 C 23.683594 4.457031 21.886719 2.703125 19.621094 3.171875 L 14.464844 4.242188 L 11.265625 3.011719 C 10.632812 2.769531 9.988281 2.714844 9.324219 2.851562 L 8.800781 2.960938 C 8.566406 3.007812 8.425781 3.152344 8.382812 3.386719 C 8.339844 3.628906 8.417969 3.8125 8.625 3.941406 L 10.464844 5.070312 L 4.523438 6.304688 C 4.308594 6.347656 3.558594 5.519531 2.988281 4.617188 C 2.921875 4.511719 2.828125 4.472656 2.707031 4.496094 L 0.351562 4.984375 C 0.257812 5.003906 0.195312 5.058594 0.15625 5.144531 C 0.121094 5.234375 0.128906 5.316406 0.183594 5.394531 L 2.261719 8.535156 L 1.257812 10.351562 C 1.203125 10.453125 1.207031 10.546875 1.277344 10.640625 C 1.34375 10.730469 1.433594 10.765625 1.546875 10.742188 L 2.082031 10.628906 C 2.300781 10.585938 2.488281 10.480469 2.644531 10.316406 L 3.71875 9.179688 C 4.742188 9.238281 6.664062 9.316406 8.828125 9.226562 C 9.6875 9.191406 10.445312 9.128906 11.324219 9.019531 L 9.011719 12.34375 C 8.875 12.542969 8.875 12.742188 9.003906 12.941406 C 9.136719 13.144531 9.320312 13.21875 9.558594 13.171875 L 10.078125 13.066406 C 10.742188 12.925781 11.316406 12.621094 11.800781 12.144531 L 13.496094 10.476562 L 15.609375 10.277344 L 15.636719 10.273438 C 15.867188 10.203125 16.039062 10.0625 16.15625 9.855469 C 16.273438 9.644531 16.296875 9.425781 16.234375 9.191406 C 16.164062 8.804688 15.941406 8.558594 15.566406 8.449219 L 15.695312 8.320312 C 17.304688 8.027344 18.929688 7.703125 20.269531 7.425781 C 22.113281 7.042969 23.421875 6.746094 23.445312 6.742188 C 23.574219 6.714844 23.691406 6.664062 23.800781 6.589844 C 23.910156 6.519531 24 6.425781 24.070312 6.316406 C 24.144531 6.207031 24.191406 6.085938 24.214844 5.957031 C 24.242188 5.828125 24.242188 5.699219 24.214844 5.574219 C 24.179688 5.410156 24.125 5.257812 24.046875 5.117188 Z M 22.542969 4.351562 C 22.367188 4.46875 22.179688 4.550781 21.976562 4.59375 L 21.46875 4.699219 C 21.28125 4.738281 21.121094 4.6875 20.984375 4.554688 L 20.960938 4.53125 L 21.605469 4.398438 C 21.820312 4.355469 22.007812 4.261719 22.175781 4.125 C 22.300781 4.195312 22.425781 4.269531 22.542969 4.351562 Z M 8.910156 3.484375 L 9.433594 3.375 C 9.996094 3.257812 10.546875 3.300781 11.082031 3.511719 L 13.496094 4.441406 L 11.222656 4.914062 Z M 2.253906 9.949219 C 2.1875 10.023438 2.105469 10.070312 2.011719 10.097656 L 2.859375 8.558594 L 3.742188 8.375 Z M 14.101562 9.882812 L 14.640625 9.355469 C 14.648438 9.410156 14.660156 9.464844 14.675781 9.519531 C 14.699219 9.625 14.738281 9.722656 14.789062 9.816406 Z M 15.53125 9.75 L 15.492188 9.757812 C 15.304688 9.71875 15.203125 9.601562 15.1875 9.414062 C 15.125 9.226562 15.175781 9.082031 15.339844 8.972656 L 15.367188 8.964844 C 15.503906 8.9375 15.667969 9.097656 15.710938 9.304688 C 15.753906 9.511719 15.671875 9.722656 15.53125 9.75 Z M 14.550781 8.691406 L 14.539062 8.691406 L 11.421875 11.761719 C 11.011719 12.167969 10.527344 12.425781 9.964844 12.542969 L 9.441406 12.652344 L 13 7.546875 L 16.453125 6.832031 Z M 23.316406 6.226562 C 23.28125 6.234375 19.910156 6.992188 16.367188 7.667969 L 17.464844 6.589844 C 17.574219 6.5 17.597656 6.390625 17.535156 6.265625 C 17.472656 6.136719 17.371094 6.089844 17.234375 6.121094 L 12.785156 7.046875 C 12.714844 7.058594 12.660156 7.09375 12.621094 7.152344 L 11.738281 8.429688 C 10.761719 8.570312 9.777344 8.664062 8.792969 8.699219 C 6.9375 8.773438 5.25 8.730469 4.1875 8.675781 L 4.695312 8.136719 C 4.789062 8.042969 4.804688 7.9375 4.742188 7.820312 C 4.683594 7.703125 4.585938 7.65625 4.457031 7.683594 L 2.625 8.0625 L 2.59375 8.066406 L 0.847656 5.429688 L 2.632812 5.058594 C 3.082031 5.742188 3.980469 6.960938 4.636719 6.824219 L 19.730469 3.695312 C 20.363281 3.570312 20.980469 3.621094 21.578125 3.855469 L 21.5 3.875 L 20.363281 4.109375 C 20.257812 4.128906 20.191406 4.191406 20.160156 4.296875 C 20.128906 4.398438 20.152344 4.488281 20.230469 4.5625 L 20.609375 4.933594 C 20.882812 5.203125 21.203125 5.296875 21.578125 5.222656 L 22.082031 5.117188 C 22.414062 5.046875 22.714844 4.90625 22.976562 4.695312 C 23.210938 4.890625 23.414062 5.117188 23.578125 5.375 C 23.632812 5.472656 23.667969 5.574219 23.691406 5.679688 C 23.714844 5.804688 23.695312 5.921875 23.625 6.027344 C 23.554688 6.132812 23.457031 6.199219 23.332031 6.222656 Z M 23.316406 6.226562 " fill-opacity="1" fill-rule="nonzero"/></g></g></g></svg>