<svg xmlns="http://www.w3.org/2000/svg" xmlns:xlink="http://www.w3.org/1999/xlink" width="1889" zoomAndPan="magnify" viewBox="0 0 1417.5 1417.500002" height="1889" preserveAspectRatio="xMidYMid meet" version="1.0"><defs><clipPath id="1a26d9eb70"><path d="M 176.558594 178.492188 L 1240.25 178.492188 L 1240.25 1238.332031 L 176.558594 1238.332031 Z M 176.558594 178.492188 " clip-rule="nonzero"/></clipPath></defs><path fill="#ffffff" d="M 0 0 L 1417 0 L 1417 1417 L 0 1417 Z M 0 0 " fill-opacity="1" fill-rule="nonzero"/><path fill="#ffffff" d="M 0 0 L 1417 0 L 1417 1417 L 0 1417 Z M 0 0 " fill-opacity="1" fill-rule="nonzero"/><path fill="#26437e" d="M 1066.277344 494.550781 C 1044.132812 517.523438 1010.738281 525.363281 984.652344 527.710938 L 1048.535156 461.4375 C 1055.335938 454.390625 1055.128906 443.160156 1048.078125 436.371094 C 1041.039062 429.597656 1029.835938 429.792969 1023.015625 436.835938 L 960.785156 501.402344 C 963.125 474.136719 970.703125 439.574219 992.898438 416.550781 C 1023.136719 385.171875 1074.429688 381.894531 1099.324219 382.507812 C 1099.894531 408.464844 1097 462.664062 1066.277344 494.550781 Z M 1118.328125 348.179688 C 1114.378906 347.6875 1020.710938 336.613281 967.382812 391.949219 C 914.390625 446.929688 924.96875 543.3125 925.453125 547.390625 C 926.40625 555.492188 932.761719 561.894531 940.84375 562.921875 C 942.023438 563.066406 951.070312 564.148438 964.644531 564.148438 C 996.824219 564.148438 1054.28125 558.070312 1091.789062 519.148438 C 1144.78125 464.167969 1134.203125 367.789062 1133.71875 363.703125 C 1132.769531 355.609375 1126.414062 349.199219 1118.328125 348.179688 " fill-opacity="1" fill-rule="nonzero"/><path fill="#26437e" d="M 709.570312 416.550781 C 731.777344 439.582031 739.355469 474.136719 741.6875 501.402344 L 679.46875 436.835938 C 672.667969 429.792969 661.46875 429.597656 654.402344 436.371094 C 647.359375 443.160156 647.152344 454.390625 653.953125 461.4375 L 717.828125 527.71875 C 691.734375 525.367188 658.371094 517.535156 636.210938 494.550781 C 605.484375 462.664062 602.59375 408.464844 603.164062 382.507812 C 628.089844 381.894531 679.332031 385.171875 709.570312 416.550781 Z M 584.15625 348.179688 C 576.074219 349.199219 569.722656 355.609375 568.769531 363.703125 C 568.285156 367.789062 557.707031 464.167969 610.695312 519.148438 C 648.207031 558.078125 705.660156 564.148438 737.824219 564.148438 C 751.378906 564.148438 760.449219 563.066406 761.625 562.921875 C 769.710938 561.894531 776.0625 555.492188 777.015625 547.390625 C 777.5 543.3125 788.09375 446.929688 735.089844 391.949219 C 681.808594 336.625 588.15625 347.710938 584.15625 348.179688 " fill-opacity="1" fill-rule="nonzero"/><g clip-path="url(#1a26d9eb70)"><path fill="#26437e" d="M 312.292969 814.308594 L 551.847656 1053.878906 C 552.148438 1054.699219 552.1875 1055.558594 552.617188 1056.347656 C 554.832031 1060.375 558.410156 1063.078125 562.429688 1064.460938 L 600.570312 1102.605469 L 500.289062 1202.859375 L 212.011719 914.589844 Z M 522.429688 747.535156 L 669.796875 747.535156 L 747.988281 797.894531 C 750.84375 799.738281 754.167969 800.710938 757.574219 800.710938 L 905.667969 800.710938 C 915.90625 807.171875 934.722656 822.035156 934.960938 836.835938 C 935.121094 847.414062 924.730469 859.671875 905.550781 871.617188 L 709.433594 871.617188 C 699.640625 871.617188 691.710938 879.554688 691.710938 889.347656 C 691.710938 899.132812 699.640625 907.070312 709.433594 907.070312 L 910.484375 907.070312 C 913.636719 907.070312 916.714844 906.230469 919.4375 904.644531 C 953.730469 884.609375 970.859375 861.546875 970.398438 836.121094 C 970.304688 831.339844 969.554688 826.785156 968.347656 822.433594 L 1160.558594 712.722656 C 1173.550781 705.347656 1189.996094 708.777344 1198.910156 720.679688 C 1198.996094 720.796875 1199.101562 720.925781 1199.203125 721.058594 C 1208.609375 733.953125 1205.996094 752.222656 1193.304688 761.96875 L 865.710938 1013.429688 L 597.230469 1013.429688 C 594.128906 1013.429688 591.082031 1014.238281 588.398438 1015.792969 L 572.820312 1024.71875 L 385.449219 837.332031 Z M 750.792969 676.863281 L 790.175781 687.535156 C 794.46875 688.679688 799.074219 688.210938 803.035156 686.125 L 854.152344 659.371094 L 955.25 676.757812 L 978.242188 707.910156 C 982.285156 713.40625 989.160156 716.039062 995.820312 714.800781 L 1070.449219 700.5625 L 1086.546875 714.132812 L 950.386719 791.847656 C 937.160156 777.546875 921.753906 768.910156 918.863281 767.363281 C 916.285156 765.980469 913.40625 765.261719 910.484375 765.261719 L 762.785156 765.261719 L 684.59375 714.902344 C 684.378906 714.761719 684.121094 714.714844 683.894531 714.585938 Z M 799.054688 323.1875 C 799.054688 278.523438 833.070312 238.527344 851.28125 220.324219 C 869.476562 238.460938 903.4375 278.320312 903.4375 323.1875 C 903.4375 355.449219 885.691406 385.140625 868.972656 406.078125 L 868.972656 314.113281 C 868.972656 304.324219 861.042969 296.390625 851.25 296.390625 C 841.453125 296.390625 833.519531 304.324219 833.519531 314.113281 L 833.519531 406.199219 C 816.808594 385.316406 799.054688 355.625 799.054688 323.1875 Z M 487.773438 1215.40625 L 500.304688 1202.886719 C 500.304688 1202.886719 500.324219 1202.890625 500.339844 1202.902344 Z M 475.242188 1227.941406 C 481.921875 1234.636719 490.816406 1238.320312 500.269531 1238.332031 C 500.289062 1238.332031 500.289062 1238.332031 500.304688 1238.332031 C 509.773438 1238.332031 518.671875 1234.640625 525.371094 1227.941406 L 625.636719 1127.667969 C 632.332031 1120.972656 636.023438 1112.070312 636.023438 1102.605469 C 636.023438 1093.136719 632.332031 1084.234375 625.636719 1077.539062 L 598.792969 1050.691406 L 601.957031 1048.882812 L 868.972656 1048.882812 C 869.097656 1048.882812 869.203125 1048.8125 869.3125 1048.804688 C 869.976562 1048.882812 870.585938 1049.25 871.257812 1049.25 C 875.011719 1049.25 878.828125 1048.058594 882.042969 1045.589844 L 1214.871094 790.101562 C 1243.019531 768.496094 1248.609375 727.832031 1227.324219 699.453125 C 1227.199219 699.289062 1227.058594 699.117188 1226.925781 698.953125 C 1207.261719 673.160156 1171.265625 665.785156 1142.984375 681.925781 L 1118.277344 696.027344 C 1117.292969 694.367188 1116.191406 692.746094 1114.628906 691.429688 L 1086.84375 668.007812 C 1082.765625 664.558594 1077.34375 663.136719 1072.101562 664.148438 L 1000.136719 677.886719 L 979.554688 649.972656 C 976.832031 646.292969 972.796875 643.800781 968.300781 643.03125 L 868.972656 625.945312 L 868.972656 459.222656 C 868.972656 458.902344 868.804688 458.640625 868.789062 458.320312 C 887.128906 441.5625 938.890625 388.507812 938.890625 323.1875 C 938.890625 245.519531 865.546875 184.996094 862.429688 182.457031 C 855.921875 177.164062 846.570312 177.164062 840.0625 182.457031 C 836.945312 184.996094 763.601562 245.519531 763.601562 323.1875 C 763.601562 388.507812 815.359375 441.5625 833.703125 458.320312 C 833.6875 458.640625 833.519531 458.902344 833.519531 459.222656 L 833.519531 630.15625 L 792.75 651.496094 L 753.058594 640.746094 C 748.578125 639.550781 743.78125 640.136719 739.714844 642.414062 L 616.152344 712.082031 L 517.132812 712.082031 C 513.6875 712.082031 510.292969 713.09375 507.421875 714.980469 L 359.847656 811.722656 L 337.359375 789.234375 C 323.492188 775.421875 301.007812 775.429688 287.210938 789.246094 L 186.945312 889.519531 C 180.25 896.210938 176.558594 905.113281 176.558594 914.589844 C 176.558594 924.0625 180.25 932.957031 186.945312 939.65625 L 475.242188 1227.941406 " fill-opacity="1" fill-rule="nonzero"/></g></svg>